/* XPM */
static char *result[] = {
/* columns rows colors chars-per-pixel */
"64 64 54 1 ",
"  c #010101",
". c #080605",
"X c gray6",
"o c #0C0910",
"O c #120E14",
"+ c #151216",
"@ c #181613",
"# c #1B1916",
"$ c #161219",
"% c #1B141C",
"& c #1E1A1D",
"* c #201C1E",
"= c #23221E",
"- c #1E1722",
"; c #201722",
": c #221B24",
"> c #251F29",
", c #262323",
"< c #292426",
"1 c #2A2926",
"2 c #262129",
"3 c #2A252C",
"4 c #2D2A2C",
"5 c #302C2E",
"6 c #33312E",
"7 c #2D2630",
"8 c #2F2931",
"9 c #332D33",
"0 c #353235",
"q c #383436",
"w c #3B3936",
"e c #373138",
"r c #3B353B",
"t c #3E393D",
"y c #403C3E",
"u c #43413F",
"i c #3F3940",
"p c #423D42",
"a c #464145",
"s c #484446",
"d c #4B4847",
"f c #474348",
"g c #4A4649",
"h c #4D4A4C",
"j c #504D4F",
"k c #51504F",
"l c #524E51",
"z c #555253",
"x c #585656",
"c c #5A5857",
"v c #5A5759",
"b c #5C5B5B",
"n c #605F5F",
"m c #60605F",
/* pixels */
" 4twrrittwirtwttrrwtwrwtwtwwrt#. =rwwrwwwqwrw0ww00000000869864=.",
"<zmmnnmbbmbmmmmmnnnnmmnbmmbbbvt.,xbcxkkkhhkkkxzzkczckxzbcczkkktX",
"0hkkllljkbbbbbbbnnvnbbcjjkzzkle7fkkkhhffaahhhhhhkkkkkvkckkkhfft$",
"1fjjllllkxvvvxxxxxxxxxzzlkjjjj87udkhkhkkhaadfhhhhkkkkvvcfffuuftX",
"4djjzjlllhklklkzzzzzzzzzzlkjjh92pgllhkfhhieitiaaffkkkkkchdffffwX",
"4dkhjjzlllllzklzzlzvzzjzjvjhlh92tflhhhkhhgdfhhpgfffkkfkhfhzptftX",
"1dhhhzljlllzlfllllxhszjjzziflh97udlhflzfhhhjbfrhkfkzifddhcf8iftX",
"1dhdkgplllhgifllllhrhljjjiihhf92wdhhzziihfgzh4pgfkbi8fhfxk1rfpi$",
"1shsfrfzlffeikkjjs9pzjjsrejjjg83tddhza8ghdhh8rhggzf3ahdhj80fupqO",
"1ssweajhlfeihhhhy9pljjhyijjggh82tdhdp8fhffsethgfda9igggdirffpfrO",
"1sarfhhhllflhhjjpsjhhllhjjgllg82tukfrfhfhhaagffhgiahfgjffdfffaq+",
"1ahhhhhklflghzzfjjhglzfhjglvpf9<wfddhhfhzgidfgzgihgafvdeffakheq$",
"1asdhdhhiahdhlifhghjlpthgjzprg8<wdghgggch8afazz8ifaszk8tffzk80rX",
"1ugsddfrrghggieghhghtefhgjp8fg8<wudgggkh8rfphz90gsahz08ffhze4arO",
",assgt0rgggaeefgdgaqefhhfr9phf8<wuhdggf9rfaadr9afaagw9fffdr7ipeO",
"1asdgiiggggprgggdffpfggggfggff8<wuddgfiifsaairaaaaaatfffufiaaarO",
",ussshhghplxhpphpxlpjgpzzphhph8>yplppplppppvxppppghaffpazjrppprO",
"1ysdkhaspgzpyhhpjzppphhzyyhphp83ypppvvpppplpypppaxh9afpkz0qpppqO",
"=ysdaragpppypjphjyyppphy8pggpp8>yyplvpppplly7pppzh3rfpgzr3ppypeO",
"1tutepgayy9ppppgy8yphyy9ygggph8>yypjp7ppppy7pppph99aapgt8ypppprO",
"1w09tfapyyypppyyygppppyyggppgp3>6uuyppppppyyppppe9pppppepppytpeO",
"=ttyaaahppppppypyppglpgppggzhy8>6yyypppplppppppppppphgpapppght9$",
",yaapahjppppjlpppppxpyppppjhyy7>yyuupppvp9ppplpeppijzetpppfxp9rO",
"=tapasgrypppjpyppphpyygppgh7yp7>6yysppvp7yypll7yppgzr8ppppza>rrO",
"=tuuypqeyppdy7yyyyy5yyyyyyy7pp8<yyyuujd57pypl97pypjy>ypppfg>ep9O",
"=yayq8eyyyye>yyyyy7yyyyyy9yypp7>1yuupy50yyypy7yyyyy3rpyppp8eppeO",
"=tyyeeppyyq9yyyyyyyyyyyypyyypp7>6yuuyyyyyyy97ypypyeyppyyprpprp9$",
"=wayppyyy09qy95y4y99y<yyypyppy3>6yyyyppyyy7yy79y99yeereyiptrrpeO",
"=qyyyyyp938334<3<<<<<<<yyyyypy3:4yppyyyyy7>333<>78889580prrirr9O",
"=wyyyyppy9999999559995yyppyypp3>9yppppppy979989y9990990yppppppeO",
"#49598887>>><<<><<><<:<5789998>;,489873773>>3333337388899999887%",
".+%%%**%%%%%%%%%%%%%%%%%%%%;;;;O.X;;;;;;;;;;;;;;;;;;;;;;;;;>>>;O",
" *3313414900000000qq00q5143111%  <6<411387800900000000003,<2,3& ",
"5kczcvzzzbbbbbbvbbbbbbbzzzvxxzy$6xczzjhhghzzzzzzzczzzxzcczzkhhp@",
"wdzkkjhhjvvvvvvvcccccczsjjlllly7ydjzhggaiplhkkkjlkzzzvvzkzzjhhp*",
"=wtaiipufhjhjjjhhdhhhddapppppp7>6yuyppaappppfffgghhhhhhjpititie+",
"1uuaaassffggfhhlhjhhhddsgafapj936yffsfaajpeiipppfgdkhzzzffifppr$",
",tuppaaaafgfhlgghhhkhhssahjppp936yapappappppppppfffghhhgpphfrpr$",
",tapahgaaaagjpyaaahhpfaahliipp8>qyaapglapppplhipppfziiaapzk9ipq$",
",wpugaiaaaagrqdaahdeyfagdr9ppp876wapfzpepppjj8pppfzg8afpkl98ppe$",
",tpat9rappyq8ysaaa9eaaaay3yppp8>6wuajp7yppsh97pppjg>rgpfhe3iipe$",
"=ttq80aapy58ypppr44yapy07ppppp8>6uauy79pppy97ppppp87pppfe8ritie$",
"=tw19tppfp9ypppp09yapaaypppppp936waw89ppppy9pppppeepppppipiiaae$",
"=uuwyayslpppysjfypppsjsppppxpp9>6wpppppyjhppppphppppphltapihjre%",
"=ryyypadyrpypgprppyahp0ppppp7p776wpppppjjeepppjerpppgzr9pigzr8r$",
"=wyyyuuq8yypfp8wpyyft3tpypp7pp7>6wppppsg98pypjy3ppppli>ppazi>re$",
"=wytyq53rpyyq<qpypw939ppyy>7pp7>6wyypyp9>rpppy>eppppr>eppfi29ie$",
",wyty93ryyy939yyyyr5ryyyp99ypy775wyypp99ypyye8eppppr9rippt9riie$",
"=qttypyyyyphyyyyyppyyyyplpypye>>3yppppppprppppepippppppppppppp7-",
"=qttshyyryhpyyyeyhpyyypppyypyy7>5erppglrrppllerpepvp7pppvp77ppe$",
"=qtuprryyyy79yeypy3yyyyy7epypy7>5yprplrepeple7prplp8pppppp>pipe$",
"=qty88yyeq79yyyyy;yyyyy<7yyypp7><yppgr>rrpp77peppp7eppppp7ppipe$",
"=6548wyq4<8eyyq4>9y9y9<<yyyyyr7><5yye>epre779peep87ypei87eipepe$",
"=088ryeyy9yy9ey58yyyyyyyeypppe7>5yyy7epeiierp9epeeeppppppiipppe$",
"*0wwrqphyey9yhyeyypppy9yyyphpr7><yyyirpplpripyppppepppppiipplp7-",
"=6wwrysy7yeyhp0eyypp99yyeppy7p>><<y5prplp7repzl7eyeplp7ppeplp77$",
"@yy9yyy<qyyyy7y0yyy35yy9yp9>9y3>16yyyyyy>8p9pp77yephy>eyeepp>ee-",
"*59y64;5e50y;5y94y;<5y8yy778yy7>665y5yy<3yeppy>y9yye>9ryepi79ie$",
"*5y54<9yey<<4y9yy4<yyyy9888yy93>16yyrq39ee9y879pyee9eyyriieeei7-",
"*5y4yy5y05389843454y<7<yyyy9yy3>56yyrqqyy9997y9999ee8e9rieieep9$",
"*1y59y59733><<<<:<*:,*;y87y99y:><5yerrre97>333337>733849iiiiep7-",
"#yyy9yy97<3<<><><<<<<:<yyyyyyy>>55eyrrrry333343377783839i7iipee$",
"@<<<99599;**;*;******;*5<y>799<;*<99999993><>;>:><<;>>>777i77i7-",
".@%@%%%;%;;*%*%;;%;%#*%%%%%%%;%..@%;;;;;;;*::;:;;:;;;>;;;;>;;;;o"
};
