/* XPM */
static char *result[] = {
/* columns rows colors chars-per-pixel */
"64 64 254 2 ",
"   c #7E2B6A",
".  c #7F4E76",
"X  c #7C6C7A",
"o  c #7D767D",
"O  c #8A0B66",
"+  c #8D076C",
"@  c #8C0B6C",
"#  c #91066D",
"$  c #910C6E",
"%  c #85176C",
"&  c #8B136D",
"*  c #8B1B6E",
"=  c #92156E",
"-  c #8D0A70",
";  c #930D72",
":  c #920B74",
">  c #8D1572",
",  c #8D1C72",
"<  c #941374",
"1  c #931C75",
"2  c #981778",
"3  c #951C79",
"4  c #86276E",
"5  c #8A246E",
"6  c #85316E",
"7  c #8D2473",
"8  c #8A2B75",
"9  c #8C2B74",
"0  c #922376",
"q  c #912B76",
"w  c #94257A",
"e  c #9A247C",
"r  c #932C7B",
"t  c #9A297E",
"y  c #863374",
"u  c #8B3475",
"i  c #863C75",
"p  c #893B76",
"a  c #8D347A",
"s  c #8D3C7A",
"d  c #93347C",
"f  c #99337E",
"g  c #923C7D",
"h  c #854877",
"j  c #8C447B",
"k  c #8C4C7D",
"l  c #92427D",
"z  c #904D7F",
"x  c #835279",
"c  c #8B537D",
"v  c #845B7C",
"b  c #8A5A7E",
"n  c #91517F",
"m  c #83697D",
"M  c #81747F",
"N  c #7B867D",
"B  c #79967E",
"V  c #7F7983",
"C  c #9C2A81",
"Z  c #9B3483",
"A  c #953C81",
"S  c #9B3B84",
"D  c #9D3C87",
"F  c #A22B86",
"G  c #A13A88",
"H  c #8E4981",
"J  c #944382",
"K  c #9B4385",
"L  c #944B83",
"P  c #9A4B86",
"I  c #974188",
"U  c #9D448A",
"Y  c #9D4B8A",
"T  c #8C5482",
"R  c #8D5B83",
"E  c #8B5C86",
"W  c #935485",
"Q  c #925B85",
"!  c #985488",
"~  c #9C538C",
"^  c #955D89",
"/  c #9B5B8C",
"(  c #9B5990",
")  c #A1498B",
"_  c #A1548E",
"`  c #A75795",
"'  c #AD5197",
"]  c #A45B94",
"[  c #8C6483",
"{  c #866881",
"}  c #8B6C85",
"|  c #8D6C88",
" . c #916386",
".. c #94638A",
"X. c #9B638C",
"o. c #966A8B",
"O. c #936C8A",
"+. c #8B7286",
"@. c #887784",
"#. c #847B83",
"$. c #8D748A",
"%. c #8C7C8B",
"&. c #93738D",
"*. c #99738E",
"=. c #927D8D",
"-. c #9D6992",
";. c #9B7493",
":. c #977B93",
">. c #9B7B94",
",. c #A46496",
"<. c #A76899",
"1. c #B0629C",
"2. c #A3759A",
"3. c #A7779C",
"4. c #A47C9C",
"5. c #B75FA6",
"6. c #B567A6",
"7. c #A976A0",
"8. c #AC7CA2",
"9. c #B271A5",
"0. c #B578AA",
"q. c #C472B4",
"w. c #7D8983",
"e. c #7B9684",
"r. c #7AC38C",
"t. c #7EC793",
"y. c #8C828B",
"u. c #878989",
"i. c #91828D",
"p. c #84938A",
"a. c #86988C",
"s. c #8F8E91",
"d. c #958393",
"f. c #9A8395",
"g. c #938C93",
"h. c #9B889A",
"j. c #8C9493",
"k. c #8B9B93",
"l. c #939797",
"z. c #9B959B",
"x. c #9C9C9D",
"c. c #A4849D",
"v. c #A9849F",
"b. c #A18C9E",
"n. c #A2969E",
"m. c #82A58C",
"M. c #8CA894",
"N. c #9AA29E",
"B. c #94AB9C",
"V. c #8CB898",
"C. c #94B39D",
"Z. c #99B39F",
"A. c #93BB9D",
"S. c #A1A19F",
"D. c #9E97A0",
"F. c #9E9CA2",
"G. c #A885A4",
"H. c #AA84A4",
"J. c #A48BA2",
"K. c #AA8CA5",
"L. c #AC8EA9",
"P. c #B184A8",
"I. c #A495A3",
"U. c #AA92A5",
"Y. c #A49CA4",
"T. c #A99BA6",
"R. c #AC94AA",
"E. c #A59AA9",
"W. c #AB9CAB",
"Q. c #B29AB0",
"!. c #97A7A0",
"~. c #9CA4A2",
"^. c #96ACA0",
"/. c #9CADA3",
"(. c #96B5A2",
"). c #9BB3A4",
"_. c #95BCA2",
"`. c #9ABCA4",
"'. c #9EB4A9",
"]. c #9DBDAA",
"[. c #A3A4A5",
"{. c #A9A1A7",
"}. c #A3ACA6",
"|. c #A6A5AA",
" X c #ABA4AB",
".X c #A4ACAA",
"XX c #ABABAC",
"oX c #A2B3A6",
"OX c #A3B4AB",
"+X c #A9B3AD",
"@X c #A4BBAC",
"#X c #A7BCAC",
"$X c #AEABB1",
"%X c #B2A7B2",
"&X c #B2ADB3",
"*X c #ACB4B2",
"=X c #A5BBB1",
"-X c #AABBB2",
";X c #87C899",
":X c #92C29E",
">X c #91C99F",
",X c #88D69D",
"<X c #95C3A3",
"1X c #9AC4A5",
"2X c #94CCA4",
"3X c #9DC4AA",
"4X c #98CBA8",
"5X c #9BCCAA",
"6X c #92D3A6",
"7X c #94D3A5",
"8X c #96DAA7",
"9X c #95D4AA",
"0X c #9CD3AC",
"qX c #96DBAA",
"wX c #9BDCAD",
"eX c #9FD1B0",
"rX c #9DDDB2",
"tX c #A2C4AD",
"yX c #AAC0AF",
"uX c #A2CBAE",
"iX c #A1D6AE",
"pX c #A5C4B1",
"aX c #AAC3B3",
"sX c #A5CBB2",
"dX c #ABCCB6",
"fX c #B3CEBB",
"gX c #A3D4B2",
"hX c #A3DCB4",
"jX c #ACD2BA",
"kX c #A8D9B8",
"lX c #95E2AB",
"zX c #9AE3AD",
"xX c #95EAAD",
"cX c #99ECAE",
"vX c #96F4AF",
"bX c #99F1AF",
"nX c #9EE4B2",
"mX c #96E9B0",
"MX c #9CECB3",
"NX c #96F4B1",
"BX c #9BF3B3",
"VX c #9CF7B7",
"CX c #9CFBB6",
"ZX c #9DFAB9",
"AX c #A1E8AF",
"SX c #A2E3B4",
"DX c #A2EBB5",
"FX c #A5E5BA",
"GX c #AAE5BC",
"HX c #A4ECB9",
"JX c #A1F4B6",
"KX c #A1FAB6",
"LX c #A2F4BA",
"PX c #A1F9BA",
/* pixels */
"4 # # , O + > - O @ O & O O * @ + , + + , @ @ % + & - + * + @ 7 + + , + + % @ O O O & + + * + + 7 + - , O + > + @ @ - > + + 7 - ",
"P.e 3 <.t 1 K w y 8 w U 1 t <.7 C 3.w > ` w 5 s 0 d 7 w ~ , e <.w 1 <.t , ~ C 7 r w z 7 e <.1 e 9.e 7 ,.r 7 U e a 8 w Y , w <.3 ",
"G ` ) Z H.q r G.0 7 G.Z a 8.D U ' G <.a Z 8.w w H.q 7 H.Z r 6.G / P G 9.8 Z G., 0 H.r q P.G g ,.G ,.Z Z 8.5 t H.7 0 P.Z r 8.G ) ",
"6.e 1 _ 9 , S w 8 7 w U , w ] 3 w ] w < ) t 7 a 9 r , q Y % C ` 3 1 ' w > A w w q 9 A , e ' < w ` w * ~ w , A w 8 5 w I * e ` 2 ",
"9.r 7 ] q 9 K r y 8 r Y 0 a ,.w w <.r , _ 9 7 g q f , a ~ , q <.q w <.t 7 ! a w d u L 7 r ] q r 9.r 5 ,.r 0 P q a 8 q _ 5 r <.0 ",
"S 8.] U U.g D J.u y J.S A L.U -.7.U G.L ) L.u g n.f a J.I H H.) 7.<.) L.j A b.a a J.g s L.) ] 3.) v./ ) U.l S J.a 9 b.D l K.U 9.",
"%Xd d R.A j P.J -.^ I H.j A U.a Z I.s y P.A W 3.K 7.H A L.8 d R.u u R.A i G.J ( -.A G.J S U.y s I.d p L.g J H.A -.! g H.i a I.d ",
",.s y ~ h 6 J W p u W H   j / y p / j 4 ! L 4 j W s 8 T T 4 j / p u ] j 4 H k y p k k 8 H _ y p ,.a u ~ j 6 j T p y k L   j / a ",
"A c.,.P I.n l n.p j I.J ! I.P 2.H.P G.^ K n.j g F.g j I.J W K.Y v.3.P U.W j x.g s F.s L I.L ,.G._ H.-.K n.n l n.j i n.J W K.Y 8.",
"'.L ^ Y.! ;.T.] K.G.~ T.-.L F.L P x.L  .Y._ 4.R._ T.>.P Y./ P F.H c x.Y ,.T.! G.U.~ R.2.P Y.[ k I.L W I.P 2.T._ L.G._ Y.o.L I.W ",
"..;.Q  .v.k c v.h . L.c k c. ...,.O.2.c R K.. h K.h h G.R x 2.O.o.....v.x b c.h h K.x h v. .Q ;.o.2.b m c.h k b.h h G.b x 4.....",
"R J.>.[ W.b c {.. . |.c  .W. .>.b. .U.o.T W.x x  Xk c W.v O.I.^ G.8.Q W.[ c {.k k  Xx v  XQ ;.U. .K.>.R T.Q k {.x . |.c ..T...c.",
")./ 2.!.^ n.S._ %XW./ /.b.Q !.-.^ N...b.^.( Q..X/ /.[.^ /.H./ ^.O.&.B./ P.}...[././ ~.U.( !.2. .B./ 2.!.Q I./...W.%X( /.b.Q B...",
"T XXI.Q oX*.b /.R [ /.Q >.+X..W. X..XXG.Q /.| R ).T  .}.R h..X.. XW.Q .X:.R ).R R /.v &.oX .U.XXX. XI.Q XX*.c }.v E '.T :..X^ E.",
"I.I.:.c.[.+.;.}.+.{ }.>.&.{.G.h.z.J.F.$.c.[.} &..X&.} }.f.&.F.b.z.h.v.|.+.:.}.| O..X&.+.XXc.d.n.G.Y.d.c..X+.*.}.} m }.:.} |.G.h.",
"].| f.).[ }.'.O.+X*X .).[.m Z.>.| ).| [.'.[ *XOX[ ).+X} oXT.| Z.+.d.Z. . X+X} OXOX} ). X[ ).h.+.(.} J.(.[ .X).O.+X*XO.).[.} ).%.",
"R `.OX} oX[.} '.d.f.`.} |.OX} @X@XO.=X&X| '.F.$.(.$.I.'.| =X].O.-X*X| ]..X} '.d.:.).{ F.'.} *X=X| ].+X} '.n.} (.=.h.`.{  X@XO.'.",
"aXg.g.=X[.l.=XXX}.~. X-Xl.Y.yXg.h.@Xz.s.-X.XF.OXXX+Xx.|.=Xs.z.-Xz.j.=XF.g.OX.X!./..X-Xz.{.-Xs.l.aXz.s.-X[.l.@X.X/.N. X-Xg.~.=Xj.",
"iX%.g.3X%.@X5Xd.aXaXd.tX).%.].g.y.].y.!.3X=.@XpXd.pXtXi.@X~.%._.y.u._.$..XpX=.pXpXd.tX+X%.1Xl.%.].%.z.1X%.OX3X%.=XaX=.tX/.#.3Xu.",
"R 3X3X+.<X-Xi._.[.~._.=.aX_.} 1X1X} <XaX+.<X+Xg._.z.OX1X$.dX<X} 3X3X+.].aX%._./.[._.=.#X:X} uX].O.3XpX} _.@X%._.x.*X<Xi.fX3X| 4X",
"eXk.B.3Xa.pXdX~.dXjXx.uX`.s.3XM.k.tXk.'.sXl.gXdXx.sXdXl.5X@Xj.1Xk.B.1Xj.tXsXx.dXdXF.dXtXk.uX^.M.tXk.).uXj.sXsXx.dXjXx.sX@Xj.1Xm.",
"gX_.4X5X`.gXgXtXkXkX3XiXgX`.0X2XA.0XA.iXeX].GXkXpXgXGX@XiXgXA.4XV._.9XC.gXgX@XSXSX-XgXgX(.0X5X(.4XA.5X9X`.hXwX@XkXkX@XhXgX(.0X:X",
"X 9X0Xu.2XsXa.2X(.`.2Xp.eX7Xo 0X7XV 7XiXw.2XtXk.2XM.5X4Xu.gX7X#.0X0XV 2XgXu.2X].C.2Xk.uX2XN iX4X#.4X0Xo <X5Xp.2X).uX2Xp.gX7X#.9X",
"qXM.2X2Xe.wX7Xp.rXrXe.9XrXa.2X2XV.7XM.hX9Xp.wX9Xp.wXhXp.9XwXm.7X_.2X6Xe.rX8Xa.rXwXa.9XwXe.9X5XV.7XV.0X6Xa.rX0Xk.wXzXe.9XhXa.2X>X",
"hXnXDXhXwXHXSXzXDXDXhXSXHXrXhXMXMXhXnXDXhXzXDXSXhXcXHXhXhXHXAXhXMXDXSXnXDXSXhXDXDXrXFXHXnXhXHXDXhXzXHXgXrXDXSXhXGXHXzXSXHXhXhXMX",
"k.MXDXC.zXDX1XqXiXiXlXA.MXzXC.DXmXB.zXMXA.lXSXuXlX0XzXlXA.HXzXC.cXMXM.zXDX_.wXzX9XqX1XSXlXB.MXcXB.cXAXV.wXcX:X8XeXSXlXV.DXzXM.MX",
"zX9XMXnXM.MXlXB xXzXB lXMXV.lXSXrXzX1XDXlXm.cXcXe.zXMXm.lXMX>XzXhXSXqXA.VXqXe.MXnXe.xXcXr.qXSX5XzX9XDXqXM.MXlXe.xXxXe.lXDXV.zXHX",
"DXVXZXMXMXKXVXcXVXVXxXBXZXBXDXZXVXMXBXKXJXcXVXJXcXJXKXMXMXCXBXDXVXJXVXMXVXJXcXZXVXmXVXZXzXMXKXVXDXBXZXMXbXCXJXcXNXKXMXBXZXBXDXZX",
"LXCXCXZXZXCXCXNXVXKXNXCXCXZXKXCXCXPXZXCXKXNXCXCXNXCXCXCXZXCXCXPXCXZXZXCXKXJXNXCXCXNXZXCXVXZXZXZXLXCXZXPXCXCXCXNXCXCXNXCXZXZXZXZX",
"CXKXZXZXMXCXvXt.vXvXt.vXZXMXCXCXZXCXBXZXCX,XvXCX;XvXNX,XCXCXBXCXPXZXCXvXCXvX;XbXNXt.NXZXxXVXZXZXZXbXZXVX,XCXCXr.vXNX,XvXZXHXZXZX",
"cXCXCXNXCXCXCXNXZXCXvXCXCXCXvXCXCXNXCXCXNXvXCXCXvXCXCXNXNXCXCXNXCXCXvXNXCXCXvXCXCXNXZXCXNXBXCXCXNXCXCXNXNXCXCXvXCXCXCXCXCXCXNXZX",
"ZXCXCXCXCXCXCXNXZXCXvXCXCXCXCXCXCXCXCXCXCXCXCXCXNXCXCXCXCXCXCXZXCXCXCXCXCXCXvXCXZXNXCXCXCXZXCXCXCXCXCXCXNXCXCXCXCXCXNXCXZXCXCXZX",
"NXBXZXmXzXZXvX;XBXNXt.bXBXMXMXVXKXbXcXZXvX8XCXBX,XBXVX,XMXZXBXNXPXKXNXcXCXcXt.vXNXt.BXCXxXNXZXJXBXNXVXcX8XNXNXr.bXNX,XbXCXMXBXVX",
"m.MXVX2XcXVXcXbXDXLXbX8XVXBX<XBXBXV.bXBX7XcXLXGXMXMXZXBX2XBXBXV.BXBX:XBXJXwXcXJXJXMXhXJXMX>XNXMXV.cXVX2XMXZXMXcXHXLXMX9XBXBX;XBX",
"cXVXZXVXHXKXJXDXVXKXHXJXZXHXVXLXVXMXHXPXBXHXZXVXHXVXZXGXVXPXLXMXJXJXJXJXZXVXDXZXLXHXVXZXMXBXLXLXMXJXJXJXHXKXKXHXLXZXMXVXPXHXMXZX",
"lXnXMXlX1XDXcXA.cXMX:XzXDX5XlXnXmXlX0XDXxX:XBXmX_.mXMX<XxXDXqXlXhXSXwX>XMXxXA.cXnXA.zXMX2XqXSXrXqX0XAXlX<XDXcXV.MXMXV.zXDX4XwXMX",
"X qXzXw.9XhXV.8X1XgX9Xa.rX8XN rXqXN 8XzXa.8XeX].9XV.rX9Xp.nX8XN wXzXN qXhXM.7X1X1X9XM.hX9Xw.nXlXN 8XnXw.9XrXM.8X1XgX8Xa.SXqXN wX",
"qX>XrXqX(.SXnX(.DXSX`.mXSXA.wX0X2X8X:XSXwXA.MXSX_.nXDX_.wXnX:XqX4XqXqX_.DXnX`.DXDXtXzXDXV.qXwX4XqX2XhXwX1XnXSX3XnXMX_.zXSX_.8X9X",
"hXgXrXkXdXGXFXfXGXGXjXFXSXgXhXhXrXgXdXFXhXkXGXGXjXFXGXjXiXGXgXeXgXgXgXsXGXkXjXGXGXfXhXFXsXhXgXkXgXgXkXhXdXFXhXjXGXGXfXhXGXsXiX9X",
"m 4XeX%.4XaXp.2X^.'.4Xw.uX4X#.4XeX%.0XgXu.2XtXk.1Xk.tX2Xu.jX4X#.4X0X#.2XsXp.4X(.C.4Xu.uX4X#.gX0X#.9XgX#.4X5Xp.2X!.uX2Xu.jX4X@.0X",
"4Xs.Z.2X#.yX4Xi.sXsX%.4XpX%.<XN.l.<Xs.tX4X=.uXtX=.1XgX=.1X-Xu.1Xl.^.<X#.pX4Xi.uXuXi.4XtX#.1X/.l.<Xj.OX1X%.eX0Xy.sXsX%.4XtXy.<XM.",
"@XtX:XoXsXC.).sXB.B.uX).).tX@X].].@X@X`.).sXB.Z.sXZ.!.uX@X(.uX=XtX].@X3X).'.sX).C.sX`.C.tX3X_.`.=X3X(.`.uX/.).sX(.(.sX'.).3X=X'.",
"} tXyX=.tX~.#.<Xu.l.<X%.+XtX=.uXtX:.tX-X%.<Xx.#.<X%.~.3Xy.aXtXi.aXaX%.4XOX%.3Xg.s.1XM /.1X=.aXpX:.uX@X%.3XF.@.`.y.x.1X%.*X5X%.tX",
":Xd.S.Z.{ OX(.| @X@X{ _.oX+.C.I.g._.%.+X(.} =X`.m (.=X} (.&X%.C.f.x._.} =X).| @X'.{ (.+X} (.Y.g._.y.XX`.} @X_.} ].=X} _.+X@.(.g.",
"=.-X~.%.@Xi.X OXo #.oX{ z.-X=.+X-X:.-XF.@.].#.X ).m %.OX+.[.=Xd.*X.Xd.+Xg.M oXm M /.X y.-X:.XX*Xc.=X[.%.@Xy.m ).V o '.+.h.+Xf.+X",
"h.&XY.d.+X$.+.oXX X .X%.f.&Xg.|.XXz.*Xh.$.OXV X OX{ @.+Xy.z.*Xh.$X Xd.+Xy.@..XX { .XM %.*Xd.T.XXh.+Xn.=.*X+.{ }.X X +X$.g.*Xd.$X",
"_.-.c./. ..X(./ .XXX^ ).Y.[ ^.4.;.^.O.T.Z.^  X.X..)..X..).R.o.^.&.f.Z...%X'.^ +X'.X./. X .C.h.&.B.-.K./.^ .X/...|.XX..).[. .^.&.",
"c .XT.R /.*.v /.[ | /.R c.oX[  XXXE XXK.R /.O.v !.E *.}.R I..XE  XT.R .Xf.b /.E [ /.v =.}.E W.%XR .XD.R '.*.c /.m [ /.b c.XXR  X",
"J.=.R f.J.E $.I.[ v J.;.v h.c.} &.c.>.v >.b.b | n.O.v h.>.v >.c.&.[ >.J.x &.n.E [ I.&.v J.4.} *.c.>.m >.J.v | E.[ v U.;.v b.c.O.",
"+Xc  .[.Q >.[./ W.K.Q {.*.R |.Q n S.b &.|.Q K.W.Q |.h.Q |...T |.T [ [.W 2. XR I.E.E |.>.W [. .T |.W ^ |.R J. X^ W.K.Q  X*.R [.Q ",
"Y F.L./ [.o.L N.W  .N.! 4.E.! Y.n._ T.4.! S. .T ~.! X.[.! b.[.~ E.L.~ ~.*.W F.Q ( x.R &.~.~ K.W./ T.J.W N.X.P !.R E x.! 2.[./ U.",
"Q.H s J.L k 3.~ -.^ W P.l k R.s j U.j h P.L W 2.W 7.L z H.p H R.j j K.P j 4.W / ^ T 7.H L L.i j L.H p K.L L 3.W ,.W L H.p k L.s ",
"$Xs s I.j H 4.l X. .l H.j j I.s s E.p i K.l Q 2.J ;.k j L.i s R.i p R.J h v.J X.X.J G.k g U.p s E.s s U.H W G.j ;.W l G.j j I.g ",
"U U.2.! I.T K x.j j n.P / T.! v.G._ U./ P I.h j D.I H D.Y ..I.~ G.2._ U.Q L z.l j n.L W Y.Y 2.K._ U.-.~ D.! J z.j j x.Y ^ I._ H.",
"%Xa s K.g j 3.g X.Q l H.s s U.a a R.s y H.g z -.A <.L A J.y s R.a u L.g j 2.s ~ ^ s 8.j g L.u g R.d u U.A A 2.A X.H g H.i s R.d ",
"<.r w Y g 7 A s u 8 g K 5 d / 7 8 ~ a * Y S 4 a A s 5 A P * r ] q 9 ` d 5 L g 8 a A A 7 d ] 9 a ,.r 7 _ A 4 A s s 8 d P 4 u ] w ",
"D <.Y S G.a Z J.r 9 G.Z A G.S ~ ] G 3.g Z H.9 d J.r 9 G.S g 9.U <.~ G P.d Z J.r r J.A d P.D P ,.G 3.K G v.a f G.q 9 H.G g 4.) ` ",
"W.f q H.f g 9.G ] ~ D 8.r Z H.r r H.f 7 8.S P <.G 9.g S 4.5 t H.q q P.Z 9 3.Z _ ` G 8.a F H.9 q H.f 9 v.S S 7.G ,.J Z 8.9 f H.C ",
"9 * & 4 u * w K 7 , S 9 & 8 9 , % 9 5 % q d > 0 J 1 * u q & 7 q 4 % 4 9 > 7 A 1 , l 7 * r 9 % 4 9 7 & 4 a & 0 A 0 , d 0 & 8 q > ",
"e f , e P , e ` 1 1 ` e * l e 7 w w A * e _ < 1 ` w < ~ e = Z e 8 7 t ) > w ,.3 3 ] w , Y e 7 d e Z 1 e ! 1 e ] 1 1 ` e , P e 7 ",
"Q.e 1 0.t w ' C D A F 6.0 e 0.w 3 0.w 1 6.t t _ C ' e t 9., e 0.e 1 0.e 7 ` C G G C 6.w C 0.1 e 0.e 1 0.e C ' C ) r t 6., e 0.2 ",
"2 ; : < w $ 3 G < 2 F < @ , 1 < < 2 , @ 3 C ; 2 f 2 ; t 1 # , 3 & @ 2 1 - 2 Z < < r 2 # 1 3 @ * 0 = $ 3 7 ; 2 Z < < w 2 - , 3 $ ",
"< - # < * + # 1 : - 1 ; - > < + ; < & # ; < + + 1 ; # < = # $ ; + # = & + ; , # # 1 # # < ; # @ 2 + : ; = + @ 1 # @ > $ + > 2 + ",
"0.< ; ' < @ 0 < % @ - Z : 2 ' < : 6.2 ; D > % % # , - < ) $ 2 6.< $ ' 2 @ d $ O & ; 9 @ : 1.: 2 q.2 > _ = @ 1 $ % % < S ; < 5.2 "
};
