/* XPM */
static char *result[] = {
/* columns rows colors chars-per-pixel */
"64 64 256 2 ",
"   c #7E5454",
".  c #7B5B55",
"X  c #7C5956",
"o  c #57714F",
"O  c #57794F",
"+  c #597853",
"@  c #5B7D55",
"#  c #636B4D",
"$  c #6B6F4E",
"%  c #6C6C53",
"&  c #696C55",
"*  c #736653",
"=  c #7A6555",
"-  c #736C55",
";  c #7A6C56",
":  c #75655B",
">  c #7C655C",
",  c #756D5A",
"<  c #7B6C5B",
"1  c #637553",
"2  c #6B7354",
"3  c #647C55",
"4  c #6B7A55",
"5  c #67765B",
"6  c #6C745B",
"7  c #647D5A",
"8  c #6B7B5B",
"9  c #747256",
"0  c #757557",
"q  c #74735B",
"w  c #7A735C",
"e  c #747A5D",
"r  c #7A795E",
"t  c #7C6B60",
"y  c #6E7360",
"u  c #7B7561",
"i  c #747861",
"p  c #7B7B63",
"a  c #B81E56",
"s  c #9A2D4F",
"d  c #8B3A4E",
"f  c #97364F",
"g  c #8D3C51",
"h  c #953553",
"j  c #9B3454",
"k  c #933B53",
"l  c #9B3C55",
"z  c #9B3C59",
"x  c #A32E4F",
"c  c #AD2453",
"v  c #A42C53",
"b  c #AB2C54",
"n  c #A82B58",
"m  c #AD2C59",
"M  c #B32356",
"N  c #B82757",
"B  c #B22A55",
"V  c #B52459",
"C  c #BC225A",
"Z  c #B32C5C",
"A  c #A33354",
"S  c #A93255",
"D  c #A33B55",
"F  c #A5355A",
"G  c #AB345A",
"H  c #A43B5A",
"J  c #AA3A5C",
"K  c #B3335D",
"L  c #B3385E",
"P  c #BE2962",
"I  c #AA3B62",
"U  c #B53462",
"Y  c #B43A63",
"T  c #B93966",
"R  c #C31E5D",
"E  c #C1215B",
"W  c #87484E",
"Q  c #96404F",
"!  c #8C4454",
"~  c #854D55",
"^  c #8C4B54",
"/  c #894B58",
"(  c #934354",
")  c #9A4255",
"_  c #934B56",
"`  c #9B4A56",
"'  c #954559",
"]  c #9C435A",
"[  c #944C5B",
"{  c #9B4B5B",
"}  c #845454",
"|  c #8B5355",
" . c #835B54",
".. c #8A5A56",
"X. c #845659",
"o. c #8C545A",
"O. c #845C5B",
"+. c #8B5B5C",
"@. c #97535B",
"#. c #93545C",
"$. c #925B5E",
"%. c #A3435C",
"&. c #A4485C",
"*. c #A4505F",
"=. c #82645B",
"-. c #86675A",
";. c #8B625D",
":. c #826B5C",
">. c #93625E",
",. c #81735E",
"<. c #994C61",
"1. c #8D5661",
"2. c #8D5C61",
"3. c #955662",
"4. c #9B5463",
"5. c #935C63",
"6. c #9A5B63",
"7. c #9B5D6A",
"8. c #AB4362",
"9. c #A94A64",
"0. c #B5496A",
"q. c #A35363",
"w. c #A7586A",
"e. c #B4536E",
"r. c #BB4B72",
"t. c #B65572",
"y. c #8C6463",
"u. c #896765",
"i. c #846C63",
"p. c #8C6B65",
"a. c #926363",
"s. c #966667",
"d. c #9B616A",
"f. c #887466",
"g. c #817C65",
"h. c #91796E",
"j. c #A46169",
"k. c #A96371",
"l. c #C14973",
"z. c #1E9A43",
"x. c #2E8F47",
"c. c #388D4C",
"v. c #289849",
"b. c #34944A",
"n. c #3B954D",
"m. c #339C4D",
"M. c #3B9A4D",
"N. c #319551",
"B. c #399953",
"V. c #3C9D53",
"C. c #1CA848",
"Z. c #18B249",
"A. c #1DBA52",
"S. c #24A44B",
"D. c #2AA74D",
"F. c #24AC4D",
"G. c #34A44D",
"H. c #27B64E",
"J. c #2AA752",
"K. c #2DAC53",
"L. c #34A552",
"P. c #3CA353",
"I. c #33AB54",
"U. c #3AAC56",
"Y. c #3BA55A",
"T. c #36AD5A",
"R. c #3BAC5B",
"E. c #27B757",
"W. c #2BB353",
"Q. c #25BD54",
"!. c #2ABA54",
"~. c #2CBC5B",
"^. c #33B255",
"/. c #34B45A",
"(. c #3BB35B",
"). c #33BB5C",
"_. c #39B85B",
"`. c #3CAE61",
"'. c #2EBE60",
"]. c #3BB761",
"[. c #4A844D",
"{. c #438C4C",
"}. c #4A8B4E",
"|. c #54874E",
" X c #43934E",
".X c #46974E",
"XX c #488851",
"oX c #4C8D53",
"OX c #548352",
"+X c #5C8354",
"@X c #538B55",
"#X c #5C8956",
"$X c #578758",
"%X c #5C845A",
"&X c #548B5A",
"*X c #5C8C5B",
"=X c #459453",
"-X c #4B9455",
";X c #439B54",
":X c #4A9B55",
">X c #4A975A",
",X c #4C9D5A",
"<X c #529456",
"1X c #519C56",
"2X c #54935A",
"3X c #5B945C",
"4X c #539B5C",
"5X c #5A9A5D",
"6X c #618355",
"7X c #63845A",
"8X c #6A835B",
"9X c #678A5B",
"0X c #638B5C",
"qX c #76825F",
"wX c #62925D",
"eX c #43A356",
"rX c #45A756",
"tX c #44A45B",
"yX c #4BA35C",
"uX c #43AB5C",
"iX c #4AAB5D",
"pX c #54A25E",
"aX c #44B25D",
"sX c #45B55E",
"dX c #5E8B63",
"fX c #4F9D62",
"gX c #579764",
"hX c #5C9663",
"jX c #539D62",
"kX c #5A9B62",
"lX c #658C62",
"zX c #6A8863",
"xX c #7A8266",
"cX c #659264",
"vX c #709067",
"bX c #4CA361",
"nX c #45AC61",
"mX c #4AAA62",
"MX c #52A362",
"NX c #43B262",
"BX c #14C64F",
"VX c #19C74E",
"CX c #15C552",
"ZX c #1CC654",
"AX c #15CB53",
"SX c #1BC955",
"DX c #1DC559",
"FX c #16C85A",
"GX c #1CCA59",
"HX c #17D055",
"JX c #23C455",
"KX c #23C757",
"LX c #24C459",
"PX c #2AC25A",
"IX c #25C460",
"UX c #83836B",
/* pixels */
"b B M M m V a S a M B M c Z B a S N M B C c N m a c B M b V v C B B N N Z c C b a C b a b B c N m M a x C c m V a n B a v N c m ",
"H J j J 8.v Z { m H 8.m n 8.) b %.K m %.Y s K J B H &.A A T j m &.D S J G j L %.b L %.b %.8.A K &.D A &.Z j I z n 8.H B ] L A H ",
"R T F 9.t.C R w.G &.e.C C e.@.J w.R N e.e.h T E N &.w.J G R F I j.&.m R T k e.*.N R 9.S *.r.N R e.%.%.q.R a r.<.z 0.C E q.0.z 0.",
"K U n K T V C H B S L M B Y F B %.C M J U v Z Z C F L B b P G Z %.K B K Z n U G C Z L B F K M C J S B %.C V U I n Y Z a H K v U ",
"' I s I I h n ! v z z F s H z v ( H v l H h F ' v z ] A j I k n [ l A ' J h H z v z ' A z J h F { A A _ F h 8.h j ] k v _ F s I ",
"w.0.F 0.r.I Y e.U I r.I I r.8.U e.0.I r.r.m 0.0.G 8.0.K I r.z U t.Y I e.T I r.8.m 0.e.Z 9.r.F T t.J Y w.U I l.I m 0.0.Z e.0.F 0.",
"g I h j z h F / v k ] j j %.! n ( F j z F h F ' b k ] A z I g n _ j j ' j h F k x z ' A k H h j { j A ! F h z h s ] ( v ( H h z ",
"I U n n I m Z I V F L c n L A c H K b G U x K J M A J m v U n Z 8.S b J Z v K J c J J V F U v Z 8.m b %.Z F T F n Y F M J K v Y ",
"w.e.] 6.k.] 8.j.J $.k.%.H t.@._ j.9.%.e.w.^ 9.7.A *.w.#.[ e.( Y s.$.%.w.0.( w.>.F q.w.J a.w.) 0.k.&.#.s.8.] t.[ ^ k.*.S w.w._ w.",
"@.I l 1.a.D G { F O.$.D j 8.[ ;.@.J D &.q.O.9.{ v ] 3.+.( 8.z G 6.O.) { J k 2.O.A &.&.S O.$.g F 9.D +.$.G z 9.' +.4.&.x @.{ O.{ ",
"( F v z %.A m ] b l %.b n J l A ) S v G G j G D c D H F A J j b ] l x D F A H l c D D b l F s S H b A ) b D J F A J D b D G j F ",
"-.6.( 5.s.! o.u.] O.a.] o.j.1.o.>.*.+.6.q.X.*.2.o.@.7.#./ w. .%.p.$.&.>.3.! d.;.l >.>.%.;.7.! $.s.{ o.-.&. .7.<.| 7.$.| $.w.X.3.",
">.@.l #.5.[ 1.1.S o.3.[ +.q.' +.$.{ O.q.9.O.{ 3.X.%.q.o./ 3.X.H @.$.' 7.3.z 3.1.) $.$.F $.3.! +.7.H ..$.] X.q.I X.6.@.o.@.&.#.@.",
"W l s k / u.' ! v W ^ 2.g z d f   O.g l z g +.. f k k k 1.  d v ! ' 2.~ h d l ~ s.W ! v g ^ y.' ! h f   +.! l h k } X k ! A g O.",
"p.3.z 3.d.3.+.7.F X.d.<.} w.<.} 5.4.o.w.9.| q.7./ <.7.} 1.7.| Y w.2.<.s.#.z w.5.] a.7.G $.7./ +.d.%.o.a.<.  w.] ~ 7.7.} w.9. .3.",
"u.a.^ y.s./ 1.y._ +.5.#.o.a.+.o.u.4.+.a.3.X.4.5.o.#.a.1.1.5.O.{ p.+.| u.+.^ a.;.[ a.y._ O.5./ 2.a.@.o.y.<.O.s.o...d.2.o.;.4.+.2.",
"' ` s.` [ a.) } ;.( | a.] o.O.l } +.) +.o.k +.+.l +...] 2.^ ! ;.o.) p.#.) a.[ _ >._ _ p._ _ y.' #.y.] ^ 2.( ^ y.l $.+.l ..+.l O.",
"u.>.[ 2.a._ O.+.` +.$.` o.7.#.+.5.@...3.4.O.<.$...@.3.+.#.3.O.{ a.O.` a.$.^ $.+.` ;.;.` +.$.! 2.a.{ O.$.{ X.5.[ +.3.$...+.4.+.4.",
"; 5.| +.p.} +.:._ X y.o.} a.=.o.;.$. .y.5.. 3.-.} ..y.X.X.a.. _ :.=.X.-.+. .y.=._ >.-.| =.y.  1.p.#...-.#.X u.1.X.a.;.} -.5.X 5.",
"Q _ u.) [ i.) ^ < ( / y.( }  .l ..=.k ..} (  . .f  . .l =.~ ( > | ) -.^ ( i._ ! f._ ` :./ ! u.' | -.Q } > k } =.k  . .l  .X ! 2.",
"; =.w > < , =.- - = :.< =.< ; =.- ; =.< < > w -  .- < t , > = < ; = ; ; =.q < < ,.:.; ; ; > , > ,.; =.; ; = t , =.; 9  .; :.> < ",
";.i.* u.p., O.i.- O.i.< } f.- } f.w +.i.i.X < ,. .< i.O., i. .= f.;.< ,.;.= p.y.* -.i.9 i.p.: +.p.; O.p.< X f.:  .f.w ..,.w O.i.",
"W } i.~ } i.( X t !   > ! . : ( . =.! > X ! > . k : X ! >   ^ ; . ! i.} ! u / ~ f.} } i.} } i.! . i.!   > W   t ! . = k . > W . ",
"< < , : < , =.> < < < u < < < < - 9 i.t < t , - i., , : , t = - < < w > :.q < < w :.t w < < q < t w > = w t t t < < < =.< w < , ",
"p.p.* p UX, +.f.- w UX,  .h.q ; UX,...f.g.% g.f.^ ,.p - , f. .; UX9 ; h.>.* g.w = p.f.- r ,.* ;.h.< w p < =.h.w - UX,.} ,.,.; g.",
"} #.,.w w < `  .u w w < ^ ;.9 w 9 -._ :.0 r w =.( ; 0 r u O.} :.9 w ,.=._ r 9 q ,...$.,.q 0 w [ ;.w w q < ^ > w r 9 ; ) -.0 ,.w ",
"= = w q % w ; = e q - < < = ; r ; 9 :.; % w $ = < 0 - 0 w * < q ; q w = < r 9 , r ; ; r w % u < = q 0 = , :.* u p - ; < ; - r 9 ",
"e q & w p % ; r = - u % * p 0 * r 0 - e w % w e * 0 r * , u % = p 9 - p w $ r 8 * 0 r * q p & w p % ; e - % p 6 * p q * 0 ,.% r ",
"< q q q 6 w q 9 6 q q q q 9 w 0 ; 0 w w 0 w q , e 9 q q q % q q < w q w q q 9 w q w 0 0 9 0 q 0 9 q q ; 6 q 6 y p 9 w q 9 0 w w ",
"3 3 u , , u 7X1 q w - r zX1 q w 9 e 9X0 , r w 2 7X9 - u i 1 7Xq - w r 2 3 r - q g.1 3 r q - r 7X4 r u % i zX& u ,.0 q 9Xe 9 p 9 ",
"wX5X6 u p y fXlX2 q p 8 jXcXe * r 8XkXzXu % q zXpXe p , % lXgX5 p w 2 cX4X2 p u 6 cXwX2 u p & jXcX6 , i 8 gXlXw 9 ,.e yXzXp - r ",
"8 8X6 , y i 7 5 , 6 q q 5 y e 6 9 q 8X6 u 6 q 6 3 6 w e y 6 5 q q , e 8 7 q 6 e u 8 8 i q 6 6 7 e w 6 9 , 7 y y e e e 8 q w 5 y ",
"1 7 xX@ + xX7X# i 8X2 p zX1 q 0X% 8 vX5 1 vX5 2 lX0 6 cXy o 7X0 # 7XxX4 6Xp O 4 UX3 1 xX7 + p %X1 i 7X# i lXo i vX1 2 0X2 4 vX6 ",
"0X3X7 gX0X4 2X8X#X3XlX8 4X*X8XyX8X8XkX0X#XkX7 qXpX8 0X4X8 lX3X6X9X5X4 zX4X7 2XwX4 wXcX6XwX*X5 <X0X6X4XzX7 5X7X7 pX0Xe pX8X0X5X7 ",
"3 #XfX$X8 9 1 #XeX6X8 q 7 $X2X3 4 q 3 <X=X7 , 4 3 <X&X7 6 y %XeX@X7 - 8 $XfX%X8 9 4 6XeX+X8 & 7 #XyX3 4 % 3 oX>X6Xe 0 3 <X-X7 9 ",
"& + lX+ o i #X# #X7 o y lXO 8 *X$ 5 zX+ + lX1 % *X6X+ lXi o 8 &X# 3 e # OXlXO 4 8X1 1 3X4 o u +X1 0XOX& 2 zXo 7 lX& * *X1 OXzX2 ",
"<X<X+X>X<X+X;X$X+X,X$X%X4X*X%XtX6X6XyX%X&XyX+X+X:X+X#X,X+X&XfX$X@X:X@ &X>XOX-X2X+X<X2X@ <X-X@ ,X*X+X,X&X6X:X&X$XpX#X6XyX#X0XpX7X",
"zX#X4X%XdXjX+X0XyX7X*X4X7X3X3X+X0X1X6X3X2X+X1XwX7X3X*X#XgX2X%X,X9X7XMXlX%XkX*X%XiX#X7XpX8X*XjX+X9XgX7X0X:X6X&XfX+X3X<X6X0X<X6X4X",
"@ oX3X&XXXbX-X+ 2X&XXXtXgX[.6X<XXXV.cXOXOXkXm.}.5X0X|.4X>Xc.3X&X+ &XnXOX@XlX[.&XsXoXOX3X+Xc.fX=XOX0X2X[.L.3XO *XkX=X-X4X6XOX5Xn.",
"2X-X%X=XV.nXY.$X%XfXV.`.bX&X7XtX=XR.MX*X*XyXJ.=XtX%X#XyXY.B.fX*X$X,XR.>X:X%X&XfX_.;X<X%X3XY.`.Y.@X7X,X-XT.jX&X%XbXV.tXtX%X#XfXL.",
"zXdX,XdXdXbXdXzXyX%XgXbX@ gXkX@ cXbX%XhXjX+ :XcX+ 5XkX%XjXgX+XyXcX%XbXcX*XfXdXlXtX*X0XtX7XhXbXdXcXfX@ cXbX+XgXjX+XgXkX@ hXjX@ fX",
"OXc.uX=X[.*X-X[.I.<XOX#X2Xb.;X,XOX$X5Xn.m.4X}.OX,X;Xn.4X@XO <XI.{.oX*XOX=XuXB.&X3X@X}.R.-X[.dXoXc.uX-XO @X2Xc.P.MXOX+X,X=Xm.kX[.",
"6X-XyX>XOX7XoX+XY.3X+X6X5X X2X:X4 6X5X-X;X5X#X4 pX:X@X4X7XOX&XtX|.<X#X+X-XMX=X*XwX#X<XrX<XOX7 -X@XpX,X3 $X3X X,XjX#X4 :X@X.XhX@ ",
"9X3XuX#XwXtX+XgX/.+X5XtX@ ,XeX@ 5XyX#XyXtX+XeX1XO iX,X+X,XfXOXT.5XOXrX3X#XmXhX&XU.#X3X(.*X2XyX#X3XuX+X2XtX+X4XtX#X<XyX3 yXtX+XyX",
"+XXXbXoX[.MX:XOXeX3X}.,XhX{.<X4X|..XkXoXB.gXM.}.yX<XoX4XfXc.3XtX|.<XiX|.=XjX{.*XsX|.|.aX#X XjX>X[.yX:XOXP.hXXX>XpX}.<X1X@X.XkXn.",
":XD.uX;X XuXL. X^.4X=XuXuXG.:XrX<XP.sXV.B.,XL.=X(.tX.XyX;Xv.tX/.}.:XrX.XI.yXM.:XsXeX.X(.<Xn.iXL..XrXyXoXT.bXv.tXpX.X:X(.-XP.MXV.",
"iX_.`.3XhXNX).iX(.6X4XNX_.(.MX#XMXsXNXNXmX%XtXmX].mX4X@XmX`.uX_.5X0XaXiX).NXhX0X_.aXiX(.3X3XmX_.uXaX#X3X).NX(.iX9XpXiX).iXiX7XMX",
"-Xm.nX;X=XmXL.oXT.2X.XR.R.M.<XtX-XP.uX;XB.MXP.-X_.;X-XbXbXN.tXT.@X:XrX.XP.bXn.2XsXeX:X(.<Xn.yXI..XrXyX|.I.fXM.yXpX.X:XU.-XP.MX;X",
"c.v.T.J.v.R.D.x.K.Y.v.I./.v.V.W.x.D.(.m.z.`.S.b.H.B.v.^.L.z.L.W.x.L.T.x.J.`.S.m.).m.N./.B.v.T.J.v.K.J.x.K.Y.v.J.].v.B.K.m.S.`.N.",
"jXT.'.~.U.aXR.bXLX'.R.`.NXR.'.LXyXuXaXR.PX).U.MX_.`.E.~.nXR.mX~.~.(.aXyX`.].Q.uX).uXyXPX'.T.nX].;XPXLXbX_.mXT.'.~.tXpX_.tXLX'.`.",
"V.F.DXCXS.^.F.m.FXCXS.W./.C.CXZXG.D./.S.AXJXC.m.W.W.CXZXK.S.U.A.ZXW.^.m.W.Q.BXK.PXJ.L.JXFXC.(.K.S.SXSXL.E.T.C.AXJXS.G.!.L.AXLXF.",
"}.m.uXB.n.rXG.[.U.tXn.P.uXb.:XT.[.eXiX=Xm.uXG.{.T.;Xn.R.,Xx.,XI.{.P.uX=XB.bXm.:XsX.X{.T.;XN.yXL.{.uXY.XXL.,Xb.;XNXn..XU.}.m.mXn.",
"LXW.(./.I.LXFXU.).aXT.LXLXI.uX~.T.KXPXR.T._.E.LXLX(.U.).).ZX_./.P._.).LX~.(.^.R.KXJX(.!.R.^.JXJXU.(.).U.ZXLXK.`._.I.LXKXaX^.sX(.",
"DXL.NXT.L.PXZXV.^.uXL.JXPXI.yX^.eXSXLXP.I.NXW.A.PXrXeX_.U.ZX(.^.;XU.).JXW.sXJ.tXPXKXrX_.tXJ.PXJXP.uX(.;XKXJXL.uXsXI.LXLXeXG.mXL.",
".Xm.uXm.n.nXK.XXI.eXn.U.uXn.;X^.XXL.nXn.m.uXG.n.(.;Xn.rXeXv.yXI.{.;XR.M.V.yXv.=XsXL..XU.=Xb.eXD.{.uXL.{.I.tXb.tXsXn.M.^..Xm.nXn.",
"PX!.JXGXK.IXFXR.LXLX^.KXLXH.JXSXT.LXLXW.ZX~.!.PXLX^.JXPX).ZX).JXLX).PXJX!.PXCX).KXLX^.KXLXW.LXCXK.JXAXU.SXLXW.LXLX^.LXKXT.GXPXT.",
"PXQ.KXZXL.PXSXI.JXPXL.LXLXA.JXLXeXZXLX!.ZX).W.Q.LXW.JX~.T.FX~.JXLX(.).LXJXPXZXrXPXLX^.KXPXK.'.FXE.JXJX;XLXLXE.Q.PXU.LXJX).CX~.Y.",
"D.BXZXS.z.T.A.CXA.I.v.W.~.CXK.H.x.S.LXBXC./.C.v.ZXCXC./.L.C.CXBXz.J.W.v.VXZXC.m.PXF.VXAXS.z./.Z.CXQ.F.x.Z.H.CXA./.v.S.ZXCXC./.v.",
"ZXH.LXZXL.~.SX/.GXLXY.LXLXW.DXLXtXZXKXW.ZXPXW.JXLX).DX'.`.FX~.JXDX/._.JXJXPXBXK.LXSX/.GXJXI.~.ZXK.DXSXY.ZXJXH.ZXLXL.JXKX/.CX'.T.",
"ZXVXSXAXA.GXAXA.HXSXZXSXSXZXDXHXJXAXSXA.VXKXVXKXSXJXSXGXLXFXLXSXJXJXJXSXBXKXBXZXAXVXJXGXLXJXSXAXQ.SXSXQ.AXSXCXSXSXVXJXAXQ.FXGXDX",
"G.BXQ.F.VX!.H.CXJXH.CXH.~.CXI.JXBXH.Q.VXC.JXAXJ.ZXSXD.KXZXC.ZXZXG.VXZXJ.BXJXC.ZXKXD.VXZXK.AXE.E.CX!.Q.VXQ.!.BXW.Q.BXD.JXZXF.PXAX",
"ZXW.JXZXF.KXSXI.JXKXF.SXDXZ.DXSXI.FXZXW.FXLXA.ZXZXW.ZXJXW.BX/.Q.VXH.PXCXQ.PXBX^.LXAXK.SXZXZ.LXFXJ.FXSXL.SXJXS.ZXGXH.KXSXI.AXPXH.",
"JXZXKXSXJXKXAXQ.AXGXA.GXGXZXJXGX!.SXAXJXFXKXAXJXSXA.JXKXLXZXLXSXJXZXJXGXSXKXVXJXGXSXQ.GXZXCXLXZXQ.SXSX!.AXSXZXZXGXPXJXSXPXSXKXJX",
"M.VX~.I.SXPXH.BXQ.^.CX^.).SXP.Q.ZXI.!.BXF.JXAXM.FXAXL.LXJXS.ZXAXM.ZXGXm.BXPXS.AXSXI.AXJXL.CX).H.AX!.H.AXE.^.AX^.~.FXeXJXBXF.PXAX"
};
