/* XPM */
static char *result[] = {
/* columns rows colors chars-per-pixel */
"64 64 22 1 ",
"  c #3C3C3C",
". c #434343",
"X c #4B4B4B",
"o c gray31",
"O c #505050",
"+ c #515151",
"@ c gray33",
"# c gray34",
"$ c #585858",
"% c gray35",
"& c #5A5A5A",
"* c #5B5B5B",
"= c gray36",
"- c #5D5D5D",
"; c gray37",
": c #606060",
"> c gray38",
", c gray39",
"< c gray40",
"1 c DimGray",
"2 c gray43",
"3 c #777777",
/* pixels */
"::::::>::;:>::>:>:>>>>>>>;*:::;=:::>:>;::>;>>>1:;*;>:>::><<>>;;%",
":****;;**#**;**;;*#;;**;;;*#***&>#**;;;*;;;*;*,;#o*;;;;;;;*;*o#X",
":**;;;;*o*#**;*#*#o#;***;**;;**&:**#*;**;;;;;,,;*#;;;;*;;**####X",
":*#*;*;;**;*;;*,##*;;;*;;;;;;;#X>*###****;;*,,,*##**#**;##;###*@",
":;*;;#;**;*;;;,,,**;;#**;;;;;*#&:*##*;***;*;,;*;*#;*;;;;*;;;#;;@",
":;*,,***#***;;;,,*;;*;#;**;**#;@>*#;;;;*;*;;;;;;*;;;;,,;**;;**;&",
":;*,,#;#*****;;,,**;;***;,*****&:**#*,,,;;;,;*#;#**#,,,,*#;;;##X",
">;;#;;;;#****;;,,,**#***;,***,,X;*##,,,*;;;;;**;;##*,,,,###*#o# ",
":**;;;;###***;,,##***;;**;*#### :**#;,,;*;;;,*;;*#**,,,,,;***;#&",
"2;;*;####**,,,,***###*;****####@:*;;;;,**;;;,**;***,,;#*;;;;;;,@",
"2#*;;;*;;;;*,,,#;*;;#**;*;;;*** :**#;*;#**;*,##*;**,;;;*;;;;;,,#",
"2*;;;;;;;;;*;,,*;;;;,,;*;;;**;#@;***#;;;**#***#*;;,,*;#;;;*;;,,*",
"<,*;;;*;;;*##;,;;;;;#,,,*;;;;**@:**###;;***;**###*;;;***;;;*;;,*",
"1,*;**#*;#****;****#*#*****;**#X:*####**;#;;;;*###;;;##;#;;;;**&",
"1,*****###***#;*#**##*##****#**@;##o###*#*#**;###**;*,,,,#***#*@",
"-#X@@@@X@X&&@@@@XX@@@ XX@@@@@@@X+    XXXXXX@@&&@@@@@X .#XXXXXXXX",
"222;;;;;;;;:;:>$>::>>:;;:>:>;;;*;;;*::::;:1<<<:$::>:***:;;;;:::;",
",*#*;#o,,;#*;;;@:;;;;**#;;,;;#o#,,**;*;;*##,,,;X:***o#***#******",
"**;;;*#;;;;;;;;@:;*;*;;#*,*;*;##**,*;;;*#*#,,,*@;#*o**#;#;;;**,,",
"#;;;*###;;*;;;*&1,*#;;;,,*#;;**#;*##**;****#,,,@:*;#;;;*;*;*,,,,",
"##****##***#*#;#2,##*;*;**;;;;#**;**#;;;****,,,@:;;**;*,,,,,,,,,",
"o*#****,,*##*##X;###***;**#**;*#**;,**;;;;;#,,,*:*;#,,,,,,,,,,,,",
"#,*#**#,,*#**##X;#*#;;;#o##****##*;*,*;**;;,****>**;*,,,,,,,,,,,",
",,,;*#,*****##oX;*##**####o##***##*;,,;;;*;;***@:*;;;#**,,,;;;,,",
",,,,,,#***#*##*X>**#*#**#;*#*;;*##*;,,;;*;*#***@>*;;*#**;,;;*;;,",
"*;,,,;##*##**#*&>;******;,,,,*;*#;*;#;;;;***o**@>;;;****;,**;;;,",
"*;*,,*#*#******@>,;**#***,,,,****;;*o*****;#*#*@:;,,*;;*;;*#*;;*",
"**;,,#***##**o#@>,,,;**;;;,,;***;;#*;;;******##X:##o;;*#**#;;;;;",
"#**,;;;;o,,,##;&;,;;;;*;;;;;;**;;****;*;##****#X;**##;;***;;;;;;",
"**#;*;***#*,,**&:;;;*;***;******;*#;****###,**#@>;***;;;***;;,#o",
"o#o*********##*@>*;*******##**************#**;*&:;*###*;,*#*oo,#",
"  X@@@@@@@@@@@X&=@@@@X@@@@@XX@@X@O@@@XX@@@@@@&@&$@X@XXOOOXXXX OO",
"***;::::;::>;::::;;;;;>:::::;::$;:::;;;:::::::;::;;;;;;;;;*;***+",
"*o##*#####***##*#**#***;;*;;***X:***####**o#o#****#*##*##oo##*o ",
";**;;;;*;##**;;,,;*#****;;;;;;*@:**o###*;*;#*;;;**#****;;*##***X",
">;;;;;;;;;*;;**,,;#;;;;*;;;;;;;&>*o##*;;;;;#*;;;;*#;#****#****#X",
";;;*#*;*;;;;;**,;;;;;;;*;;;;;*;&>#**;;*;;*;*;;***;#;;***#*;**,oX",
";****,,;;;,;;;**#;;;;*;#;*;;***@:**;;;;**;******;;*;,;**;**,,,,.",
":*****;;;;*,;;**;;;;***;*;;;,,,X;#**;**;;;;;;;;;;;;;,**;;;;;;*#O",
"2;#**;;;;;*;**o****;;*;;;**;,,,X;#*#;;;;;;;*;*;;;*;#,#;*;;*;*** ",
":***;;*;*;;*;******;*;;;**#,,,,X;*;;;;;*,,;;*;;**;;#o**;;******X",
";*#***#***;;,;;**,,,,*;;,**#,*#X;*;;;;;;,,,,***;*,*###*#*;***;;X",
":*##*,;;;***;,;**,,,,*;;;;*;***X;*;*;;;,,,,,,;;;;,;;;;;*;;;;;;;@",
":**#*,,,,*;;*;***#,,##;;**#***#X:***;;;;;;;;;;;;;;**;;;;;**;;**X",
":**#**,,,;;;;****;,,;;;;;;;;***&;;*;;;;;;*;;;;;;;;*;;;*********X",
":******,,;;;;;;;**,,;;;;*;;*,;;&>*;*;;*;;;;;;;**;***;,#**#***#*@",
":*******,;**;;;;;,,,,;;;*;,,,,,&:;*****;;;**;*#*#**;#,#*#o##oo# ",
"+XX@@@XX##@ @***#*#O##@@XX@#O#@@$@@@@@@@&@@@#@@X XXXX..X        ",
";;;:::;:1122111-;::111:::;:;12::>:::;:;:112211:$;;:;223:********",
",###*#;,,,,,,,,@;##*,,;;*;*;,,;***;**#*,,,,,,,*@:;*,,,,**o#***##",
",,*;;,;;;,,,,,,&>**;,,,;;;;*,,,;;;;;***;#,;;;,;@:**,,,,*##;*,,,,",
",;;;;;;;*#**,,,&:;**,,,*;*;**;;;;;;;,****;*;;;#@:**,,,,,#;;,,,,,",
",;***#;;;;***,,*:;;,,,;;;;**;;;**;;;;;;;*;;**#*@:;;;**;;*;;,,,,,",
",***#**;##**#,,*<,,,,,;;;****;**;;;**;**;;*;;;*@>;;;;**;#;;;,,,*",
",******;oo;**#,#1,,,,,;;;;*******;*#*;*;*,*;*;;#>;;;;##*#*;;,***",
",,;*#*;*,##;####1,,,,,,;;*;****,******;*;,*;;;*#>*;;;;*##o*#*;**",
",,,,;***#,***#*#<,,,,,;;;;;,,***;*;**;;;,,,;;**O2o**;**#oo#**;;#",
"#****;####**##**2,,;;;;;*;;;***;;;*;**;*,,,;;*#X*o,,#**##*###*##",
"####*###o#;;;o#@2,;;;;;;;*;#;*#*;**#**;*****;** ;#o##****#*#oo##",
"o***#*oo#o#****@1,;;;;;;***;***;;*#*##*#***;***@:##o#o*****##ooo",
"#****;;####;;**@;**;;;*;**;*****;*;####o##*****@:*#*##*****#o#oo",
"*#;#*;;##*;*;;;@:***;;;;;##;**#,****#*###******@:*#**##*****,**#",
",,,,,;;#**;;*,;&:***;#*;##*****,,***####*******@:#***###**#,,*##",
"******&@@@&&##@@$@@  XXXX@@@XX###O#OXXXX@@@@XX@@$@@@X X @XXOXXXX"
};
