/* XPM */
static char *result[] = {
/* columns rows colors chars-per-pixel */
"64 64 244 2 ",
"   c #2F1C09",
".  c #341605",
"X  c #3A1406",
"o  c #331B06",
"O  c #3B1A06",
"+  c #36160B",
"@  c #3B140B",
"#  c #331B0A",
"$  c #3C1A0A",
"%  c #2E1A14",
"&  c #2D1A1B",
"*  c #331612",
"=  c #371615",
"-  c #321B14",
";  c #331C1A",
":  c #1D3206",
">  c #1E3208",
",  c #2B2506",
"<  c #252C06",
"1  c #2B2C06",
"2  c #27250B",
"3  c #2B240B",
"4  c #272B0B",
"5  c #2B2D0A",
"6  c #342307",
"7  c #332C06",
"8  c #392807",
"9  c #33240A",
"0  c #39230A",
"q  c #352C09",
"w  c #392C0A",
"e  c #263106",
"r  c #2C3206",
"t  c #213208",
"y  c #2C3309",
"u  c #2C3E0A",
"i  c #333407",
"p  c #3A3506",
"a  c #333C07",
"s  c #353409",
"d  c #3A350A",
"f  c #333B0A",
"g  c #3C3C08",
"h  c #2C2313",
"j  c #272912",
"k  c #2B2A15",
"l  c #2C231C",
"z  c #2C2A1B",
"x  c #31221D",
"c  c #382918",
"v  c #3B2C1A",
"b  c #2B3D12",
"n  c #363414",
"m  c #3B3514",
"M  c #3C3814",
"N  c #35311B",
"B  c #3C331A",
"V  c #2C1E24",
"C  c #2D1F29",
"Z  c #371F26",
"A  c #2D2425",
"S  c #2E2922",
"D  c #2D242A",
"F  c #2E292B",
"G  c #332423",
"H  c #3A2327",
"J  c #332C25",
"K  c #32252B",
"L  c #312B2B",
"P  c #363123",
"I  c #373124",
"U  c #2E2531",
"Y  c #322534",
"T  c #3C2535",
"R  c #342C34",
"E  c #3A2B33",
"W  c #34263A",
"Q  c #3C253B",
"!  c #352D3A",
"~  c #3B2A3C",
"^  c #451806",
"/  c #4C1A07",
"(  c #43140A",
")  c #4C150A",
"_  c #431B0B",
"`  c #4B1C0A",
"'  c #531808",
"]  c #521B0A",
"[  c #43230C",
"{  c #4A220A",
"}  c #482A09",
"|  c #532309",
" . c #42350B",
".. c #483908",
"X. c #543D06",
"o. c #593B07",
"O. c #54350C",
"+. c #5A350C",
"@. c #553B0A",
"#. c #59390C",
"$. c #432915",
"%. c #422C14",
"&. c #433414",
"*. c #473716",
"=. c #4A3312",
"-. c #543711",
";. c #553911",
":. c #412237",
">. c #41243C",
",. c #412A3D",
"<. c #1C5E0E",
"1. c #2C4407",
"2. c #264D06",
"3. c #2C4D07",
"4. c #26460B",
"5. c #2D440A",
"6. c #2C4C09",
"7. c #344406",
"8. c #3D4206",
"9. c #324C06",
"0. c #3C4B07",
"q. c #32430A",
"w. c #3B4309",
"e. c #314B0A",
"r. c #265506",
"t. c #2B5207",
"y. c #265D06",
"u. c #2C5C06",
"i. c #275409",
"p. c #2B530A",
"a. c #255B09",
"s. c #2A5C09",
"d. c #365708",
"f. c #1B6D05",
"g. c #1E6708",
"h. c #1B7305",
"j. c #167D05",
"k. c #197B06",
"l. c #1C740A",
"z. c #246306",
"x. c #2B6706",
"c. c #236B05",
"v. c #25640A",
"b. c #256C0A",
"n. c #336C05",
"m. c #3C6B05",
"M. c #376808",
"N. c #3C6B09",
"B. c #247305",
"V. c #2D7405",
"C. c #277907",
"Z. c #2B7C05",
"A. c #25730A",
"S. c #247B0A",
"D. c #2B7C09",
"F. c #327305",
"G. c #3D7406",
"H. c #337C06",
"J. c #3C7C06",
"K. c #337309",
"L. c #3C740A",
"P. c #337D09",
"I. c #3C7C0A",
"U. c #4B4304",
"Y. c #4E4D05",
"T. c #464508",
"R. c #534305",
"E. c #594106",
"W. c #514B04",
"Q. c #54430B",
"!. c #514B0A",
"~. c #4D5305",
"^. c #4A5A05",
"/. c #485808",
"(. c #446405",
"). c #426C06",
"_. c #486509",
"`. c #436E0A",
"'. c #427305",
"]. c #44730B",
"[. c #4A740B",
"{. c #43790B",
"}. c #48780C",
"|. c #3C2C42",
" X c #3B2D44",
".X c #3C3146",
"XX c #442744",
"oX c #442B45",
"OX c #4C2D4B",
"+X c #54264D",
"@X c #532C4C",
"#X c #592C4E",
"$X c #44304A",
"%X c #4E2F51",
"&X c #552E55",
"*X c #5C2D51",
"=X c #4D3051",
"-X c #543053",
";X c #5A3155",
":X c #553258",
">X c #5D3259",
",X c #622C54",
"<X c #6A2C5A",
"1X c #722D5D",
"2X c #643152",
"3X c #62325C",
"4X c #6D325E",
"5X c #71315E",
"6X c #6E2E60",
"7X c #732E61",
"8X c #6C3362",
"9X c #723162",
"0X c #148E05",
"qX c #1A8C09",
"wX c #149506",
"eX c #1A9607",
"rX c #149A05",
"tX c #159409",
"yX c #1A9012",
"uX c #258406",
"iX c #2B8305",
"pX c #258C06",
"aX c #2C8B05",
"sX c #258409",
"dX c #2B8409",
"fX c #258C09",
"gX c #2B8B09",
"hX c #338405",
"jX c #398306",
"kX c #338C05",
"lX c #398B07",
"zX c #348409",
"xX c #3B850B",
"cX c #348C09",
"vX c #3A8A0B",
"bX c #259206",
"nX c #2C9406",
"mX c #289807",
"MX c #259309",
"NX c #2B9409",
"BX c #319306",
"VX c #31920A",
"CX c #38900B",
"ZX c #42830D",
/* pixels */
"rXh.4.m L |.:X9X7X3XoXP B 5.g.wXwXf.7.n L .X>X9X9X*X|.J m 5.l.tX0Xg.q.n K oX>X6X7X:X|.J n 1.k.rXwXz.g B U  X8X7X9X%X~ I m 2.k.rX",
"bXK.U.+.v D ~ ;X*X|.D v O.Q.M.bXbXn.X.O.%.D ~ ,X*X|.F %.O.Q.K.bXfXM.X.O.v U oX*X*XW S %.O.U.V.bXuXd.O.;.v U oX*X;XW J =.+.Y.D.mX",
"BX{.!.@.{ = G ~ >.K ; _ @.W.'.VXBXG.W.@.{ * F >.,.D * { @.~.'.NXVX).R.O.$ & Y >.~ A # | @.~.J.nXlX).!.+._ & K >.~ V = } R.^.J.NX",
"aXcX`.Q.' @ k G G h + ' @._.zXaXaXlX).@.) + k G G h + ` Q.).CXkXaXvX(.-.) + z H G k @ ] !.'.vXaXkXxX^.O.) + z G S h @ ] Y.'.kXaX",
"kXaXP.T.@ # 5 h h 5 # @  .G.aXzXzXpXH.g @ 6 y # 3 y # $ ..zXpXzXkXaXL.d @ 9 5 h 3 q # _ w.zXaXhXhXnXM.} X 9 4 - 4 5 . _ 0.cXaXhX",
"F.iXgX6.w w y 4 9 y s 0 6.iXdXV.K.dXdX6.w w y , 3 y w w 3.dXiXK.V.iXZ.q.w q y 9 4 r 9 q p.gXsXK.V.pXC.f 9 i y 9 4 s 0 d u.NXZ.F.",
"L.Z.NXc.q.d r < < r s q.v.fXiXL.L.dXfXv.q.s r < < r s e.b.pXiXL.L.iXfXa.p s r , < r d 6.B.pXH.L.G.gXaXy.f i < 1 4 i p p.B.pXH.K.",
"`.xXnXpXa.r 1 : : 5 i 2.uXNXvX].].xXNXsXt.1 < : > 1 r r.uXnXxX].].vXNXS.2.y e : > 1 r a.pXNXxX`.}.kXbXC.5.7 e > < 1 r z.pXNX{.m.",
"`.ZXNXfXa.y 5 t : 1 7 i.sXMXxX].}.xXNXsXi.5 5 : : 1 y r.fXVXxX].].cXMXS.6.5 y : > 1 r a.pXNXxX`.{.vXNXC.4.5 < : > 5 u v.pXVXZXN.",
"L.iXNXc.3.p y < < e s 5.x.pXhXG.L.dXfXb.e.d y < < r d 6.c.pXZ.G.I.gXgXv.7.s 1 4 < y p 6.B.bXH.L.G.fXsXz.a s r 1 < i d t.B.bXD.L.",
"F.iXpXt.7 8 i , 9 y s w 1.iXpXF.K.iXiXt.w w y 3 , r w q 3.dXiXK.V.pXD.q.9 s r 6 1 y w w u.fXiXF.V.aXZ.u 8 i y 9 1 i 6 i u.gXZ.V.",
"jXpXzXw.$ o 5 h h 5   $  .L.pXhXxXgXH. .+ 6 5 3 3 5   $ 8.H.aXhXhXaXG.d $ 9 5 - 3 y o $ T.zXaXhXhXaXn.} X , 5 - 3 5 # $ d.gXgXhX",
"aXcXm.!.' @ h G G k + ) Q.`.vXaXaXlX).Q.) + h G x k + ] Q.`.kXaXaXvX(.@.' + k G A h + ' !.'.cXaXpXjX^.+.)   z Z z h @ | !.{.cXiX",
"NXJ.~.X.` = S E >.L - [ @.W.G.nXnXG.W.o./ % S T T A - ` @.Y.J.VXgX`.W.@.( & K >.T V + | E.~.jXnXBX).W.;.^ % F >.E & @ | Q./.lXBX",
"bXF.R.+.%.D ~ *X*X~ D %.#.X.M.bXbXn.R.O.m A |.#X*X! K %.+.R.n.bXgXM.X.;.v D XX*X*XW A &.X.U.K.bXaXd.@.;.v K oX,X#XW K =.@.Y.Z.nX",
"eXl.5.&.P ! -X5X1X>X~ L m 7.f.wXwXf.6.m J |.;X5X5X;X~ J m 3.h.wXtXf.a m L  X>X1X9X-X! P d 2.k.tX0Xz.g B L .X3X1X4X=XR N m 2.j.rX",
"rXl.6.&.I |.-X5X7X,X~ P B q.c.wXwXf.7.M J  X:X5X8X;X~ P M 5.h.wXwXz.7.B F  X>X1X9X-X! J M 3.k.rX0Xz.a B R  X3X7X7XOXR I d 3.k.rX",
"NXK.Q.#.&.D W @X#X~ A v #.R.M.bXbXM.E.#.%.A ~ #X#X~ A %.#.Q.n.NXpXN.@.O.c D >.#X*XW G =.+.R.F.bXaXd.o.@.c D oX#X@XW z =.#.W.D.mX",
"nXJ.~.X.{ = A :.:.F - _ @.W.G.nXNXG.Y.@.` - A T T A - { o.~.'.BXkXG.W.+.^ % F Q E A + { X.^.jXnXkX`.R.+._ & L :.T A + | X.^.xXnX",
"iXcX].Q.) X h G G k + ) O.).lXaXaXcX).E.) X h S x h + ] Q.`.VXaXaXvX_.#.) . z Z l h X ] Q.G.cXiXaXxX_.+.) # k Z z 3 @ ] !.I.BXaX",
"zXiXhXT.O o y h h 5 6 + g F.aXhXzXpXhX .. o 5 3 3 5   . 8.zXgXzXhXpXK. .@ 6 4 h 2 1 . $ 0.zXiXzXhXBXN.w + w 4 - 3 y . _ d.cXdXzX",
"K.dXpXp.w w y 3 , y q q 6.uXuXK.K.iXiX6.w m y 3 , y q q t.sXS.K.V.iXD.7.8 7 y 9 4 i w i s.fXdXK.F.pXC.u 0 i y 9 < y w d u.gXS.K.",
"L.zXpXB.9.s r < < r i q.x.fXiX].L.hXMXb.e.p r < < r d e.b.gXD.L.L.aXaXx.7.s r 1 < r s 6.B.fXzXG.L.cXuXv.f s e 1 < y f p.B.NXP.G.",
"`.xXNXgXy.y 1 : > 1 5 i.uXNXxX[.].xXNXsXp.y < : : 1 7 r.fXNXxX].[.hXNXuX3.r < > > 1 e a.fXNXZX`.}.vXNXS.1.7 e : t 1 e v.fXVX{.N.",
"`.xXNXfXs.y 1 : : 1 i 2.sXMXjX].].xXNXsXt.7 y > > 1 i r.sXNXxX].}.zXNXD.2.i 4 : e 1 r v.pXnXxX`.].vXbXB.1.i e : : 5 y v.fXNX{.N.",
"L.dXpXb.e.s r 1 , r d q.y.pXaXL.].dXfXv.q.p 5 < < 1 d q.v.gXdXL.L.gXiXz.7.d 5 1 < r d e.b.bXH.G.L.gXpXy.p s e 3 < i s 6.A.pXH.L.",
"K.uXdXt.w 6 1 2 3 y w 0 9.iXpXF.K.uXiXq.6 w y 3 , e w 7 3.iXiXK.V.pXC.a 9 7 y 9 2 r 7 q t.pXiXF.C.gXV.a 6 7 y 0 1 y 0 w u.pXZ.F.",
"hXpXH.T.^ . 5 j h y # @  .F.aXzXiXiXH.g ^ o 5 3 h y . X 8.J.aXkXhXaXL. .( 6 5 % j 5 . ^ 0.hXaXjXiXNXn.} X 9 j ; 2 5 . ^ T.vXaXkX",
"iXkX).Q.] @ k G H z = ) O._.xXaXaXlX(.@.) + k H G h + ) Q._.cXaXaXjX_.;.) + z Z J h @ ] Q.).cXaXaXjX^.+.) % z Z G h ( | Y.L.BXiX",
"NX'.W.@.[ * A ,.>.D = [ @.W.'.BXnX'.W.O.{ ; D >.~ A = [ @.Y.G.nXVXm.W.@.[ V Y >.|.V = { E.~.J.NXcX(.R.;.$ & R XX! C = } Q.~.jXnX",
"mXK.U.-.v D ~ *X*XoXU v O.U.M.fXpXn.U.+.v D oX,X*X|.K $.O.U.n.bXpXM...;.c Y OX*X*X|.L &.@.U.V.MXgXd.@.;.c D OX,X*XW A *.@.T.Z.nX",
"rXl.1.n L ~ :X9X7X3X XL B 5.f.tXwXh.1.n L |.>X9X9X>X~ J n 6.h.wX0Xg.f B K  X>X1X8X-X~ J n 2.k.wX0Xz.b n U oX3X7X8X-X! J d i.k.rX",
"wXh.9.&.I R -X1X7X;X~ P &.7.b.wXwXc.7.&.P ! -X1X9X@XE I m q.B.rX0Xz.w.&.L |.;X1X1X=XR P &.1.k.eX0Xz.g B F  X>X1X4XOX! I  .9.k.eX",
"nXL.R.+.%.A Y @X#XW D $.+.o.N.nXNXM.E.+.m & Y OX#XY A $.@.R.m.nXaXN.E.#.v D ~ +X#XW x =.#.W.F.nXkX^.o.;.c D ,.@XOXY x =.+.W.zXmX",
"NXJ.~.Q.` + S T T A * _ O.Y.'.BXnXJ.~.X.^ + D T E l - ` o.^.G.VXcX'.Y.+._ * K :.E l + { X.^.jXnXBX'.W.+.( % L T R & + | R.(.jXmX",
"kXVX].Q./ + 3 x x j + ] #.].vXkXaXlX]...) + 4 l l 3 @ ) Q.'.BXhXkXCX).;.) + j x z h @ ] W.{.aXaXkXlX_.O.) . j Z z j @ ] Y.{.kXaX",
"J.iXhXw.X o 1 3 h y 9 + g H.pXiXhXiXH.g . 9 5   3 s h X w.zXfXhXhXpXH. .$ 9 5 h 2 r o $ 9.aXuXhXH.nXK.w . 7 4 # 2 1 # O d.gXiXjX",
"V.iXfXr.p s y 1 9 y d q 6.dXiXF.F.iXuXt.w d u , , y d w p.dXdXF.V.fXD.5.w s y 9 1 i q s u.pXZ.K.K.aXZ.5.8 s y 9 < f w s x.gXZ.n.",
"L.hXNXB.6.s y < < r p q.c.fXaX'.L.hXpXA.e.s r < < r s e.A.MXzX].L.dXfXb.q.s r < < 1 s t.C.bXH.G.L.aXuXv.7.s < < < r p s.S.gXzXL.",
"`.ZXNXpXa.5 4 : : < 5 r.uXNXxX[.[.vXNXiXr.1 < : > 1 5 a.gXMXxX].[.vXNXsXi.7 < > : 5 5 v.fXVXZX].[.vXMXS.5.5 < > > 1 y v.nXVX{.N.",
"`.xXNXsXp.i 5 > : 1 i t.sXbXzX[.].xXNXS.t.i r : > 5 i r.sXNXjX`.}.vXMXS.6.i 5 > > y s s.pXNXJ.m.{.cXMXB.5.s 5 > t 1 f v.fXVXI.m.",
"L.zXbXv.q.s y 4 3 r d p a.fXdXL.G.aXfXy.a p y , , y s q.v.gXdXL.L.dXsXa.f s y 3 5 e s 7.x.NXD.L.L.gXsXr.s s e , 1 s s q.c.fXP.K.",
"K.iXgXe.0 0 y , 3 i 8 0 q.D.sXV.K.iXiX7.0 0 y 3 , y 0 9 7.iXiXV.C.aXD.u $ 7 y 9 , y 6 w t.pXiXV.V.pXV.i o 7 y 9 < i 9 w s.fXS.H.",
"iXaXJ.w.` o 5 h h 5 o ( ..L.gXvXhXpXH...( # 7 h h y . _ T.H.aXcXaXkXm. .( 9 4 ; h 5 X _ 8.J.aXlXkXaXm.} @ , 3 ; 3 5 X _ /.hXaXvX",
"aXkX(.Q.] + z K H z + ) @.(.jXaXkXkX(.Q./ + k K H z + ` E.(.lXaXaXjX/.#.) - S Z G k @ ] Q.).kXaXVXjX^.+.)   S Z J % ( | !.).VXaX",
"BXG.Y.X.{ * D ,.~ R & 0 @.W.).nXnXm.R.@.[ % D >.>.D * [ X.Y.G.nXkX_.R.@._ & Y >.|.C * } o.~.J.nXcX(.E.O._ & R XX~ V - } @.~.J.nX",
"bXV.U.O.%.D ~ ,X<XoXK v -.X.x.pXMXx...O.v U oX,X,XoXL v O.T.n.bXfXx...-.v U OX,X*X|.K %.O.T.B.bXpXd...-.J Y OX,X;X~ K *.O.0.Z.MX",
"rXh.4.n F  X:X9X7X3X XD N 1.f.wXwXf.1.n F  X>X9X9X*X|.G N 4.h.wX0Xf.f N K oX3X6X9X&XW J n 2.k.wX0X<.f N D $X8X1X8X=X! G s r.j.rX",
"rXh.7. .J R OX4X5X-X! P &.w.c.wXwXc.8.=.J R @X4X5XOX! J  .7.B.wX0Xx.w.m J ~ &X5X4XOXR B  .1.h.eX0Xy.g *.J ~ *X1X<X$XR I ..t.k.eX",
"nXL.R.+.=.V Y @X@XY V %.#.E.N.nXnXm.X.o.%.& W OXOXY l %.+.Q.m.nXaX(.X.O.c V W +XOXY l } o.W.J.nXkX/.X.-.c V ~ +XOXU ; =.#.W.jXmX",
"BXjX^.@.` + l T T S - ) +.~.G.BXBXjX~.@.) - S T E l = ) @./.J.VXBXG.Y.O.) * S T E & + ` E.^.jXnXVXL.~.O.( % J :.K & @ | Q.(.vXBX",
"lXCX].!.) + 2 l h 3 + ) @.].CXkXgXcXL.Q.) + 4 ; x 3 + / Q.{.VXgXcXCX`.O.) # j ; z 3 X ' !.{.NXdXkXvX_.O.)   j ; k j @ / Y.xXaXkX",
"H.uXcXw.o 9 5 3 h 5 0 $ a H.aXZ.H.pXH.g + 9 y   3 1 # $ w.zXdXzXiXgXP.s $ 9 4   2 e # $ 0.cXsXhXZ.nXn.w $ 9 4 3 3 1 + o d.cXiXhX",
"n.iXsXs.s d i 1 9 y d q t.sXdXF.K.iXpXt.s d y , , s d s s.fXD.K.F.dXsX6.w p y w 3 i s s s.fXdXV.F.aXD.5.7 s y 9 y s s s v.gXD.K.",
"G.H.bXA.e.s y < < e s e.A.bXzX'.].dXfXC.e.s r < < e f e.D.NXP.].L.zXfXA.q.s y : < r p p.S.NXzXN.'.cXfXb.q.s e < : r s s.D.bXI.N.",
"].ZXVXgXa.r 1 : > e 5 i.dXNXvX[.[.ZXNXiXr.1 1 : : < 1 s.sXNXxX[.}.xXNXsX2.1 < : e 1 r s.MXVXZX`.}.vXNXS.1.1 < : < 5 y z.NXVXZX_.",
"L.xXbXiXa.y 5 e > y s i.S.bXzX{.].xXNXS.t.i 5 t : r i r.uXNXzX`.}.vXNXB.6.i 5 : t r i i.pXNXjX].}.cXbXB.5.i < : t 1 a y.qXNXJ.N.",
"L.iXpXz.a d s 5 4 y g p y.fXdXL.L.dXfXa.f f y 1 < r d f y.pXdXL.L.dXuXr.s f s , 1 s d 1.x.bXD.L.K.gXsXr.q s y 9 < a p 5.c.bXH.K.",
"K.iXdXe.9 0 r 1   y w 9 q.H.pXK.K.gXdXq.$ 0 y 3 , 5 9 0 6.iXdXD.D.sXD.f o 7 y 3 3 r 6 9 t.aXiXH.Z.aXB.p o 7 5 0 3 y o 6 d.gXD.H.",
"vXaXJ.T./ o k h 3 3 . ( ..L.NXdXcXgXJ..._ o 5 - h 5 # ( T.I.aXaXgXcX)...( # 5 ; h 5 . ) T.hXaXlXkXVXm.} ( 9 k ; k 5 X / /.zXkXkX",
"NXlX(.o.] + z K K l = ' @./.hXVXaXjX(.X.] + z H H z @ ) o.(.xXcXVXjX/.#.] = x Z K l ( ' E.(.kXkXBXI.~.+.) - z H H h ( | !.).cXNX",
"VXL.W.#.[ & D oXXXD & [ #.W.).cXnXG.R.X.[ & U ,.XXD ; { @.W.'.VXkX).R.@.c & Y XX,.A - } o.W.I.VXkX(.E.O.0 & R >.,.C = } X.Y.{.nX",
"MXb.T.-.B R oX,X2XoXU v =.T.x.bXqXx.T.=.v F $X2X,XoXF B O.8.x.qXfXx...*.J R OX<X3X XD m ..T.B.eXpXu...*.z R OX<X;X|.K &.-.0.C.mX",
"yXl.4.N D |.;X8X8X3X XK J b v.qXqXg.4.z V  X>X8X9X;X|.D J 4.b.yXyXg.u J D  X3X5X9X:XW K N 4.g.yXqX<.b z U $X4X6X8X:XW V b i.l.tX"
};
