/* XPM */
static char *result[] = {
/* columns rows colors chars-per-pixel */
"64 64 62 1 ",
"  c #5E6E6E",
". c #606E6F",
"X c #657273",
"o c #697576",
"O c #6C7778",
"+ c #6E7A7B",
"@ c #717C7E",
"# c #737F81",
"$ c #758283",
"% c #798486",
"& c #7B8788",
"* c #7D8A8B",
"= c #818D8E",
"- c #838F90",
"; c #859294",
": c #899596",
"> c #8A9798",
", c #8D9A9B",
"< c #909D9E",
"1 c #929FA0",
"2 c #8FA0A0",
"3 c #95A3A4",
"4 c #99A5A7",
"5 c #9AA7A8",
"6 c #9DABAC",
"7 c #9FB1B1",
"8 c #A0ADAF",
"9 c #A2AFB0",
"0 c #A5B3B4",
"q c #A8B5B7",
"w c #AAB7B8",
"e c #A7B8B8",
"r c #ACBBBC",
"t c #B0BDBF",
"y c #AFBDC0",
"u c #B2BFC0",
"i c #B5C3C4",
"p c #B8C5C7",
"a c #B9C7C8",
"s c #BCCBCB",
"d c #BFCDD0",
"f c #BED0D0",
"g c #C1CDCF",
"h c #C1CFD0",
"j c #C4D3D4",
"k c #C8D6D7",
"l c #C9D7D8",
"z c #C7D8D8",
"x c #CCDBDB",
"c c #D0DEDF",
"v c #CEDDE0",
"b c #D1DFE0",
"n c #D3E3E3",
"m c #D6E5E8",
"M c #D9E7E8",
"N c #D7E9E9",
"B c #DBEBEC",
"V c #DEF0F0",
"C c #E0EEEF",
"Z c #E1EFF0",
"A c #E3F3F3",
"S c #EDFCFE",
/* pixels */
":u68690tbrmAAmtkl>9;a9&3euazrVz2nVeffeee4z2,15<%,h;*7,,r7q0;,830",
"=<g1<,49uuqmBip8zjju693<,e70nVnefi**;*3,j073,,;7,7:,i4s0ireie033",
"<<<8;;846hsxCqc<ecjaa5u0e;ajNV6xVVinzu7,0s0s01,,*,%,jrr;234473,-",
">-,:,>544llljqcBcq-=ae9tu7f43zrVVVzVnz26;83:3084-;@:,0631334i3+;",
"=O,>r;*w6srai08gnjjahir6>7NnzuzVVVNVVz77r711434e;;*,=e8143:232%2",
":<>8w-;kn015,ijkx9zuze6**7znNc3xniBVnf22788*$r4fi,r:4f74*$381o>3",
"===:98=-r<5atn8i9tj0iri9e7*27z3r2*rfcji732p47f7xa60744t,20tp::1,",
"=@-:=:;,j550tni9,1r0tr0teeanc7zNnec6cxnaer04*0rift3764208777u4$$",
"*$;>;3;>54ai6frii6-=076iy4*zz:2zVfBizccie0q*;47rsx06:>isie-,3;$:",
"*2$;3:,>::32$u6iqee,;15<5* *7xa3nzNfshfr0q28tt7rp0xhijxxhiiiq-4-",
"6562:,:,>63,<sj65e7%9tre5r7ezvr6fff28rrr02ruersf0txsiNBBne20>ei:",
"**ia5543;,,65pq3-27trtraeazNe2jNVVn2*,48u0grizfa9js6sxZCnx6p,fjr",
"e86565319q<:;<:530rj,:4rs6vVNeznBAzf;4qrr8p3iir,1kccnnNN70jirc4i",
"7e73plq18g<-<84p7ritszznni7ziBm52jee:2ii,,6qjNipij4cBnezrxzBBxea",
"8ir358<,:<8<q<:0tra3hNxNf2>7*NBn6znni7re4=574rsxssejjxxexn5BVsf7",
"rer0w<#4<>:81<8<iat:4z6nVNvv0iAAn7ri365542;9er74eir7izzxN7xVN0i7",
"60r33&*,9p98q8441glbyuymASABmqBAAnfsq084:;6t7887ee3:tprjg6lclprq",
">3e6302*:g<-6w4wsgyldl8bVNNxBBVABchr49044qp3**8trt3,4<0pppqswrw>",
"$*>,7:**%t<:wpgtluybmmuy7zseNBvNzjirr;6iep0;*223;333w4u8qsii6tr%",
"*%$*:6:$=kptMc95<1aku9h8zza:xnrijnsspe22@%1<,28,$*>egaw8368st41=",
"#1@=2er;%1:5k4h0-dyuyh85xte,fnf7ct5rzrj8322:::2q2$;8x8<,&twppr6&",
"=1=#>&&6<:%&9<cu>q,1yy0usptshjheaifar6irzr2:>,*:&*;,4-58:6w4<30*",
"+##1@O:0154#q4g1#d61ky8y000t7e4esfr26;4:3q2t6i%52=-;>1k81=w>=-8=",
"=%wu==qat-#@%4:p->9g01;1586s7e0iearr367883,1;9,re;1g<<p1p93==:t0",
"==-58<1>w8=<#@+8&#;83<*<3i*5tq7i,eiii;,663:9--<a:=qpt9p4<4--1<<:",
"1,:11=::<:91+@%u*#&>3r>r5r>4e600eiiixiieg83w-%-g>--5>414>><<48p8",
"<<5hj18jp511&#:u*#9&*:>-*6,&89ernn7assii848w<*3t85<<81>4-48<158w",
"443<18u89g1-=O89&&&-:X.4,,2*6998zfsnfs,e:4up<=*@:11848>9w=ttqpu1",
"q01,11yupt88>=q,>u#;8X%ar6,>sp3rfia4fzxat8qt:<:<:854=99=qp4pkptt",
"uw5:18uwg8>4l18=1g1hu&@=*;73805if7rsxVfcct56-%<<5q5upp19848tgt81",
"t&>q8;r8:4439g8<09*-u-=#+*i40t35fssxgsjBp91<<1utwuquw8ctglgcplkk",
"uuauq8ut9u84w>gt>;#*u9##*;feertezz6i8kjx81q91g99wpp1=kpqlMqu5clk",
":qpgtw;>7650r4qi2-;:i8%#*,ghgp>tza,jzsr281<g4p88wtgk4q843ppu>854",
"3uqppw6680=784<7>o>et,,%%4t49t91j4aasr024448<:@-q:9cx44chnCCwp:0",
"g-1papqstr8uz00iq1%,7phs:@o<98t4,8si0i:6w14:1988pgkMg%6ckcBcq8;q",
"9:r9c53q53rixi44i8;4133:5=o<u4qtte4>9,,24-q<:19tpgkg<kBCncg,8xa@",
"t9p5rr9008e60jsgr24160>38:==810qixe64*30>%4:-4488*<<;knMxgkgwjp:",
"tqtqqqq68,spsx0<6t-wh8;g8*<1-48qtxae1,,::%-@O:<4pqt,:4kxr1:itpa6",
"9=6q1sr0604zcxf;pp%pg0:63381=<-40906::8:4=1-%@=:44qrqq4pjt=qr6q8",
"844>,*,888tiixcsz8,zj48rq39:58482rhes2i:<=44q%%t4414pp::gp<us0*;",
"=:&&<--<ue0tfju1hsnZNrrtw=1qqtq-3sxxp:49s==u%@@:,qi<iti3i4rax,,6",
"4=:&%@:>t77txxzrc0NSNxg0q<t8qpu8ir60r61==1=0%=w8e<683ir6r3jij448",
":-OO%%q<r3rr,ps2p6VNcNcs1qqgqq8qi011p:>,:%&8@%@o%=:342i-3rjrr3$%",
"%@@%:@%4;27j0-36epznjfis1wtwq948<,6,4$@;gt4p4-%:3*=,4qq0304667,o",
"=@@#q@%9>e5rxarf7snnicufqpt1uq88%-*&a-$*t%%p0%%<%@:i9q6:2=462<i=",
"&:##=:%<;,477r,67ffzzpi2tcq4:<:-:>$*4t-$<oo%=8-<<-=<g9:438e4r2,=",
"#%#%88p1=*>46errifizj2tzwt:1gg->305qp0<=%oo@o44%$@:;<<,-rirr4,;;",
"8>4><pq4:$:0,67ete2jarrat1<4<9u5%$$*%*49>$%1-:%o+@::2=4=9r*322;=",
"cp=:t9%1%%&8<--q444q8w:g6<<g:@%%OO@-#%=8t:<g>4%%@=r,2488tt22362e",
"&-qt=%%8&88<<>>4>1><591<-%=%%@%&O@@:%Op4-p-<pqwq=0,4rtq00>,4,>qc",
"-p1:><4%O%:u8<4p%=:><q-1-@%%O@@@@o%4-@<1%>188g>&ww;<i4944*,23;,q",
"1-=t==<=%9p1<8cu1%>gg8q>-O@%%@%%%-:t@OO%@%>=@:9:pns,24>24=24263*",
"-&pguu8<-9l1t4pq4-t9>&*=%#-1w48g8q-1-#@===4@=p486tw=%8224,6,*,>*",
"-&:1>-#1118g81u<-4-%-%$#:%=%:-%<::tg8:%1=gg9u%@4;t=$*t,24ri4,,:;",
"<19<1=%4<qq1<q:%--%4s:01g<<%414<:::<=%%8@%=<9-%@+%$+%==2;4e5*,43",
"8<1<4>>:>gq-qq1<:;:--&4i-:-:<<14<<:-1:%=#O@#=p1%@=3=$4-,6ie7$3ec",
"94=>1=<548<>481t90<,,$$%@:wpgu89114:-%41%@@=@=11<u<46s<5st6e;>6t",
"g9<qt<-4=444<8=442q,*-o$O%<44<tt4t9144t::@@%@=-@$196*-wir04i8=wi",
"r=858atc9ggkpwqp940utq84---1q:6qqtkggq814%@@%qq>@:=38=<4eisiteet",
"+@<85gpp4kk8tgppg0u3:=*44:>ja9<w9qt9q><=:w%$@=:%#%t,%<39e8jxzxz4",
":<,1pgugqMkg9pg9qtg<-*;0:>4rt63ttpuwt41::91<-1-o$@s10pjjpfzz6cs;",
"gppwp<1tpcbCppgctri44>;uq99qj44pgpppt8<t<6:&$%%@:%%-s45eei6zts32",
"ir4i89pp5kcMw9kMxg<rsq31519gutpkkk54848pp<=#%%@O@==p3*te,itzj4si",
"w4qq58pp55=cCbpctxr6>68pi<sxp&:knMkgcg<46<-<w=@@%%=<,f74-66axiij"
};
