/* XPM */
static char *result[] = {
/* columns rows colors chars-per-pixel */
"64 64 19 1 ",
"  c #000008",
". c #102040",
"X c #19315C",
"o c #1B3767",
"O c #1E386D",
"+ c #334365",
"@ c #23437F",
"# c #2B5397",
"$ c #335FB3",
"% c #43649E",
"& c #516B9D",
"* c #486BAC",
"= c #4D75BA",
"- c #5B7FBE",
"; c #4377E7",
": c #5E83C7",
"> c #6189CF",
", c #5B8AEA",
"< c #7FA7EF",
/* pixels */
"$$$$$$$$$$$$$$$$$$$$$$$$$$$$$$$o$$$$$$$$$$$$$$$$$$$$$$$$$$$$$$$o",
"$$############################oo$$############################oo",
"$$############################oo$$############################oo",
"$$############################oo$$############################oo",
"$$############################oo$$############################oo",
"$$############################oo$$############################oo",
"$$############################oo$$############################oo",
"$$############################oo$$############################oo",
"$$############################oo$$############################oo",
"$$############################oo$$############################oo",
"$$############################oo$$############################oo",
"$$############################oo$$############################oo",
"$$############################oo$$############################oo",
"OOXXXXXXXXXXXXXXXXXXXXXXXXXXXX..OOXXXXXXXXXXXXXXXXXXXXXXXXXXXX..",
"OOXXXXXXXXXXXXXXXXXXXXXXXXXXXX..OOXXXXXXXXXXXXXXXXXXXXXXXXXXXX..",
"OOXXXXXXXXXXXXXXXXXXXXXXXXXXXX..OOXXXXXXXXXXXXXXXXXXXXXXXXXXXX..",
"                                                                ",
"                                                                ",
"  ####    ####    ####    ####    ####    ####    ####    ####  ",
"  @##@    @##@    @##@    @##@    @##@    @##@    @##@    @##@  ",
" o@##@;  o@##@;  o@##@;  o@##@;  o@##@;  o@##@;  o@##@;  o@##@; ",
" o@##@;  o@##@;  o@##@;  o@##@;  o@##@;  o@##@;  o@##@;  o@##@; ",
" o@##@;  o@##@;  o@##@;  o@##@;  o@##@;  o@##@;  o@##@;  o@##@; ",
" o@##@;  o@##@;  o@##@;  o@##@;  o@##@;  o@##@;  o@##@;  o@##@; ",
"+%*==*,++%*==*,++%*==*,++%*==*,++%*==*,++%*==*,++%*==*,++%*==*,+",
"+%*==*,++%*==*,++%*==*,++%*==*,++%*==*,++%*==*,++%*==*,++%*==*,+",
"+%*==*,++%*==*,++%*==*,++%*==*,++%*==*,++%*==*,++%*==*,++%*==*,+",
"+%*==*<++%*==*<++%*==*<++%*==*<++%*==*<++%*==*<++%*==*<++%*==*<+",
"+%*==*<++%*==*<++%*==*<++%*==*<++%*==*<++%*==*<++%*==*<++%*==*<+",
"&-:>>:<&&-:>>:<&&-:>>:<&&-:>>:<&&-:>>:<&&-:>>:<&&-:>>:<&&-:>>:<&",
"&-:>>:<&&-:>>:<&&-:>>:<&&-:>>:<&&-:>>:<&&-:>>:<&&-:>>:<&&-:>>:<&",
"&-:>>:<&&-:>>:<&&-:>>:<&&-:>>:<&&-:>>:<&&-:>>:<&&-:>>:<&&-:>>:<&",
"&-:>>:<&&-:>>:<&&-:>>:<&&-:>>:<&&-:>>:<&&-:>>:<&&-:>>:<&&-:>>:<&",
"&-:>>:<&&-:>>:<&&-:>>:<&&-:>>:<&&-:>>:<&&-:>>:<&&-:>>:<&&-:>>:<&",
"&-:>>:<&&-:>>:<&&-:>>:<&&-:>>:<&&-:>>:<&&-:>>:<&&-:>>:<&&-:>>:<&",
"+%*==*<++%*==*<++%*==*<++%*==*<++%*==*<++%*==*<++%*==*<++%*==*<+",
"+%*==*,++%*==*,++%*==*,++%*==*,++%*==*,++%*==*,++%*==*,++%*==*,+",
"+%*==*,++%*==*,++%*==*,++%*==*,++%*==*,++%*==*,++%*==*,++%*==*,+",
"+%*==*,++%*==*,++%*==*,++%*==*,++%*==*,++%*==*,++%*==*,++%*==*,+",
"+%*==*,++%*==*,++%*==*,++%*==*,++%*==*,++%*==*,++%*==*,++%*==*,+",
" o@##@;  o@##@;  o@##@;  o@##@;  o@##@;  o@##@;  o@##@;  o@##@; ",
" o@##@;  o@##@;  o@##@;  o@##@;  o@##@;  o@##@;  o@##@;  o@##@; ",
" o@##@;  o@##@;  o@##@;  o@##@;  o@##@;  o@##@;  o@##@;  o@##@; ",
" o@##@;  o@##@;  o@##@;  o@##@;  o@##@;  o@##@;  o@##@;  o@##@; ",
"  @##@    @##@    @##@    @##@    @##@    @##@    @##@    @##@  ",
"  ####    ####    ####    ####    ####    ####    ####    ####  ",
"                                                                ",
"                                                                ",
"OOXXXXXXXXXXXXXXXXXXXXXXXXXXXX..OOXXXXXXXXXXXXXXXXXXXXXXXXXXXX..",
"OOXXXXXXXXXXXXXXXXXXXXXXXXXXXX..OOXXXXXXXXXXXXXXXXXXXXXXXXXXXX..",
"OOXXXXXXXXXXXXXXXXXXXXXXXXXXXX..OOXXXXXXXXXXXXXXXXXXXXXXXXXXXX..",
"$$############################oo$$############################oo",
"$$############################oo$$############################oo",
"$$############################oo$$############################oo",
"$$############################oo$$############################oo",
"$$############################oo$$############################oo",
"$$############################oo$$############################oo",
"$$############################oo$$############################oo",
"$$############################oo$$############################oo",
"$$############################oo$$############################oo",
"$$############################oo$$############################oo",
"$$############################oo$$############################oo",
"$ooooooooooooooooooooooooooooooo$ooooooooooooooooooooooooooooooo",
"oooooooooooooooooooooooooooooooooooooooooooooooooooooooooooooooo"
};
