/* XPM */
static char *result[] = {
/* columns rows colors chars-per-pixel */
"64 64 23 1 ",
"  c #393939",
". c #3A3A3A",
"X c #3F3F3F",
"o c #434343",
"O c #444444",
"+ c #464646",
"@ c #515151",
"# c #535353",
"$ c gray33",
"% c #555555",
"& c #565656",
"* c gray35",
"= c #5F5F5F",
"- c gray38",
"; c #626262",
": c gray39",
"> c #656565",
", c #6A6A6A",
"< c gray42",
"1 c #717171",
"2 c gray46",
"3 c gray47",
"4 c gray48",
/* pixels */
"<333333333333333333333333333333:<333333333333333333333333333333:",
"#>,,,,,,,,,,,,,,,,,,,,,,,,,,,,;o#>,,,,,,,,,,,,,,,,,,,,,,,,,,,,;o",
"#=11::::::::::::::::::::::::11*o#=11::::::::::::::::::::::::11*o",
"#=2%::::::::::::::::::::::::2%*o#=2%::::::::::::::::::::::::2%*o",
"#=$$::::::::::::::::::::::::$$*o#=$$::::::::::::::::::::::::$$*o",
"#=::::::::::::::::::::::::::::*o#=::::::::::::::::::::::::::::*o",
"#=::::::::::::::::::::::::::::*o#=::::::::::::::::::::::::::::*o",
"#=::::::::::::::::::::::::::::*o#=::::::::::::::::::::::::::::*o",
"#=::::::::::::::::::::::::::::*o#=::::::::::::::::::::::::::::*o",
"#=::::::::::::::::::::::::::::*o#=::::::::::::::::::::::::::::*o",
"#=::::::::::::::::::::::::::::*o#=::::::::::::::::::::::::::::*o",
"#=::::::::::::::::::::::::::::*o#=::::::::::::::::::::::::::::*o",
"#=::::::::::::::::::::::::::::*o#=::::::::::::::::::::::::::::*o",
"#=::::::::::::::::::::::::::::*o#=::::::::::::::::::::::::::::*o",
"#=::::::::::::::::::::::::::::*o#=::::::::::::::::::::::::::::*o",
"#=::::::::::::::::::::::::::::*o#=::::::::::::::::::::::::::::*o",
"#=::::::::::::::::::::::::::::*o#=::::::::::::::::::::::::::::*o",
"#=::::::::::::::::::::::::::::*o#=::::::::::::::::::::::::::::*o",
"#=::::::::::::::::::::::::::::*o#=::::::::::::::::::::::::::::*o",
"#=::::::::::::::::::::::::::::*o#=::::::::::::::::::::::::::::*o",
"#=::::::::::::::::::::::::::::*o#=::::::::::::::::::::::::::::*o",
"#=::::::::::::::::::::::::::::*o#=::::::::::::::::::::::::::::*o",
"#=::::::::::::::::::::::::::::*o#=::::::::::::::::::::::::::::*o",
"#=::::::::::::::::::::::::::::*o#=::::::::::::::::::::::::::::*o",
"#=::::::::::::::::::::::::::::*o#=::::::::::::::::::::::::::::*o",
"#=::::::::::::::::::::::::::::*o#=::::::::::::::::::::::::::::*o",
"#=::::::::::::::::::::::::::::*o#=::::::::::::::::::::::::::::*o",
"#=::::::::::::::::::::::::::::*o#=::::::::::::::::::::::::::::*o",
"#=4,::::::::::::::::::::::::4,*o#=4,::::::::::::::::::::::::4,*o",
"#=-@::::::::::::::::::::::::-@*o#=-@::::::::::::::::::::::::-@*o",
"#*&&************************&&*o#*&&************************&&*o",
"+                 .............XO                              X",
"<333333333333333333333333333333:<333333333333333333333333333333:",
"#>,,,,,,,,,,,,,,,,,,,,,,,,,,,,;o#>,,,,,,,,,,,,,,,,,,,,,,,,,,,,;o",
"#=11::::::::::::::::::::::::11*o#=11::::::::::::::::::::::::11*o",
"#=2%::::::::::::::::::::::::2%*o#=2%::::::::::::::::::::::::2%*o",
"#=$$::::::::::::::::::::::::$$*o#=$$::::::::::::::::::::::::$$*o",
"#=::::::::::::::::::::::::::::*o#=::::::::::::::::::::::::::::*o",
"#=::::::::::::::::::::::::::::*o#=::::::::::::::::::::::::::::*o",
"#=::::::::::::::::::::::::::::*o#=::::::::::::::::::::::::::::*o",
"#=::::::::::::::::::::::::::::*o#=::::::::::::::::::::::::::::*o",
"#=::::::::::::::::::::::::::::*o#=::::::::::::::::::::::::::::*o",
"#=::::::::::::::::::::::::::::*o#=::::::::::::::::::::::::::::*o",
"#=::::::::::::::::::::::::::::*o#=::::::::::::::::::::::::::::*o",
"#=::::::::::::::::::::::::::::*o#=::::::::::::::::::::::::::::*o",
"#=::::::::::::::::::::::::::::*o#=::::::::::::::::::::::::::::*o",
"#=::::::::::::::::::::::::::::*o#=::::::::::::::::::::::::::::*o",
"#=::::::::::::::::::::::::::::*o#=::::::::::::::::::::::::::::*o",
"#=::::::::::::::::::::::::::::*o#=::::::::::::::::::::::::::::*o",
"#=::::::::::::::::::::::::::::*o#=::::::::::::::::::::::::::::*o",
"#=::::::::::::::::::::::::::::*o#=::::::::::::::::::::::::::::*o",
"#=::::::::::::::::::::::::::::*o#=::::::::::::::::::::::::::::*o",
"#=::::::::::::::::::::::::::::*o#=::::::::::::::::::::::::::::*o",
"#=::::::::::::::::::::::::::::*o#=::::::::::::::::::::::::::::*o",
"#=::::::::::::::::::::::::::::*o#=::::::::::::::::::::::::::::*o",
"#=::::::::::::::::::::::::::::*o#=::::::::::::::::::::::::::::*o",
"#=::::::::::::::::::::::::::::*o#=::::::::::::::::::::::::::::*o",
"#=::::::::::::::::::::::::::::*o#=::::::::::::::::::::::::::::*o",
"#=::::::::::::::::::::::::::::*o#=::::::::::::::::::::::::::::*o",
"#=::::::::::::::::::::::::::::*o#=::::::::::::::::::::::::::::*o",
"#=4,::::::::::::::::::::::::4,*o#=4,::::::::::::::::::::::::4,*o",
"#=-@::::::::::::::::::::::::-@*o#=-@::::::::::::::::::::::::-@*o",
"#*&&************************&&*o#*&&************************&&*o",
"+                 .............XO                              X"
};
