/* XPM */
static char *result[] = {
/* columns rows colors chars-per-pixel */
"64 64 4 1 ",
"  c gray20",
". c #535353",
"X c gray39",
"o c #777777",
/* pixels */
"oXXXXXXXXXXXXXX.oXXXXXXXXXXXXXX.oXXXXXXXXXXXXXX.oXXXXXXXXXXXXXX.",
"X.............. X.............. X.............. X.............. ",
"X.............. X.............. X.............. X.............. ",
"X.............. X.............. X.............. X.............. ",
"X.............. X.............. X.............. X.............. ",
"X.............. X.............. X.............. X.............. ",
"X.............. X.............. X.............. X.............. ",
"X.............. X.............. X.............. X.............. ",
"X.............. X.............. X.............. X.............. ",
"X.............. X.............. X.............. X.............. ",
"X.............. X.............. X.............. X.............. ",
"X.............. X.............. X.............. X.............. ",
"X.............. X.............. X.............. X.............. ",
"X.............. X.............. X.............. X.............. ",
"X.............. X.............. X.............. X.............. ",
".               .               .               .               ",
"oXXXXXXXXXXXXXX.oXXXXXXXXXXXXXX.oXXXXXXXXXXXXXX.oXXXXXXXXXXXXXX.",
"X.............. X.............. X.............. X.............. ",
"X.............. X.............. X.............. X.............. ",
"X.............. X.............. X.............. X.............. ",
"X.............. X.............. X.............. X.............. ",
"X.............. X.............. X.............. X.............. ",
"X.............. X.............. X.............. X.............. ",
"X.............. X.............. X.............. X.............. ",
"X.............. X.............. X.............. X.............. ",
"X.............. X.............. X.............. X.............. ",
"X.............. X.............. X.............. X.............. ",
"X.............. X.............. X.............. X.............. ",
"X.............. X.............. X.............. X.............. ",
"X.............. X.............. X.............. X.............. ",
"X.............. X.............. X.............. X.............. ",
".               .               .               .               ",
"oXXXXXXXXXXXXXX.oXXXXXXXXXXXXXX.oXXXXXXXXXXXXXX.oXXXXXXXXXXXXXX.",
"X.............. X.............. X.............. X.............. ",
"X.............. X.............. X.............. X.............. ",
"X.............. X.............. X.............. X.............. ",
"X.............. X.............. X.............. X.............. ",
"X.............. X.............. X.............. X.............. ",
"X.............. X.............. X.............. X.............. ",
"X.............. X.............. X.............. X.............. ",
"X.............. X.............. X.............. X.............. ",
"X.............. X.............. X.............. X.............. ",
"X.............. X.............. X.............. X.............. ",
"X.............. X.............. X.............. X.............. ",
"X.............. X.............. X.............. X.............. ",
"X.............. X.............. X.............. X.............. ",
"X.............. X.............. X.............. X.............. ",
".               .               .               .               ",
"oXXXXXXXXXXXXXX.oXXXXXXXXXXXXXX.oXXXXXXXXXXXXXX.oXXXXXXXXXXXXXX.",
"X.............. X.............. X.............. X.............. ",
"X.............. X.............. X.............. X.............. ",
"X.............. X.............. X.............. X.............. ",
"X.............. X.............. X.............. X.............. ",
"X.............. X.............. X.............. X.............. ",
"X.............. X.............. X.............. X.............. ",
"X.............. X.............. X.............. X.............. ",
"X.............. X.............. X.............. X.............. ",
"X.............. X.............. X.............. X.............. ",
"X.............. X.............. X.............. X.............. ",
"X.............. X.............. X.............. X.............. ",
"X.............. X.............. X.............. X.............. ",
"X.............. X.............. X.............. X.............. ",
"X.............. X.............. X.............. X.............. ",
".               .               .               .               "
};
