/* XPM */
static char *result[] = {
/* columns rows colors chars-per-pixel */
"64 64 6 1 ",
"  c gray20",
". c #434343",
"X c #535353",
"o c gray39",
"O c #777777",
"+ c gray53",
/* pixels */
"O++++++++++++++++++++++++++++++oO++++++++++++++++++++++++++++++o",
"XO++++++++++++++++++++++++++++o.XO++++++++++++++++++++++++++++o.",
"XXoooooooooooooooooooooooooooo..XXoooooooooooooooooooooooooooo..",
"XXoooooooooooooooooooooooooooo..XXoooooooooooooooooooooooooooo..",
"XXoooooooooooooooooooooooooooo..XXoooooooooooooooooooooooooooo..",
"XXoooooooooooooooooooooooooooo..XXoooooooooooooooooooooooooooo..",
"XXoooooooooooooooooooooooooooo..XXoooooooooooooooooooooooooooo..",
"XXoooooooooooooooooooooooooooo..XXoooooooooooooooooooooooooooo..",
"XXoooooooooooooooooooooooooooo..XXoooooooooooooooooooooooooooo..",
"XXoooooooooooooooooooooooooooo..XXoooooooooooooooooooooooooooo..",
"XXoooooooooooooooooooooooooooo..XXoooooooooooooooooooooooooooo..",
"XXoooooooooooooooooooooooooooo..XXoooooooooooooooooooooooooooo..",
"XXoooooooooooooooooooooooooooo..XXoooooooooooooooooooooooooooo..",
"XXoooooooooooooooooooooooooooo..XXoooooooooooooooooooooooooooo..",
"XXoooooooooooooooooooooooooooo..XXoooooooooooooooooooooooooooo..",
"XXoooooooooooooooooooooooooooo..XXoooooooooooooooooooooooooooo..",
"XXoooooooooooooooooooooooooooo..XXoooooooooooooooooooooooooooo..",
"XXoooooooooooooooooooooooooooo..XXoooooooooooooooooooooooooooo..",
"XXoooooooooooooooooooooooooooo..XXoooooooooooooooooooooooooooo..",
"XXoooooooooooooooooooooooooooo..XXoooooooooooooooooooooooooooo..",
"XXoooooooooooooooooooooooooooo..XXoooooooooooooooooooooooooooo..",
"XXoooooooooooooooooooooooooooo..XXoooooooooooooooooooooooooooo..",
"XXoooooooooooooooooooooooooooo..XXoooooooooooooooooooooooooooo..",
"XXoooooooooooooooooooooooooooo..XXoooooooooooooooooooooooooooo..",
"XXoooooooooooooooooooooooooooo..XXoooooooooooooooooooooooooooo..",
"XXoooooooooooooooooooooooooooo..XXoooooooooooooooooooooooooooo..",
"XXoooooooooooooooooooooooooooo..XXoooooooooooooooooooooooooooo..",
"XXoooooooooooooooooooooooooooo..XXoooooooooooooooooooooooooooo..",
"XXoooooooooooooooooooooooooooo..XXoooooooooooooooooooooooooooo..",
"XXoooooooooooooooooooooooooooo..XXoooooooooooooooooooooooooooo..",
"XXoooooooooooooooooooooooooooo..XXoooooooooooooooooooooooooooo..",
"XXoooooooooooooooooooooooooooo..XXoooooooooooooooooooooooooooo..",
"XXoooooooooooooooooooooooooooo..XXoooooooooooooooooooooooooooo..",
"XXoooooooooooooooooooooooooooo..XXoooooooooooooooooooooooooooo..",
"XXoooooooooooooooooooooooooooo..XXoooooooooooooooooooooooooooo..",
"XXoooooooooooooooooooooooooooo..XXoooooooooooooooooooooooooooo..",
"XXoooooooooooooooooooooooooooo..XXoooooooooooooooooooooooooooo..",
"XXoooooooooooooooooooooooooooo..XXoooooooooooooooooooooooooooo..",
"XXoooooooooooooooooooooooooooo..XXoooooooooooooooooooooooooooo..",
"XXoooooooooooooooooooooooooooo..XXoooooooooooooooooooooooooooo..",
"XXoooooooooooooooooooooooooooo..XXoooooooooooooooooooooooooooo..",
"XXoooooooooooooooooooooooooooo..XXoooooooooooooooooooooooooooo..",
"XXoooooooooooooooooooooooooooo..XXoooooooooooooooooooooooooooo..",
"XXoooooooooooooooooooooooooooo..XXoooooooooooooooooooooooooooo..",
"XXoooooooooooooooooooooooooooo..XXoooooooooooooooooooooooooooo..",
"XXoooooooooooooooooooooooooooo..XXoooooooooooooooooooooooooooo..",
"XXoooooooooooooooooooooooooooo..XXoooooooooooooooooooooooooooo..",
"XXoooooooooooooooooooooooooooo..XXoooooooooooooooooooooooooooo..",
"XXoooooooooooooooooooooooooooo..XXoooooooooooooooooooooooooooo..",
"XXoooooooooooooooooooooooooooo..XXoooooooooooooooooooooooooooo..",
"XXoooooooooooooooooooooooooooo..XXoooooooooooooooooooooooooooo..",
"XXoooooooooooooooooooooooooooo..XXoooooooooooooooooooooooooooo..",
"XXoooooooooooooooooooooooooooo..XXoooooooooooooooooooooooooooo..",
"XXoooooooooooooooooooooooooooo..XXoooooooooooooooooooooooooooo..",
"XXoooooooooooooooooooooooooooo..XXoooooooooooooooooooooooooooo..",
"XXoooooooooooooooooooooooooooo..XXoooooooooooooooooooooooooooo..",
"XXoooooooooooooooooooooooooooo..XXoooooooooooooooooooooooooooo..",
"XXoooooooooooooooooooooooooooo..XXoooooooooooooooooooooooooooo..",
"XXoooooooooooooooooooooooooooo..XXoooooooooooooooooooooooooooo..",
"XXoooooooooooooooooooooooooooo..XXoooooooooooooooooooooooooooo..",
"XXoooooooooooooooooooooooooooo..XXoooooooooooooooooooooooooooo..",
"XXoooooooooooooooooooooooooooo..XXoooooooooooooooooooooooooooo..",
"XX                            ..XX                            ..",
"X                              .X                              ."
};
