/* XPM */
static char *result[] = {
/* columns rows colors chars-per-pixel */
"64 64 13 1 ",
"  c gray20",
". c #393939",
"X c #434343",
"o c #444444",
"O c #464646",
"+ c #4C4C4C",
"@ c #535353",
"# c #565656",
"$ c gray38",
"% c gray39",
"& c gray42",
"* c #777777",
"= c gray53",
/* pixels */
"*==============================%$&&&&&&&&&&&&&&&&&&&&&&&&&&&&&&#",
"@*============================%X+$&&&&&&&&&&&&&&&&&&&&&&&&&&&&#X",
"@@%%%%%%%%%%%%%%%%%%%%%%%%%%%%XX++############################XX",
"@@%%%%%%%%%%%%%%%%%%%%%%%%%%%%XX++############################XX",
"@@%%%%%%%%%%%%%%%%%%%%%%%%%%%%XX++############################XX",
"@@%%*==*%%%%%%%%%%%%%%%%*==*%%XX++##$&&$################$&&$##XX",
"@@%%=%%O%%%%%%%%%%%%%%%%=%%O%%XX++##&##o################&##o##XX",
"@@%%=%%O%%%%%%%%%%%%%%%%=%%O%%XX++##&##o################&##o##XX",
"@@%%@OO@%%%%%%%%%%%%%%%%@OO@%%XX++##+oo+################+oo+##XX",
"@@%%%@@%%%%%%%%%%%%%%%%%%@@%%%XX++###++##################++###XX",
"@@%%%%%%%%%%%%%%%%%%%%%%%%%%%%XX++############################XX",
"@@%%%%%%%%%%%%%%%%%%%%%%%%%%%%XX++############################XX",
"@@%%%%%%%%%%%%%%%%%%%%%%%%%%%%XX++############################XX",
"@@%%%%%%%%%%%%%%%%%%%%%%%%%%%%XX++############################XX",
"@@%%%%%%%%%%%%%%%%%%%%%%%%%%%%XX++############################XX",
"@@%%%%%%%%%%%%%%%%%%%%%%%%%%%%XX++############################XX",
"@@%%%%%%%%%%%%%%%%%%%%%%%%%%%%XX++############################XX",
"@@%%%%%%%%%%%%%%%%%%%%%%%%%%%%XX++############################XX",
"@@%%%%%%%%%%%%%%%%%%%%%%%%%%%%XX++############################XX",
"@@%%%%%%%%%%%%%%%%%%%%%%%%%%%%XX++############################XX",
"@@%%%%%%%%%%%%%%%%%%%%%%%%%%%%XX++############################XX",
"@@%%%%%%%%%%%%%%%%%%%%%%%%%%%%XX++############################XX",
"@@%%%%%%%%%%%%%%%%%%%%%%%%%%%%XX++############################XX",
"@@%%%%%%%%%%%%%%%%%%%%%%%%%%%%XX++############################XX",
"@@%%%%%%%%%%%%%%%%%%%%%%%%%%%%XX++############################XX",
"@@%%%%%%%%%%%%%%%%%%%%%%%%%%%%XX++############################XX",
"@@%%%%%%%%%%%%%%%%%%%%%%%%%%%%XX++############################XX",
"@@%%%%%%%%%%%%%%%%%%%%%%%%%%%%XX++############################XX",
"@@%%%%%%%%%%%%%%%%%%%%%%%%%%%%XX++############################XX",
"@@%%%%%%%%%%%%%%%%%%%%%%%%%%%%XX++############################XX",
"@@%%%%%%%%%%%%%%%%%%%%%%%%%%%%XX++############################XX",
"@@%%%%%%%%%%%%%%%%%%%%%%%%%%%%XX++############################XX",
"@@%%%%%%%%%%%%%%%%%%%%%%%%%%%%XX++############################XX",
"@@%%%%%%%%%%%%%%%%%%%%%%%%%%%%XX++############################XX",
"@@%%%%%%%%%%%%%%%%%%%%%%%%%%%%XX++############################XX",
"@@%%%%%%%%%%%%%%%%%%%%%%%%%%%%XX++############################XX",
"@@%%%%%%%%%%%%%%%%%%%%%%%%%%%%XX++############################XX",
"@@%%%%%%%%%%%%%%%%%%%%%%%%%%%%XX++############################XX",
"@@%%%%%%%%%%%%%%%%%%%%%%%%%%%%XX++############################XX",
"@@%%%%%%%%%%%%%%%%%%%%%%%%%%%%XX++############################XX",
"@@%%%%%%%%%%%%%%%%%%%%%%%%%%%%XX++############################XX",
"@@%%%%%%%%%%%%%%%%%%%%%%%%%%%%XX++############################XX",
"@@%%%%%%%%%%%%%%%%%%%%%%%%%%%%XX++############################XX",
"@@%%%%%%%%%%%%%%%%%%%%%%%%%%%%XX++############################XX",
"@@%%%%%%%%%%%%%%%%%%%%%%%%%%%%XX++############################XX",
"@@%%%%%%%%%%%%%%%%%%%%%%%%%%%%XX++############################XX",
"@@%%%%%%%%%%%%%%%%%%%%%%%%%%%%XX++############################XX",
"@@%%%%%%%%%%%%%%%%%%%%%%%%%%%%XX++############################XX",
"@@%%%%%%%%%%%%%%%%%%%%%%%%%%%%XX++############################XX",
"@@%%%%%%%%%%%%%%%%%%%%%%%%%%%%XX++############################XX",
"@@%%%%%%%%%%%%%%%%%%%%%%%%%%%%XX++############################XX",
"@@%%%%%%%%%%%%%%%%%%%%%%%%%%%%XX++############################XX",
"@@%%%%%%%%%%%%%%%%%%%%%%%%%%%%XX++############################XX",
"@@%%%%%%%%%%%%%%%%%%%%%%%%%%%%XX++############################XX",
"@@%%%%%%%%%%%%%%%%%%%%%%%%%%%%XX++############################XX",
"@@%%%%%%%%%%%%%%%%%%%%%%%%%%%%XX++############################XX",
"@@%%*==*%%%%%%%%%%%%%%%%*==*%%XX++##$&&$################$&&$##XX",
"@@%%=%%O%%%%%%%%%%%%%%%%=%%O%%XX++##&##o################&##o##XX",
"@@%%=%%O%%%%%%%%%%%%%%%%=%%O%%XX++##&##o################&##o##XX",
"@@%%@OO@%%%%%%%%%%%%%%%%@OO@%%XX++##+oo+################+oo+##XX",
"@@%%%@@%%%%%%%%%%%%%%%%%%@@%%%XX++###++##################++###XX",
"@@%%%%%%%%%%%%%%%%%%%%%%%%%%%%XX++############################XX",
"@@                            XX++............................XX",
"@                              X+..............................X"
};
