/* XPM */
static char *result[] = {
/* columns rows colors chars-per-pixel */
"64 64 44 1 ",
"  c #4F1713",
". c #501713",
"X c #501813",
"o c #511813",
"O c #521814",
"+ c #521914",
"@ c #531914",
"# c #541A14",
"$ c #551A15",
"% c #551B15",
"& c #561B15",
"* c #581C16",
"= c #581D16",
"- c #5A1D17",
"; c #591E16",
": c #5A1E17",
"> c #5B1E17",
", c #5C1F18",
"< c #5C2018",
"1 c #5F221A",
"2 c #602219",
"3 c #62221A",
"4 c #66261C",
"5 c #67271C",
"6 c #69291E",
"7 c #6B2B1F",
"8 c #6D2A1F",
"9 c #6F2B1F",
"0 c #722D20",
"q c #722E21",
"w c #722F22",
"e c #773224",
"r c #7A3323",
"t c #793526",
"y c #7C3425",
"u c #7F3827",
"i c #803726",
"p c #803928",
"a c #853C29",
"s c #863D2A",
"d c #8B3F2B",
"f c #8F432E",
"g c #92462F",
"h c #974B33",
/* pixels */
"hhhhhhhhhhhhhhhhhhhhhhhhhhhhhhhhhhhh7+6ggpppttttthhhhhhhhttttggh",
"dddddddddddddqqddddddddddddddddddddf4O4dqddddddddddddddqqddddydd",
"999999999999999399999999999999999r9u>.>39999r999999993399999r933",
"99999999999999993399999999999999r99u>.&999999r999993-3399999r993",
"9999999999999999993399999999rrrr999u> >9999999r0333399933999r999",
"88888333999999999999399rrrrrr999999u& &333333339rr3999999399r999",
"99999088000rrrrrrr99r00999999999933w@ &99999999993r99999939r9999",
"33999999--33339999rirrr33999999933-e>.&333333333399rr99333-09999",
"993999993-$$-93399r9999rr0033333339u>.>999999999-99990-33303--39",
"393--3339993-$-3-8999999999rr933399u>.>99999999393333803330333-9",
"3-3993999999993303--3339999930r0999u>.>9999999939993399r9r9933--",
"99333933999999903339333-3---3339rrra>.>99999993993339999i9999998",
"99999333--3339r99333333---3-3339993e,X,03999939993399999rr9999rr",
"rrrrrrrrrr0330399993393993333333339u>.>9r0rrr39333999999r9rrrr99",
"           555                                          5       ",
"                                                       5        ",
"hhhhhhhhhhhhhhhhhhhhhh1:7hhhhhhhhhhhhhhhhhhthhhhhhhhhhhghhhhhhhh",
"dddddddddddddddddddddf<*4dddddddddddddddddqddddddddddddddddddddd",
"999999999999999999999u&@>99999999999999999399999999999r999999999",
"333399999999999999999u&o&3399999999999999399999999999rirrrr99999",
"333399999333333339333e@@>993333999rrrr008000000rrrrrr9r9999rr999",
"9999339339999993--999u&@>999999-003333939999999333333-8-39999r93",
"333333-99999933993339u&@>993300r3399999399999rr993333990-999990r",
"399999933333399999933e@o>93rr9999939993999930330-339999r9--9939r",
"3339993393399rrrrrrr0e@o@0r99999993399399r0r9993r9933399r33-3999",
"99939939rrr0r9999993ru>#23399999999938rrr39999399rr993393r088r99",
"9999--rr9993399999330s2@&33339999999r333-9999399999r999-30330000",
"33339r3339999333308r9a&@>99333999999r$-3933339999999r00rr33-939r",
"9999r999933330000-333u2o&9999-3999r0-39999933999999939933993-339",
"999r999999rrr99939999e&#&---33--338393999999939993--333999993933",
" 55    555             +=5555    5                              ",
"5    55                      5   5                              ",
"ghhgghhhhhhhhhhthhhhhhhhhhhhhhghgththhhhhhhhhhhthhhh7:7hhhhhthhh",
"dddddddddddddddqdddqqqqddddddddddqdddddddddddddqdddf4*4ddddqqddd",
"9999999999999933993999933339999i9399999999999993999u>@>999939999",
"999993333999990r33999999999333rr3999999999999993999u>@>999933399",
"993339999333r033rrr9999999999r3309999999933-333-333e&o&3--$-33-3",
"993999999rrr3-99999rrrrrrrrrr999-r9999333339333-999u>o&39-33333-",
"--33399rr999939993333999999999993099339339999993333e&@>r8rr99993",
"9999r0r9999939933999939999999999-38-333999999993999u>%233930033-",
"rrrrr9333999-333333333399999993--390999999999rr0rrra2@&-33999r09",
"99999999933339993339993-3933--3333330rrr9999r993999u>.@-3399993r",
"-399999999993999933----3--3-333-93333-39rrrr9993999eoo&999300000",
"93-333399993$----3393393333999-3399933--3r9rr993993w>o2rr0099999",
"99933993---33933333999330r0883399999999383999rr3338a,%>339999999",
"999993339rrr-399999333303399000r9999999r333333-8889u@o&999999999",
"       55   5555     55         5555555                         ",
"      5         55555                                           ",
"hhhhhgh7:7hhthhhhhhhhhhhthhhhhhhhhhhhhhtthhhhhthhhhhhthhhhhhhhhh",
"ddddddf4*4dqdddddddddddqddddddddddddddqdddddddqdddddddqddddddddd",
"9999r9u>@>9399999999993399999999999r9399999999399999993999333999",
"399r99u>@>9399999999999339999999999009999999993999999r0r0--99399",
"933r99u>@>399999999999999333399933399r999999990rrrrrr9-3-rr39939",
"r90399u>@>3333333333339999999---999999r9rrrrrr3999993-9393308393",
"9ri339u>@o-33333333333----$$$----33999rrr3333399999339330rrrr8r3",
"9r9r33u&oo99999999999999939999993-3300333rr99999993-$-8033333333",
"9r9rr-w>o>--399999999993399999999r083993333000000880rr9999999333",
"9r933ra;o>rr08rr9999933999999999r9993--393----3-3393999999999939",
"993399u&#:9999--rrr3399999999rrr99999933--333333-993999999999939",
"339993e>@>-99999$$-03999999rr999999993------33339-33999999999939",
"399939u>@>3--3339930939999r99999999--3339399333333--399999999939",
"33--33e&o&339339999900--9r99999999-3393339999999999$399999999939",
"                      555                                       ",
"                                                                "
};
