/* XPM */
static char *result[] = {
/* columns rows colors chars-per-pixel */
"64 64 80 1 ",
"  c #2D2D2E",
". c #302F2D",
"X c #32312F",
"o c #2E2F31",
"O c #302F32",
"+ c #2F3034",
"@ c #323234",
"# c #383734",
"$ c #3A3934",
"% c #35353A",
"& c #38373A",
"* c #37383E",
"= c #3B3A3D",
"- c #413E3F",
"; c #42413E",
": c #353740",
"> c #373941",
", c #3D3D42",
"< c #3D3E48",
"1 c #403F43",
"2 c #3F404B",
"3 c #434245",
"4 c #494546",
"5 c #45444B",
"6 c #49464C",
"7 c #4B494D",
"8 c #514C4E",
"9 c #474650",
"0 c #484750",
"q c #474853",
"w c #4D4B53",
"e c #4E4E59",
"r c #514E54",
"t c #514F59",
"y c #545155",
"u c #5A5455",
"i c #5E5857",
"p c #55535B",
"a c #59565C",
"s c #5C595D",
"d c #615C5D",
"f c #68615B",
"g c #565561",
"h c #595761",
"j c #5D5A62",
"k c #5F5D69",
"l c #615D63",
"z c #615F69",
"x c #646166",
"c c #696465",
"v c #65636A",
"b c #69666B",
"n c #6C696D",
"m c #706867",
"M c #716C6D",
"N c #656371",
"B c #696771",
"V c #6D6B72",
"C c #6E6C7B",
"Z c #716E73",
"A c #786F70",
"S c #706F7F",
"D c #747175",
"F c #797475",
"G c #757379",
"H c #79767B",
"J c #7C7A7D",
"K c #817C7C",
"L c #777481",
"P c #797782",
"I c #7D7C82",
"U c #817E81",
"Y c #858385",
"T c #8A8685",
"R c #8E8987",
"E c #848389",
"W c #898789",
"Q c #8C8A8A",
"! c #918E8C",
"~ c #97938F",
/* pixels */
",=@. %34831<><7ryyygwwqsDTJc5=*..&rcdudnz111111811881O111%.-uddm",
"=#.  @,-4=@%%%3uyyhgegpjGQRUZxr&++=ad88iu88111@-1111-OO1-O.X--1d",
"-#@. +@*&@@+ @7iilswehkknT~!YVjq%.@3wy748ua8111111ur1OO-. .--.X-",
"=##@ +%21%:@o@788ypwjjjxDU!RUnxl0**5wpjyrua1118ud8u81-11-OO-X.X-",
"$##*@@+*<9<:+o,w2;4rkjsvFUYJnnbxg110wphlzhuary8uu81p111m4$-$X..@",
"65-%*=%%:1q1:@%62$$qgkvnHYQHvnnxhw16ettslh1u11r1a1rt8humi;-#....",
"xp3@=55q067r96,62;%2gBVnGIJDVnVnzr15tgppu11pu18rrhpt1amcs4$.   @",
"fy**3raaa0,35r762,,2eGGVZnnnVbcZBdr6tlayhkku1rrw111111Ncu;X ..#=",
"7aw5=yhatq1>,5rrww72rJIGZlcbbbcsdmzyethzCCNrw81w722qppxvs8$XXX*2",
"463@@2rppe1>&=1tpr2;7HJnDHndaplvpzbawwlzbCCl871w2qyweyjsDDy;XX@X",
"a5@+.+=7ga01,,4pgr7qrDYVGYJnlrylllldhphkzCSz8111wwepgjvxmMi4X#24",
"r3@+++@%qgt0653ryyrwrMJVnJFxls7yduyylNBNNCLZuww1qpgjvGGZMmd4$$7s",
",52>>2=@%6q77r7eapsspVJVlxxjbFcslur8ylZLLLULzarrygsxvnDVnbfu428d",
"5yr3222=&%1,5tjhjsxnynHFZswjDIJbclldupZPPUWPJbp8yalxjsnVxsss44is",
"yxr5559q5%<,5rzjussVawsMFjrabVYWAaylcbHUUW!QUZj77sbxxsBHDa7r7$us",
"jhw799qe65696wbbjsnHj=7scsdxFHHIZzpalpunLW!PHmzp7yjvvvGIZvjspryb",
"tteqeeee75wpasZZlaszk0wsdldnFJJJGbp77yysATEUZdu6*7yxZFVbxnnxxaaV",
"eghteeeq=3rldlnblar0ttrruyuscMDVj3>33yyiMUWTZdy82;7ysxslZnccsw7x",
"2gjy03w4X3dbbdlaplr19ps7-=157rua5+%535rylZKHAldr2-25yxbbHDccui88",
"ar5=*#2r1=ydvzprppr1>431=@&13,55>*>wp7657yadzMmd;%$2yaadcidnfi4=",
"s7@+++*70&8lltrsztq1>151=@,56550535akpryjly5aZHFd3%%136uMi4uu4$$",
"y3+.. X25,5pldagpeq114w01&&195qyew7eaaasxzy7rlMAmi4@&==8d874;$%#",
"&@+. .@20557udhpge9595953<@&>1wwy7377yuaparqrazdiu8=@&*68844$++%",
"=@++++.=pr557rrrte799155=<31158378ysjaapphhappsa8rw71&%574=&X ++",
"q075>%@=siarww00wrrr5=53==57775&=37yjbjsypsptryyyy72;=X27352# o+",
"yahvh7%@745115110rsr1=1-&#,7w53333q7pxssxjsjlpw8wp4222*=wr527,=*",
"ajxxxa=.#=@&,55,wrlr&&,*@@@=7yepappayjxspllnVay77qetgy2X27psxppr",
"lbbbf82@O..@35,5wsxp>%=*%,,&5yvVbhay76525qjGnjjaskpweew24axxnbxs",
"ZHGMf8&@O@O@1,%5rdbvt<=*&1757jVVjtgp72;*2wypssjjyyw7etteysnvnnnc",
"HPFnf7*@@55&11<17sVVky65<5ay7jvaqwygeq725ptwqysj752rkkkjvZVbVDHD",
"nZnMc73>>9wqww077jZbkhpe06ew37yaypeeeqpeqwe52ehly4yjZHVxnGJJUUKF",
"ufacnxpe5egee75qabZkpzje05>5323alvkklpavxyqqqygsw5sxGGGnnITQ!YKK",
";iisnvgswgpw72eydbbj7zkw55<57=@1ajbDGjaZSzpdzzzzhrpzvkjvnPYYRRRT",
";fcDVVvjsp222=2wssyyprrawrw653&@2yxZZxlVZbadncllllahhjkzbDFAKKKF",
";2sGGZGnxsww722su8==tr7tkagpept<$4udxvjvBBaassdddlllzxlayuu8fJMs",
"787nGDGJJGvsyy2jxx710tysvzlagzBr$2y6waphhlhdr7678yaauy4-3777annf",
"y8;MWHvVYEJVjgekDGbyppaxBlluwaBz617ww323trrlar7311r81-#%;rixaafx",
"$$;cTJvkVJIVgjsvIYYnzaaar67rttas7,=,2@@@5w50pr5=&-7r17aaavVJbysj",
"2;4yGKDvjjkh2jgsnJHxcja761110pr,@ ooo+@+>007r0,@.O1lllzlnGZcsysd",
"xsw;ynMx2wweypywuxvrr51113411&+ooOooo*:+%1w711%oO1wpldllvZVbnbZv",
"xjy*;yxDiysxxu2==qt77q225551=@+oo@Oo+:<+o:<>@@o +;wpyryjxGIZxvxe",
"gq2>*;sZccvxxs,$#2w7yw5511>&@&>%@::+++::++@Oo@+o @2sxjyibUYGxshw",
"eq2;;7ssycMxxv22+>75rw72&OO@<<>%>::++oo OO&%%1,O  @8y77sDUYGVp7w",
"eqwq27ysaaxxxjs22%>wjw2**oO<e1%:::>%+ooo.&rtrjp7,+=7sp7pDJUHGvpp",
"qqpspyyy82yajy2w2*=pk5**>&&5e<>:+::*@+**O@rapagls;,22w2ybJJJBBkg",
"2qespq7q42;8ja522%%4xzt7rggw<>>><9<><971O.&17eaay2@+@+$7uDJZvvge",
";;isyq7siprgBge22#@2kvjahVNe99qwegeqww6@ O&=5rpljq2$$22$4xcsippe",
";;snxy;;2syslxj622*2zbkspghggggjhgtt95& o&q7trwgjgy222,;4yy72=22",
">*qxnp5$5xspxVGxlw11Nzhr1&1gpjkvzzar5@  %>1tatwtggeegg227;qyq=+o",
"*$$*;2q7qsysnGGvzt&1e61w1>=032evVVj7=.O%1qetrttggeepjvns82yss2@ ",
";;2w2$22**$5ysvvlw:O>111pa667637jvp&@@17e91>&tptkjeesjxuy7ypy2%+",
"$wssjyppy;*;;2qqtw&OO%11ylzlja74ua7=-5q3:%+O@rgtjBpwypjyu8isyq2$",
"eyyyjxBvs22psq2$::@ OO1glMZGbbaysy67rw,@oo++%wttpxxjkjsyywwptw73",
"q2;yjvGx2qsjnj2::+O O%11lZFUJGcazy7e5Oo o o%>wqe2yjpjsy77rww520w",
";$2yxxve;2jxBvj21>%OO>>%1cAMGInibxy5o      o%0qwe7pssy2270ww>=qq",
"2qq2q2ye27jvnnvpe111%@O%&rr-3xD8ac7@        %5q92qjvvviww00ew20q",
"ss72*+2e2;yfnvnBzlhh1111@387-7l4273=%@X      1wwqqjVZvrrww7rtewe",
"jy6q@ #q2$2sfsjxbbzzzhg13ubx48cbxxy532#+oo   @0apyvVVp51177rtgte",
"q755#o+#$@2yrrpsllllzaw13lDZifFFbsq2272@OOoo O3sjjxVve*O#>6rrrgt",
"wq5q>++++$;2;;2iauudr11&=8nZnmllu7q5wr72>:++ o%rvvbVv0OO&=17rrr0",
"r0-3*#+  =5572@;rty8671=--rdddd59560qwrq>@Oo++X7bVbv0>O,rr416778",
"505y2*+  =,*qr2215616r75533-4rrwwewtwwqw7,@@@@o3lba>@%O4lu768upu",
"2rslw*@+X$  $,;*O&51rsurr648r757wtpppeqwar,@@@@@wx7=&OO=8lcAZmAA",
"=rjbs5*@@+      O@14ulZmlu8rrr07qgjzjzsape1=>>=@=la7r1@4ymFUUHZl"
};
