/* XPM */
static char *result[] = {
/* columns rows colors chars-per-pixel */
"64 64 88 1 ",
"  c #040000",
". c #0B0202",
"X c #060309",
"o c #09050D",
"O c #0C090C",
"+ c #130F0E",
"@ c #060015",
"# c #0B0710",
"$ c #0D0A11",
"% c #0F031B",
"& c #110E15",
"* c #12051E",
"= c #150E1A",
"- c #151216",
"; c #191614",
": c #1B1817",
"> c #16121A",
", c #19141B",
"< c #1C191C",
"1 c #221F1D",
"2 c #150822",
"3 c #1B0E25",
"4 c #1C1621",
"5 c #1F1B23",
"6 c #211D23",
"7 c #231B29",
"8 c #242224",
"9 c #282724",
"0 c #2B2A26",
"q c #26222B",
"w c #2B262E",
"e c #2E2B2B",
"r c #302F2B",
"t c #32312E",
"y c #2E2B30",
"u c #312D32",
"i c #353332",
"p c #383734",
"a c #3A3936",
"s c #39333E",
"d c #3E3C3A",
"f c #413E3C",
"g c #44413E",
"h c #3C3641",
"j c #3E3942",
"k c #413D44",
"l c #464342",
"z c #494643",
"x c #4C4947",
"c c #474148",
"v c #4A454B",
"b c #4E4B4B",
"n c #504E4C",
"m c #54524F",
"M c #4F4A50",
"N c #524D52",
"B c #565353",
"V c #595555",
"C c #5C5956",
"Z c #575358",
"A c #5A565A",
"S c #5E5B5B",
"D c #615E5D",
"F c #63605E",
"G c #645D63",
"H c #666264",
"J c #696266",
"K c #6B656A",
"L c #6E696C",
"P c #706B6F",
"I c #71706E",
"U c #736E71",
"Y c #767274",
"T c #797476",
"R c #7B7679",
"E c #7E7A7C",
"W c #817C7E",
"Q c #827E81",
"! c #858283",
"~ c #888586",
"^ c #8A8789",
"/ c #8D8A8B",
"( c #918D8F",
") c #928F90",
"_ c #959293",
"` c #999696",
"' c #9A9798",
"] c #9B9999",
/* pixels */
"eVJHGKKGsy8ixKKKKGKc75dBHHHHSGc&yZHHKKKDuy6ixKKKKHKc56dmHKHHGGc@",
"0VJJJJKGhw6ixKLKKGKv55dBHLHHGGv&eZLHHKKGhy6ixLKKKHKv66dBHKHHGGv$",
"0VKJKJLGhy6ixKPLLKKv75jBHLKHGGM&eBLHKKKHhy8ixHILLKKv58dBKKKHGGM$",
"0VPKKLLJhy6ixKPPLLLM55kZLLKKHHM&eBLHKLLHje8ixLILLKLM58dCKLKHHHM&",
"rVPKLLPJku8ixLPPILLM66dALLKKGHM&yVLLLLLJjyqixLIILLPM75fCLLKKHJM&",
"rCPKPKPJsr8pnPUPIILM66lSLLLKKHM>rVLLLLPJjy8ibIIIUPPM75kSILLKHJM&",
"rDPPPPPJky8pmUYUIIIb68lFIILLKKM>tSUPPPUKjuqpnIIIUPUM75lFIPLLKKM$",
"tDYUPYYLku8fmTTTRYIN86xFYYUIKKM>iDUUUUYKjtqpBREITYYMq5xFYUIIKLM$",
"pFRYTTRIky9dVREEEYENq5xHRRYIIIm-iHRTRRRIfu9dCEEEERRN66bHRRYIIIN$",
"aIWEWEQIku8dS!!QQEEN85bIEEEYIIB-aLQEEEWIku8fC!!WEEEN86nLEERYIIN$",
"aI~!!!~TkfzbD~!!!QQZqqxIQQERIYB,dI!!~!~RkdlnF~~!!Q!B9qxI!EERYIB$",
"dT/^^^/EkvBSH///~~!Zei8F~!WERYB-dY/~~~/EkbBSF///~~~Zri6F~!QERYB$",
"fE(((()WagxCL(((/~^Awu5p~~!ERRB:dE(((((QplxmI(((/~/Aqu5s~~!WEYB$",
"fE___)`!rfggH`__)//Aqy,u~~!!EEB:dE___(`!rdgzF___)//Aqy,u~~!WEECO",
"fW`_``]!rdgxF``_)))A5y,i//!!EEC:fQ]_``]~rdlxH]`__(/Aqw,i//~!EEBO",
"f!]`]]]~rdgxH```)))Zqw-t//~!EEV>f!]```]~edgzH]``_))A6e,t//~!EEAO",
"f!]]]]]/0ffgF]``_((D1w=u/(^!WEA-f~]']]]^rfggJ''`_((A7w>u/(^!WWA#",
"d!]`]]]/9ffgF]'``(^D7w3i//^!WEV>fQ]']]]^0fggF''`_()A7w4u/(~!WEZ#",
"d!``]]]/0fffJ]]`_((D7w=i/(^!WWV-fW]']]]^0fggF]'`_))A7w4u/(~!EEAX",
"d!````]!1fffF]``_((C7w=u//^!WEV;fW]'']]^1ffgD]'`_((A7w>u//~!EECX",
"dW]_``]!9fffD`__)//Z7w=u^/~QWWV-aW````'Q0fffD`__)//Zqq>u^/!!EEZX",
"aE____`!9iffD__))//Z7w=y^^!WRRZ-aW`)__`W1fffD_))(/~Z5q>u^^!QEECX",
"aE_(((_!;;1.n)))/^/Z37%z^~QWRRV-pR)())_W1;;.N))(/~/Z2q@v^~!ERRBX",
"aI(/(((Ey+1+D)///QQZ=7=D~!QWRTN&pT(((()We+;+V((//!!Z4q2D^!QERRBX",
"aI/^^^/Eh6&9D^^^^QQZ=,uH!QWWTYN>pI/~/^/Ws6+0D^^^~Q!N,,iF!!WRYYN@",
"pI~~^^^RhwOiDQ~QQQQN1OfJWWWTYUN>pI~!!~^TfwOuC~^QQQQN5OgJWWRRYYNo",
"tI!QQQ!Thy>pDWQWQQWM6,zFRWTUUUn&iI!W~W~Ysy;pCQQQQQEN6,zFEERYYPMo",
"tIEEWEQUsr8pVWWWRTRM66zDTWTUPLM=tLWWWWWUsy1fVWQWRRRM6<gFRRYYPPbo",
"tHERRREPsy8pBRWTTYQk77fDTYUPPLb=tKTWWWWKhw7pZRRRRTTv56kDTTUULLM@",
"tHTITTRKsy8pmTTTUUQk77fVUUPLKKb=tDUTUTTKhw6pNTTTUUUv66gCUUPLKKvo",
"tFIIIYYJsw8inYUUUUPk66fDPPLKGKk=rDUUUUUKsw6iMUUUUPPk56fVUPPKJJv#",
"rCIIPLPHsw8ixPPPPKKk61fNLLKKGKk3rDPPPLUGfr6ibPPPPPPv66fZLLKKGHc#",
"eSKKLLKGsw8ibLLKKKKc58dCKKKKGGc&rDKKLKPDsw6pxLLKKKKk46fmKKKGGGk%",
"eZKKJJJGse8ixKKKKHJc51dmGKGGGGc&0mJJJKKDsr8txKKKKGLk66fnKGKGGGk$",
"0VJGGJKGsw6ixKKKKHHc58dmKGHGGGc&rVJJGJKGsw8uzJKKKKKk61fmJKGGGGv$",
"rVJJGJJGhe8ixKKKKHHl65dBKKGGAGc&0VJGJJJGsw8inKLJKKLk61fmGKGGDGk$",
"rVJJHKKGhy6ixLIKKKKv66fBKKHGGGv&rVKJJJKGhy6ixLLLKKLk77fmGKKGGGk=",
"tCPKLLLKhy8inIILULLM66kCKKKKHHM&rAPKKPPJjw9pnPPPPKUk67fDLLLGGGv=",
"tDPPPUULju8pmIYIUUUM66jAPPLKHHM-fVKKKJWJku6pmITTUPUM66gDUULKKGb>",
"tFTTYYRYkieaBREERYTZ66kGYYUPLLN-rDWPWWWPkiraVRRRWUTZ67gFUYULLKN-",
"tJWEEEWRllmmBW!WEREZquuDERIIIIZ,fJWWWWWTkznBmW!WEEEZqiiDWRYUPLZ-",
"tL!Q!!!WzxmCF!~!!QQGuh8jEEEIIYA-yJWW!!~WzzmSF!~~!Q!Sui6jRWRTYUA-",
"iL/~^//!faznS~(/^~~Gqyq-E!EERYS,fJ/Q^^^!ddlxD~/^^!!Hwyq>R!WRTTS>",
"pI(((((^apgxC()(/^^Gqy6,W^WEEYG,rW))(()/dagzC(_(/^/H7y6,W~QWRRS-",
"iI_____/dpfgZ)_))/)H7y7>W/!WREF:tU_____/dagzC)__)/)H7y7>Q/!WERF>",
"iY`__`'/dpfxA_'_)/)H7y5>Q/!!EEH>rW`___'/apgzC_`_)/)K7y7>Q/!!EEH-",
"iY'```](dpfzA_'`_))J7w7>!(~!EEH;tI'_`]](dafgC_``_))H7w6-!(~!EEF-",
"iY]``'](dpdlB_'`_))K5y7&!(^!QEH>tW]`]_](apfgV_``_))L5y6&!(^!WEH-",
"iY]````(apfgV_``_((K7w6=!(^!WEH>iT'```')ffffV)``)))H7w7=!/~!QEH&",
"tY````'(aifgm_`_)((G7w6=W(~!WEH>iY'_``'(rfffV)``)))K7y5=!/!!EEH>",
"rI`)__`(apdgm(`)((_G7w7*W/!QEEH-uU____`/frffm)`))//H7w6$!/!!EEG&",
"rI`)___^t9ttg(_(//(K3w34!/~WRRG>iP_)___/f10ff(_(///H3q55E/!!EEG&",
"rI)(((_^s :.g(((/Q/G*7*f!^WWRRG>rP(((()/r.1.f()(/~^G*q@l~~QQRRD&",
"rL(^//(!k<;:m^(^/QQG=71V!!WWRTS>rP(^/((Qf:+1n^(^/!~G275B!!QEYRS&",
"0I~~~~^Qc0+9m~~~QQQD1=0DWWWRTTS>rK~~/^/QkwO9mQ^Q!QQG5>yDWQERYYS&",
"0H!!!~~Wky+rmW!!QWQD6=fDEWWTUUA=rJ!!Q^QQku+rVQQWQQQA5&dDEQERYYZ&",
"0GWWWQQWku5imE!WWWWA73fDWWUWUUV+0FWWWWWTky6inWWWQRQZ6<fDRERYUUZ@",
"0GWWWWQUku8ibRWEWWKk17fDUUWUPPN=tFWWWWWTky7ixWWWRTTN61fDYRYUPPN%",
"eDWUUWWKjy8inTRRWPWN71fDUWUPKKm=rFRRRRWLkw1inTWWRYTM66gDYTUPLLM@",
"eDUWUUWKhy6inUTYKWPN17fDPKUPKKk=rFTYYTRKfr7ixTUTUUUv66fCUUULKKb$",
"tDUPPUYKsy1ixUUUWKKk71fVPWJJKKk=rDUPPUYKsw7tkUUUUUPk56fVPLLLHKv@",
"eDPPPLPJsy6ixPPPKKKk77fVKKKJGGk,0DPPLLPGfw7uNPUUPKUk6<fVLLKJHGv@",
"rCKJKKKGsw8ixPPKKKPk<1fNKKJGGGk=rVKKKKLGsq1eMKKKKKKk56fZKKJGGGc$",
"rVJJJKKDsy1ixKKKKKKk31fNJKJGDJk=eVJJKKKGfe7fbKKKKKKk66dZGKHGGDc$"
};
