/* XPM */
static char *result[] = {
/* columns rows colors chars-per-pixel */
"64 64 79 1 ",
"  c #040600",
". c #10100C",
"X c #17011B",
"o c #1A071F",
"O c #1B1717",
"+ c #1C1B17",
"@ c #17121A",
"# c #19141B",
"$ c #211F1D",
"% c #22211D",
"& c #1D0C23",
"* c #1F1326",
"= c #1F1A21",
"- c #201A27",
"; c #251E2A",
": c #262423",
"> c #292626",
", c #2B2926",
"< c #26212C",
"1 c #2A242E",
"2 c #2E2B2B",
"3 c #302E2C",
"4 c #35322E",
"5 c #2C2632",
"6 c #2F2A31",
"7 c #332D35",
"8 c #362E3A",
"9 c #363234",
"0 c #393633",
"q c #3C3A36",
"w c #373139",
"e c #3A353C",
"r c #3D3A3C",
"t c #423E3C",
"y c #43403E",
"u c #3D3641",
"i c #3F3A41",
"p c #413B44",
"a c #463E4B",
"s c #483F4C",
"d c #444144",
"f c #4B4546",
"g c #4B4946",
"h c #474149",
"j c #4C444C",
"k c #4E4A4D",
"l c #50474F",
"z c #514A4D",
"x c #4E4551",
"c c #4E4C50",
"v c #514752",
"b c #554C53",
"n c #584F56",
"m c #574E59",
"M c #5A4F5A",
"N c #555253",
"B c #595256",
"V c #5D545C",
"C c #5F585C",
"Z c #60575E",
"A c #615A5E",
"S c #5F5660",
"D c #605761",
"F c #635B62",
"G c #685F68",
"H c #666164",
"J c #696266",
"K c #6C646A",
"L c #6E696C",
"P c #706A6F",
"I c #726C70",
"U c #767374",
"Y c #787577",
"T c #7A7678",
"R c #7D7B7C",
"E c #817E7F",
"W c #827F80",
"Q c #848182",
"! c #898687",
/* pixels */
"dKHHGFHFHFSHSSHrgTUIIIILLLKKHHLkrEREEEEWQQQQQQQAH!QQQQQQQQQWEWE0",
"0KPPPLLLLLLLLKLeqAFFFCFFCCSCSVSu+CHAAHHAAHFHAHFptJFGGHHGAGGJGJV-",
"0CHAFFFFSFSFSSSwqFFVSSSSSCCCVVCu%CAAACCAHAAHAHFpyHFHAHHAJGAAAGV;",
"4CGHGFFFFFFFHHSwqFFDFSSSSSSSSVSu%CACACHAAAAFHAApyFHFGAGGAGJGGGV;",
"0AFFFHFFSGFFSSHwqAFFFVSSSVSVSmSe%AACCAAAAAAAFFFpfAAAGAAHAGAGAGV<",
"4CGFFFFFFFFFSHSutAFSSFSSSSSSSVSu%NCCACCAAAAFAFFuyGGAAGAGGAGFFHB<",
"0CFFGFFDFGFSFSSuqADSSSSSVSVmSSSu%NCCCCAAAAAAAAFpyGAFAGAAAAFFFFV;",
"4CFFFFFFSSFFSSSwqADDDSSVSSVSVmSu%CCCCCCCVAAAAADuyAAAAAAGFFFFFFV;",
"0VFFFFDFGSFDSFFuqAFSSSSSSSSMSMDu%NAAAABABBAAZAZptAFAAFFAAFFFAFV;",
"4ZDFDDFFFSFSFSS80AFSSSSSMSSSVVDu%NABBAAAAAAAZZApdAZAZAZFFAAFDFV<",
"0BFDFDDDSFSFDSSuqASSSSVVSSMSVMDu%BBAABNZBABAZZVptAZAAFFZAFADFFM<",
"0CFDFDFDFSFSSSS80CSSSSSSMSSSSMVu%NANBBAZAABAVVDptAAZAVAAAAAFDFB<",
"4ZAADDDDDDDDSDF80CSVSSSSSSMSSSSu%NBBZBAZBAZZZZZptAZZVCZVCCCCZZM<",
"4BFADDFDFDDDDDSu0CGFFFDSDFSFFFGa%CAZAAAAAAAAAAZppAAAFVFFFFFFFFB1",
"3nZVZZVZVVVSSVS89bmvvmmcvmmmnmMu4BBZZBZBAZnBnnMu0nllbbbbbbbbvbx&",
"ft777788787878w8rhdddahhhhhhjhhx2Xooooo&$o&&$&&6dpttrreirrriiriN",
"BYLKLLLLGKKJJJKcrUWRWEREWWRWWTWDdVcmNcmmNccckkkkCTQQQQQQQQQQQQQY",
"4AGGJJFHGGGGGGGp:FIIIIIPPIPPPPUscEWRRRTTTTTYUUUdzAHHAGHGAGFGGAJs",
"0BVVVVVVSMMSVVSp:AIIIIIPIIIIPPIvrJPKLLKKKKKGJKG7CABBVBVBZBZBVBZs",
"wBZVSVSSSSSSSSFp:CIPPPPPPPPPPPIsrLPKLLPKKKKLJKJwNFACBVVVBZVZVZZs",
"wnSVSVSVSMSMSSDp;APLPPLLPPPPPLIjrKLKKPKKKKKJJKG7NHBZBVBZVVVVVVZs",
"0bSVVSVSSSSSSSDp%APPPLLLPKKPLLIxrKKKKKKKKKKJJJG7BAAAVBVVVMVVVVZs",
"0nSVSVSVSMSSSSDa>APKKPLPPPKPKKPjqKLKKKGKKKGJJJH7NHZBBVVBBVVVVVZs",
"0nVSMSMVSSMMSSDp%APKPPKKKPKKPKLxrKLKKKKKGKGJHGG7NHBBVBBVVBBVVBVa",
"9nVVMSVVVMSSSMSu,ZLLLKLKKLKKKKPjrHKKKKJJJJJJGGG7NGVBMVBVMVVMVVVs",
"9nVVVSVVVSSMSMSu2ZLJKKKKKKKKKKKxrHKKHJKJGJGGGGG7NGVVBBMMVnBVnVVs",
"wbVMVMSVSMSMSSVu3ZKJKJKJKKKKKKLjqKHHGGGGGJJGFGF9NAVBBBBBnMBMVnVa",
"0bVVVMMMMSMSMVSu3ZKJKJJJKKGKJJKjrHLHHJGJHGGJHGF7NFVBMMBMnVMVMMVa",
"9nVMMVVVMSMMSMSu0ZKGJJJJGJJJJJKjqGGGJHGHGGFFFGF7NAZBbMBMMMnMMMVs",
"9nVVVVVVSSSZSSDutZKKKKKKKKKJKKLjqGJGGGGGGGGFFGF7NHZBBMBBBBBBVnVs",
"4kbvvvbvsvvbvbm83llvblbbblbbvvvutJKKJKJJGGGGGJGwfbllcbvbvbbvbvbp",
"79errirpppppuewwtpqqeeerrptpddjeqjjjxjjjljjxjjj5rr0ww99977777767",
"yYRRRRRRRERRRYYkCQRTTTTTUTTRRRRudKHHHHHHGFFSSHSigYUIIIILIIIILLIN",
"4AAAAAAAAHAHFJJprHHJJJJJJHHHSHS=qKPPPLLLKPKLKLLwtSHSFFSHFHFSSHKx",
",CAAAAAAAAAAFFGptHHFFJJJJJHHHHS5qAFFFFFSFDDDSSF7yHSSFSSSSSCVSVSd",
",NAAAAAAAGHFAFFptHFFFGHHJJJSHHS70AHFFGFFFFGDFFF8yHSSSFSSSSSCSSSi",
",NAAAAAAAAAHFAFpyHFFHFHHGJHHHHS70SGFFFFFDFDGFFF5tAFSSSSSSSSSmVSu",
",CCCAZAAAAAAAAFptHFFSHFFSJJSSHS60FFFGFFFGFFFFFF7yAFSSFSCVSVMSVSu",
",CCCCCAAAAAAAFDptHAFFFHSHSJSFFS60AGDFFFFFFFDDDD8qAAASSSSSSVSSSSi",
"3NCCAAAAZAAAZFDptFFAFFSHSHHHHSS50CFFFFFFFDFFDFD7yCSSFSCSSVSSMSSd",
"3NCCCCCCAAAAACZptAZAAFAFFFFFFFS50AAFFDFDFFFDDDF7tSSSSSSSSSSMSMSh",
"4BCBBCCBBACCZZDptAAAAADAFAFFFFV50CFAFDDFDDFDDDF8qFFFSSSSSVSMSSHx",
"3BCCCBCCAACABZAptZZAAAAAFFFFFFB10ZFDFFFDDDDDDDD7yCSSSSSSSSSSSSKj",
"3NCBCCCBBABAAAAttZZAZADAZZZAAFV10VFDDDDFFFDDDDZ8qCSSSSSSSMMSSSJx",
"2BZBBBBCVBVBVVFutAVVZZZZZZAZSSV10BDZDFDDDDDDZDD8yAVSSSSSSSVSMSHj",
"4ZZZCCCCAVAAAFGitAAAFAAFFFAFFSV10AFZDDDDDDDDDDD8qADFSSSSSSSSSSLx",
"4fllzfyzjbjblnb80llzllllvljccbk*4BVVVVMVVVMMVMM60bvvcvcxxxxxxxmu",
"241332,t2726622ptfdddddpdddddddcgyewe9e7wweerphprhriiiidhhjcccch",
"$PEEEEEEEEEEEEWEdYQQQQQQQQQQWERFyYILILLLLKKPIIUxqUUUYYEEYEEEEEEM",
" nJAJHAJJAJJJJJB<zFAFHFFFFFFHSS<4HLLLLJKJJLKIPLp:FILPPKLKKPPKPPs",
".yBzBBbNNBBBBzBl7fVVZZZVVVZZCSM=4JJJJJHHJKKLLIPp:HIIPPPPPPPPPPPl",
"$gZZBBBZBBBBZZZl7kAZAFAAFAZACSC#4JLJLLLLKLLLLPKp:FIPPPPPPPPIPPPs",
"%NZzZBBBBVBBBZBl6kVAFFFFFASSCFM@3HHJLJLLLKPKLLKp:FPPPPLLPPPPPLPs",
"2zZBBNnnBBBMBBBl6kACFFFFFFFCCSV@3HLJJLJLKKKPLLKp:HPPKPLLKPKPLPLl",
"%zZBNNbnnBBBBBZl6jVSFFFFFSAFSCV#4HHHJJJKKKKKKLKp:APKPLLLPPPKLKPs",
"%gbzbBnNBnBnnnBx7gVBSFFDDFSSSSB#,HJJJJJKKKKKKLJp:APKKLLLKKPKKKKl",
"$fBbbBzBnnBBBnBj7hBVZAFFFSSFVZM@3AHHHJJJJJKKKKKp%APKKPKKKPKKKKPs",
"$ybNzbBBnnznnBBx7fVBVFFFSFSCZZV#3HHHHHJJJJJJJKJp,AKKKKKKKKKKKKKs",
",fNzBNbNzBnnnnVj7fBBVAFDFCDSVDM#,AHHHHHJJJJJJJJp:AKKKKKKKKKKKKKs",
"3bBbbbbNBznnnBVs7hVBVZDFFSVFVZM#3AHHHHHHJJHJJKJt%CKJJKKKKKKGKGKl",
"4BBNzbbbnznnBVVj7fBnCSSSSSCVSZM#3AAHHHHHHHHHGGGp,CJJJJJJJJJJGGJs",
"tZZZBnnbnnnBVVVa7gBVCSHSFFFSDDM#3HJJHHHHJJHKJKJp,AKJKKKKKKKKKKLf",
"tAAHAZZZBVZZFFFa9pbxcxxxxxxxssaX%tyzzyygjjfhjjf8Odzkjkljlllllllt",
"tllfhfpppppsjjs69619weuerueet0tttttyyyyytddddddzNfdddddddppftpp8"
};
