/* XPM */
static char *result[] = {
/* columns rows colors chars-per-pixel */
"64 64 78 1 ",
"  c #0C0504",
". c #100706",
"X c #120907",
"o c #160B09",
"O c #1A0E0B",
"+ c #1D110D",
"@ c #1F1411",
"# c #21130E",
"$ c #241611",
"% c #281711",
"& c #271813",
"* c #2C1B15",
"= c #2D1E18",
"- c #311E17",
"; c #311F18",
": c #35221A",
"> c #3A261D",
", c #3E281F",
"< c #372620",
"1 c #3A2720",
"2 c #3E2921",
"3 c #432D23",
"4 c #482F25",
"5 c #463026",
"6 c #493126",
"7 c #453129",
"8 c #4C342A",
"9 c #4F382E",
"0 c #51372C",
"q c #53392E",
"w c #553C31",
"e c #593E32",
"r c #574035",
"t c #5D4235",
"y c #5D4439",
"u c #614437",
"i c #624639",
"p c #65493C",
"a c #694C3E",
"s c #654C41",
"d c #6B4E41",
"f c #6E5143",
"g c #6E5549",
"h c #725445",
"j c #745649",
"k c #76594B",
"l c #7A5C4D",
"z c #7C5E51",
"x c #7E6152",
"c c #80604F",
"v c #826455",
"b c #876857",
"n c #846659",
"m c #86695A",
"M c #8A6C5C",
"N c #8E705F",
"B c #90715F",
"V c #8C6F60",
"C c #8E7162",
"Z c #927464",
"A c #967867",
"S c #987967",
"D c #937768",
"F c #967969",
"G c #9A7D6C",
"H c #9B7F70",
"J c #9E806F",
"K c #9E8272",
"L c #A18575",
"P c #A58976",
"I c #A38778",
"U c #A58A7A",
"Y c #A98E7D",
"T c #AB907F",
"R c #AD9383",
"E c #B09787",
"W c #B39A8A",
"Q c #BBA291",
/* pixels */
"p7<20szVzsisi5*+&-6q:8pq,:# Xo=ilclhuaka>#..o+O>,3thMGGHGh2w8scf",
":&>>34szzhy0w;*16,4q,3ti8>-%#-6taklp83wq;+. ..X-;3iMGLGGBj;;enni",
"rw7>2;2sy92;>;40q6qapp89e889=#>6q06,>+%;**.   XO%-tvMZZnvj3,wllw",
"Dd2302;5217*$4te03illw:+%:t0O O;,:#OOX.o%*.oOXXO%-qlnMmczkiuiji2",
"n92ey2$0053#;ifdiittpe:*O%9>  O>,3>OO$$@##O;33303,ilnznmvhpde03*",
"77wsi3*182;>pcclkmkiippi=O+o  X:344$3t<;-*1wshvVMdnVnmZmdhhy3$oo",
"Vxrjzs2;3<;0dcblfvbMvvvl,X    o+=*;3dzp8qujccVGHLFLRULDcpft4:+oo",
"VVgZDm5if5>0fkh4@&7slvvj3X oO*2,>230fjyq0icBBDHRIKLIGmnzdt6wyw3<",
"jsjZnd<pck3*;<;+   +2sf7;#$3qwysphdw:ygksicGVVHHHHFDVVVVnnjkxjyy",
"hipmxyelVz8&Oo+.   O+&=O%%*3ushljeip737sfecFnlDHHHVnnVmVCGZmvfti",
"ljhkd7icVfss3#oo#Oo&&+X .O*38ikvjipusknzgdlZnjVVZCVzkcMnCGMzMkhk",
"Bzhddeewe97ew81#+++;>,:X  o3wwsnVcjdgdnVczcVDFHnzznzlnvMZZlajjzM",
"lkkaeee385%O+&;*+$&@%=$X   %04wknzdhkklknnnVGHCVVzvgfhjxnvhpflvv",
"wte446w0q4332933rgf3$O...$o$0eehkhdgffkvVVVVDZVVVVMlvkfkzjlhlvMM",
"%>30iai0,4essdyzKIv83,;>:3%<sieijje79hfgznnnVMzcVVzhmMvlhhfafknv",
"%*3dhjde4ekmvkVREYzuiaadii*>fdkBVzs0:ee90kcncjlkVFCzDKDHVzewpzmw",
"3q7mljxjtzSHZvIERGxjhjvMlf;<jcbSCzf3&:7w39szdaldfvZHRKDCVCgsflj2",
"ye7xklvzjBHPGcKYHZnzjpkMncq3jnnvjdl9:qepzCHHjyng<<enFCVg7rgsti8:",
"vvgsklkjkZHLv9jDzspdafhhzne:szvMvMn2#:qkDKLZzkgfese7<<78wzxkr1>r",
"MMMMDCnvBSSAj0knhddyajfhcls3qvCDZCk&$4fnxljdlCVgszVk2OX$sKRRxihx",
"MBMAGDvvVDZMfdkkfdddknvzzksefVDZGFg@*9hjr90wfmHKDs728@ $yxJUKZnv",
"cllmnmmZDVmnkdisdfswiddjkzdesfkyys<@$*:*&<4sxxVVx7@O@+*exCyrxxzl",
"hlxlkjvDnfhlldifdw5esiisdhs99wfe&o  .o o+$*:::239:$o $9yDKx,2qtg",
">>,7izFVdydjspdddeeiie04749esefd<  XO$&*&$@oX.XXO$;$@$wyxxg8yzgy",
"p8>&>gnCmmVnsijczhsetw83334adwut2@O#>tfatiq,:###*&%%::====&=rNJx",
"vjgw9kxZCnCCvcvvnje5ww84334qq444>:>,ekbkhcvhiqqqpp,,:++&22>==gxx",
"vlzjljjlkzCGGMvzcldpfu43443,--34770,ekxqijlxaaaialaa8:,ixgr<:7xK",
"GNCzCxptylMMMvjiepeqqw03,403;-,433quq8ifaq9ttaiutphkiifbkspr27sJ",
"AMCzCClflnMCZvMMczkspe0>%-33340eq8808:>eaaccjy080qhvbxNZr>yi2,dM",
"ZMZmvlhhlxvvMMSLFDVcMvnzt3;-3wdlaqei3:%:rglaaaitrtacNZUJs,5py52y",
"YLRKvnmmZHKFDAGJGGSVBMVGnki3-0uaq8e0-3-#:qttthvkteaxkNZMnkfyr8==",
"YKRRLRLKLYYRYIGLUHDDCnlMvjp0,4ae46u3-8q3%#%,quaapaxbvNxlmmp26r&:",
"KNIULKJJKLILPPLLIHGLGMjlft0328rdquca3qee6>**%%,,qlxxcbcate>>0e,6",
"ZxIUKJJLUPLMZJGGGZZAMvjffla23dzCaidu40eue0:::4uazxaiaacki,&=6qq9",
"nzFKJJGCGGASKUYIIHBMMvvvbJMr23tgalcpq40euuuae3:38rqrqquaury1:38-",
"yqjjjkgyvGLLYRRPTPZAASANZLGvxs40hclau84euuaauu6%O%3,6teiMANpihd>",
"8,tjjyrqfkmCGKKLUGAVNZJZAIETRFdeaaiaa3,8quaalbci>%##:8ualllyiklr",
"9pgNCNky3:<23qgZSju78rtyvLTYRLnsaaula,,8tacbNbNbh5#O#:tlvbxsplka",
"CKFZAvpq8qsfkvMGBp030typhCSmlhuuaaava,:3qilbSASBxr3#oo%rxAFKmblw",
"mMDZCCltqfMmAZCCMljajvbbvvjphaeueqaa0,,4,3rakbbblt63*OXO=9gCCvv7",
"zxmFKLGVjlDCvjzMvjhMvkbBbluuhhuaautee3,,34qq6338euuue:%Ooo+$=29*",
"xnVDLIUVfsVMlhjfsdilMhiacaueuaaiuaapau33eaaautuuutuajue4>&+X .O.",
"zVVDLIILGzshw32;$@=wlp0ua6:>6uaieeuue04talccccccluuakjhur6:%#@:@",
"zxxCBDDKLmhzxg8=*#*8088qu64,-:>8,438queujkcbBBGBBlauaupeqq40qrj9",
"knFDBBmmAzvBGGa0q86:6ie80,%OO#-:-+-4qaiplaacbSPPZBjhjuetiiqqfxmj",
"flVGVVVVnnvkZGMkaq,%-qxlu0*OXXO*3;;4eqehchacBJPYLSbcllkclauefmZM",
"wslBBHYGmvvdMVMbvci36jcba3----#%404euahaaauubGPYPSSGBBMlkhhptkvc",
"ypfzmLWIZFGFFllMGbhapbAZaauq04%%--;,qbvhccaeucBBSSSZMvbljhckaafh",
"ddhe3pDUKKKEYZMKGMvvMASAkhuja0-,,,,0pxxymMkaalljjvldt0phtqkvllhl",
"zhsy77wkgFRRKKmdavMCZZLGMljccuq63qpaypxxlNmaahlaeq44438ee65qiaah",
"MVnnMd33sCFKCJxlvikcMBAMlhchaaa0>6pjglmKlCUNjaahjky3,qt3qq:,eahi",
"slvDUma0<:<22r2rjaalGZvbjalqqaue360apaxKlgBSZZhiidjaiuiqqq,%*>65",
"34tDEKlu48,>==>2334qacbbjaap6qu0>,3077kKmfplJYJNvvvkhihht0q33688",
"q38lDGMfuaaaaypghau83ecauuupuupu3#:kmgyprfafJPNNLJvhhi8irttqei8*",
"vdweilvdaklvbbxlbvlhe8quuaaaaaaat:%2sgw2,fvhxZbcMJCtiaequaht,3,%",
"DZf747eetpkMBBxalcclje4eacBJPcae0696=@++#wvxcNbZZZAhaljhlchi,%##",
"kZx7>;<rttkmNbyiaakca0-3hbLJBaljatklt>3qq0ulvNAJvcbcjcchch0:-#+o",
"rxmr29sgtuxxNmbmxlllaq-*qlBMZlbbvccke6uaaaaclbxkvjlhlcalljaq06>%",
"ygxCFKKxu8rykmAJSMcaq;#-qylNJBxcbxar3tiuaaha4>:*:,euhchcllhaur5:",
"tyDRKRWKbmdrraxMAZvi,-:qajlxNbxbMbcxajllaapt6334484euhjcBSbxt,:-",
"22lDZgZs277rhlxvMfprqtihlkahakbNvbbBchlbjMBlaaaaaaiiuhjbbvclhar6",
"r9gCf7d>*,7fvvkphrjlllNNxhlMvcvvbBMSBbcMlBJJBBMbcccjaacci88ahlck",
"jiyy:*>-5taxZh85i8hlagbNNmbBli58kbcbBcjlcJTTYBBBBBBBccchiu0qrhcl",
"lktq%=*,rphzMprpathbi9iiycNj6:-:ep0rhacjbYQQWBBBJJGSbvMcauuuq80t"
};
