/* XPM */
static char *result[] = {
/* columns rows colors chars-per-pixel */
"64 64 134 2 ",
"   c #606060",
".  c gray38",
"X  c #646464",
"o  c #656565",
"O  c DimGray",
"+  c #6A6A6A",
"@  c #6C6C6C",
"#  c gray43",
"$  c #6F6F6F",
"%  c gray44",
"&  c #717171",
"*  c #727272",
"=  c gray45",
"-  c #747474",
";  c gray46",
":  c #767676",
">  c #777777",
",  c gray47",
"<  c #797979",
"1  c gray48",
"2  c #7B7B7B",
"3  c #7C7C7C",
"4  c gray49",
"5  c #7E7E7E",
"6  c gray50",
"7  c #808080",
"8  c #818181",
"9  c gray51",
"0  c #838383",
"q  c #848484",
"w  c gray52",
"e  c #868686",
"r  c gray53",
"t  c #888888",
"y  c #898989",
"u  c gray54",
"i  c #8B8B8B",
"p  c gray55",
"a  c #8D8D8D",
"s  c #8E8E8E",
"d  c gray56",
"f  c #909090",
"g  c gray57",
"h  c #929292",
"j  c #939393",
"k  c gray58",
"l  c #959595",
"z  c gray59",
"x  c #979797",
"c  c #989898",
"v  c gray60",
"b  c #9A9A9A",
"n  c #9B9B9B",
"m  c gray61",
"M  c #9D9D9D",
"N  c gray62",
"B  c #9F9F9F",
"V  c #A0A0A0",
"C  c gray63",
"Z  c #A2A2A2",
"A  c gray64",
"S  c #A4A4A4",
"D  c #A5A5A5",
"F  c gray65",
"G  c #A7A7A7",
"H  c gray66",
"J  c #A9A9A9",
"K  c #AAAAAA",
"L  c gray67",
"P  c #ACACAC",
"I  c gray68",
"U  c #AEAEAE",
"Y  c #AFAFAF",
"T  c gray69",
"R  c #B1B1B1",
"E  c #B2B2B2",
"W  c gray70",
"Q  c #B4B4B4",
"!  c gray71",
"~  c #B6B6B6",
"^  c #B7B7B7",
"/  c gray72",
"(  c #B9B9B9",
")  c gray73",
"_  c #BBBBBB",
"`  c #BCBCBC",
"'  c gray74",
"]  c gray",
"[  c gray75",
"{  c #C0C0C0",
"}  c #C1C1C1",
"|  c gray76",
" . c #C3C3C3",
".. c gray77",
"X. c #C5C5C5",
"o. c #C6C6C6",
"O. c gray78",
"+. c #C8C8C8",
"@. c gray79",
"#. c #CACACA",
"$. c #CBCBCB",
"%. c gray80",
"&. c #CDCDCD",
"*. c #CECECE",
"=. c gray81",
"-. c #D0D0D0",
";. c gray82",
":. c #D2D2D2",
">. c LightGray",
",. c gray83",
"<. c #D5D5D5",
"1. c gray84",
"2. c #D7D7D7",
"3. c #D8D8D8",
"4. c gray85",
"5. c #DADADA",
"6. c gray86",
"7. c gainsboro",
"8. c #DDDDDD",
"9. c gray87",
"0. c #DFDFDF",
"q. c gray88",
"w. c #E1E1E1",
"e. c #E2E2E2",
"r. c gray89",
"t. c #E4E4E4",
"y. c gray90",
"u. c #E6E6E6",
"i. c #E7E7E7",
"p. c gray91",
"a. c #E9E9E9",
"s. c #EAEAEA",
"d. c gray92",
"f. c gray94",
/* pixels */
"i k h J 3 q 5 K R / { h a y z +.I C t d d S Y K J ;.1.~ =.n m X.4.l n %.+.g 4 N j @.P $.x Q  .m C } &.@.s ~ 8 Q ' +.5.g U m _ ~ ",
"M J 1 c I Q N a 6 u ' j c z i l N H > e j b a p p R &.0 g P E  .1.U K H #.M C S ^ b P y e U Z 8 z %.<.Q `  .K U z U &.d N a F D ",
"A V U z 2.X.d q c 8 B J $. .c j j B f h s j c H D z 8 e Y ;.q.9.' u >.$.u 6 M x g Q B t 0 S y K D =.0.;..._ O.u w Q x Z Y x B V ",
"V f z d O.~ k n N N E F 6.( S g f ..Y j / ] | v m ] j j N O.2.( C G <.} G ( +.R h z z l F =.b g S n { 1._  .K V [ ! y j / I H B ",
"G u 3 b ( N p r S W G q j h b x M L ) D R h d l L I z 6 3 D ) #.A | 1.x s Z N 4 s X.u D L *.J f V s ! 3.>.L ` 5.{ ~ ..+.{ U K q ",
"i d d 7 w N C d _ ^ #.m g : d d f i a m G Y X.o.} v ) t 6 j c o.e r ;.Y j b M ; 5 =.,.X.g w g e r } Z $.0.m X.1...G b C V G E j ",
"4 g > z e d c A G N F N n c D z m Q ) ~ Y [ I $.J G B h G N *.2...&.A ' b ) y ; z q f x r g M 1 < j g h @.L ` S =.F N 9 b B c C ",
"> v 0 F K l m Z G Z v v D n  .X.T R ) 2.:.-.B G j p v 6 B D F ,.7.-.&.%.) J t w a + - b $ 2 S T 9 k 8 n R =.b Q ! L g w u A P } ",
"g P j U P v c V w n Z r [ F ` ....J :.9.R ' E e l u k 9 S F $.:. .V n C c B D [ M t 0 1 & q D O.b ` / R 1.@.C O.:.o.X.h 6 f M a ",
"a R ! ! h n b R k z ! G j e N I E =.R  .] Q B m M f v 9 J <.W Z k w P n g D R X.t l N y , c g M _ k M ^ ,.^ Q I #.P K F s v K 1 ",
"` *.U N d O.M n H P 8.2.K q Z S B Z w U ( Q | [ | M 9 w z ] &.1.:.S ~ } n E  .W a e x f K k ..A z ] q ! Y R ' H I C I %.L d 6 n ",
"O.Y Y v k B b M *.4.,./ X.c S L T | i c $._ >.W O.R j y ..:...q.%.,.,.e.K U } g N l N %.5.:.~ m r H W U H G 2.#.,.! V F Z I * t ",
"P x B c ( / c F ..<.F I { n ( p v k 0 r ! ..&.} p w E W M c $.e.( F ` :.F m %.E _ i l 4.>.L A z R <.$.m } 7.w...W ` K q p F a F ",
"6 x ` _ P $.b E D K Z Z 6.;.S a R G v L l z U ) p s -.1.^ 1.w...P ' :.~ I O.#.] #.@.e P ;.Z >.P @.#.w.9.d.p.8.6.x G 9 q ] ^ O.U ",
"T ~ ^ z Y X.J ,.| +.{ _ [ I g A D ..R P -.O.k y j m ! 0.,.y.&.) B n P %.q.%.N z L O.G J  .b [ _ 5.' ^ 3.&.` $.^ #.E ) F U T U e ",
"A Q I f ^ { P _ #.,.c %./ T H { 7 K ' G  .! %.Y $.J R T m =.S Q D 6...I +.N l 9 P -.P z W $.W q.q.! ) I { :.` 0 D %.@.@.S e F n ",
"e 9 H f T E t z v ;.Y H ~ H S } l c N B x | / 2 U | ~ { G ' ,.%.4.9.C / } ! Z f s } o.Z j +.L w.a.2.R O.7.y.#.V G S ) p 5 a G ' ",
"y B S j K @.M +.$.F { h M K ! N A L U d e a C b _ i A +.2.0.6.] S #.*.@.o.>.! *.#.W <.=.Y P ( 1.*.+.*.Y ] =.B Z ' ;.[ 0 q Q t +.",
"7 4 Y H h O.5.2.[ r b H y L b W g i J x z 5 T n  .W F / :.U 9.$.;.` ) O.! $...4.o.Z <.,.*.[ G <.O.] O.+.H E L X.E ( V d P l , i ",
"$ < f Y T #.! ] ;.' z p v p f f 2 3 d 6 P t c ' Z F F c K l ` q.i.2.D f L 5.1.>.x Z L ` N { ) #...k <.9.-.8.@.5.~ ~ Q ) { W w j ",
"& > u L k ! ( U G ~ @.k V a l v , 1 q / +.L Y  .) M ~ ' o.4.:.f.a.@.9.L H ] =.2.l -.,.) -.6.] ~ 4 p Y 8.0.6. .' S } n { t M V s ",
"P m 5 c J k z ( ! I b G Y C f y 0 s d +.L L q 3 u M @./ d P E 1.2.R %.n ~ b M X.R @.o.,.l <.5.&.v K h 1.) [ P %.E ~ B #.* 1 D _ ",
"R P V ' ..D ~ o.y d x i V j y p q 3 n h a &.u J n ` U D J P ~ T N O.5.P @.@.` ] A ' 0.1.S X._ $.m f a 2.+.@.` -.W X.W Q u Z 3 , ",
"d 7 V D ..x O.B Z _ R q 7 D x S 8 $ y 4 L $.8 r K G *.J Z e < ] { X./ m i o.| Z p C  .E =.Y %.z k A Z &.P } ( ^ $.D T _ L J f K ",
"5 8 r I _ G E G O.&.| =.I B z j S t ~ 7 P z 8 N ] Y -.b +.A f @.( z 5 Z f %...( / R F #.7.-._ e { m J K I T X.( V ! J  .m T $.` ",
"B ] @.X.! Z ~ >.>.,.F k k A B R r e p 2 5 4 2 3 e n 1.C Z P Q f { ` h W ! &.0.{ O.=.%.$.{ 6.0.&.m ~ A c X.O.$.W i i T I ..2.` M ",
"#.Y %.Y B K C 1.) K s Q W >.H E m W g E w , p u p L 3.%.Y { ;.B ' v I -.} -.:.F P :.2.a.9.r.-.5.1.T b C Y n E z i N +.] *.;.A k ",
"~ h c r B F A >.:.l z X.{  .l ^ @.n M E f t C P W S _ M h N -._ L v D %.^ | @...U ( %.3. .' / N <.#.,.I 3.| <.} ^ ) J l H m s 3 ",
"^ g z p A F H g z ] z Q ~ W Z b ` k ` G N z O.S p ] -.} N u x O.U E X.^ H b A f v ( n J g Y a ^ H :.a.1.X.X.$.u.3.T J N n { t V ",
"n g j 8 B n B k e V v l @.T z 9 p h ( C x p w 7 4 q x b l s < t z ,.$.K s a v p ) F n $.^ _ ;.G ( 9.9._ S Z | @.-.N r l D z v H ",
"n m j L +.K U z *.=.@.$.0.3.W m k &.D k a z e w 3 +.T @...} X.Z 5 0 s C 3  .z m ' L >.9.9.a.w.:.N 0.Y S Z x V =.=.R k Y } U P M ",
"Z K A L _ M d A O.O.#.*...%.} -.4.3.S S x e x { _ ,.*.L Q 4.=.U ] m | ] ..Q i U ;.W ` #.w.*.-.1.+.;.n | R ( G A z I +.H Y ` ' W ",
"_ W { d #.( Q Z N W ! Y a k <.` ..G M v z w H g G -.! r V v A >.&.U E _ ' ! E x 3.1.$.*.;.<.q.4._ L ~ Q :. .b *.A V -.C / J C :.",
"$._ .._ Z C x D d R K  .b j 4.1. .k L Y =.E m l B 1.$.g h (  .=.~ Q ..-.' I Q H $.I U X.o.G S *.S v U '  .S G #.>.2.<.( %.W G B ",
"' O.D >.=.U j f y F p u p p b o.l I ' E L E j z F @.4.^ ..j k i z :.W M ~ j j / E g #.4.{ g 7 @.-.N +.y.;.*.W T v F S $.H ! _ K ",
"I B d ^ S t a z F a m h u S H T K g u l e ~ j X.] _ :.W D Y C B H S E F g o.2.2.} X.4.4.*.2.S K / A ] 8.,.V R M g D S >.:.:.P X.",
"W I O.J 1 C a C x c V H S z a q / L X.X.i t d :.` &.o.] E { 9 4 H *.O.{ r :.y.1.f 2.d.5.F e.3.g s [ M / #.I | C ! 1.D ^ { b G *.",
"e &.8.~ U O.M z p e ; g b l S P E U H F i u n z j n t h y , B Q | Q ( 5.#.t.@.J $./ 9.q.6.i.:.n 4 V l 5 M P } E 6.w.,.$.J 8 T I ",
"q | +.O.^ l g r h e 0 t t y l z B C J W v s k ! ) #.U A d < 5 u 3.[ b n ~ @.+.Y ' P >.T t.3.U O.D C 5 p s A W 1.r.O.~ ;.D #.A F ",
"w p V P C H f y e v T k i y H N  .*.W '  .Q _ %.D ( I +.M * r A o.l S +.T ! n f ` ' 2.&.%./ c =.] $.N I I H n 1.>.' x ! ;.W :.{ ",
"| h w a 6 6 8 ! c a / A z a v y +.7.I j R ! N ~ N x d N G - 4 ; 9 1 !  .O.=.[ [ L ) D %.&.) A R 2.*.Z B W #.&.I ] L y C ;.{ w.2.",
"0 9 @.Q G P ] I E H k 8 f Y m n ' ( B W / _ x 8 ; i O % 0 = w ~ / q 1 Q K d r ~ F  .4.6.:.J L Q ] D z d o.p.e.u.i.&.9 s W ;.-.F ",
"< z S [ | t B _ / j z Q ^ ] A l A b k Z , k M I @ #   . Z f o.{ c T p L $.z n M n e V L E L ' &.X.C R v >.6.y.q.@.1.p i S _ M ) ",
"3 y j D J r J _ G G N M S +.-.' B J T u = ` k w 8 S & 1 M * C W U ' ! c L A j r y ! <.&.k f w e 9 d <.5.| ' ..<.D W j x i Z s > ",
"5 ' c r b r m J 8 x u b Z / Y n y h u u : , 6 I F D a ~ d * ] >._ y Q d g G / V ( | s.:.R W 9 N u M ' w.,.| 9.3.F ~ L o.i f / < ",
"z U r k P J V t s ( P D #.@.A u l a x 0 l G 1 1 9 1 z ' 0 X 3 = : H @.o.] $.A q k  .~ 1.X.C g #.Y C n @.Z ..q.{ ^ 3.U k v P i & ",
"e ( i & B j m N X.( ) v D D z 5 k 0 h 6 i s 6 A k 8 l e S 0 r 9 0 B ..b f L ] R Y P ) Z A 6 X.A :.} { F _ #.D ! 4.-.K m < 7 I P ",
"U M C y 7 N a ~ S s B x M H i g N g M Z _ V & ; * f , = q : * | t A ) h v i { T P G ' E ..j $.:.$.~ b h ! F T >.*.D P y 4 b U [ ",
"+.{ d 8 F _ v F R #.P B f M i Z ) { g ) t 4 3 5 - x 5 w : 4 t ] E | D } Y I *.C f )  .p P G S A ( &.R v C U %.#.A ~ _ :.} *.} X.",
"g ( e g y a *.N z n U j n S ~ Z x R Z V 7 : d s S S F p B d R f b #.W V N Y Y T J L A 9 _ o.) ! d z g j %.{ 5.I y C *.#.&.8.#.d ",
"p p K &.L / } Q l x H z l b b w 0 g x ( P p v g e 8 a s O.y c i d H u u d t g l v 8 Z p 5 y D T 3 P Q B @.T ~ I N a  .I f i V 8 ",
"q z Z T ,...X.G  .&.y I p h ..s %.o.:.] M ` %.b s * e Z L c m k c X.u f B Z D c x n  .5 e / v x p k z A -.j ( o.Y L G L I +.Q m ",
"c v j E %.F X.x t ..E z s k i a  .C >.L f ` ) 4 / H L i F P F E I I z r { T E C N I +., z @.B -.o.q h W K P { W j F ' A G I ] h ",
"c D f { o.n ! +.( m ! H d q t z m F G g h L I z I H Z z ( e.+.$.*.~ l n U [ } +.z g w 5 S W ) [ B k T _ / M G ( y f a z B n n 9 ",
"k D ` I I z m N ,.H Y L < 9 ' m e Y e t u i T %.$.{ E J ,.q.O.c G [ E G W o.%.T A Z 1 M ( f ] *.K r m $.o.=.l } H l z m M m I n ",
"Y C F b M s j n =.$.I L L j K d x A A Z k q Z B g L 4 ] Q <.+.&.X.f S [ &.O.1.V 0 i ; * d 8 j s v X.U d w >.x *.U N v c P P F z ",
"i Z #.S B p a / / ' N v j x N N ` J ] l H C f f 1 ..I D q M z =.1.y c C A s  .b n K p 0 | J Q D u U ` %.d %.i r n ^ F g V W k 5 ",
"> / Y b A 0 V ( o.A Z v z L J m r g i P u 4 n H m [ ,.W 5 s 5 ) ` { r p G -.o.Q M %.~ 9 W A y 9 E G D %._ D 5 , 2 M } r r z n M ",
"G 4.:.a h N s M ..U Y  .( b L A 0 t # p ] g v d E X.&.J y i j c +.n y I b ` j H h 0 Z S u J 4 o V ) w b n h i p y g l 2 s z b x ",
"$.] h t 4 Y = l g ) T k U c y v 2 3 d d W g / z ..<.B B m l d 9 D B D 0 V -.k F R r V Y a k f < s B ) ' / i r d N M w z P ) O.W ",
":.J e q h C g $.^ { S u V b c A j v f k f W t u p z g &./ O.K u s F F e H -.x M t E I W R y Z b ~ N V D T } z ! ! Y z G -.Q a C ",
"D c x s #.9.{ 2.:.I P N j a M F A N S c h M a x a I p 2.4.b B e 9 0 / A / 3.+.C 6 t p b a ; B G 1.~ P h C T +.R F 8.^ _ w.,.E W ",
"M N V d w.8.6.+.A ` I x U G / M j P P o.N x M v z 9 i -.7.A S ! 0 h v b x O.Z x ^ C v a _ u 9 ) 1.$.' ~  .b _ A T _ <...G A c ( ",
"b v j c ,.u.:.Z C 0 e r | ' P i O.m x s j +.C V +./ Y 5.( _ K P o.` _ W z 6 k y T j b ^ O.R I } ;.<.| T 2 y f n T W ..%.=.8 g T "
};
