/* XPM */
static char *result[] = {
/* columns rows colors chars-per-pixel */
"64 64 58 1 ",
"  c #0C0C0D",
". c #0F0F11",
"X c #100F11",
"o c #0F1012",
"O c #101011",
"+ c #221E1B",
"@ c #2F2828",
"# c #342D27",
"$ c #322B2C",
"% c #35312E",
"& c #312E33",
"* c #363432",
"= c #393533",
"- c #3C3937",
"; c #3A3438",
": c #3D3A39",
"> c #423A37",
", c #453B3B",
"< c #493D3E",
"1 c #46413E",
"2 c #48423F",
"3 c #473F40",
"4 c #474241",
"5 c #4A4544",
"6 c #4C4946",
"7 c #4E4649",
"8 c #4F4B49",
"9 c #524C4C",
"0 c #54504F",
"q c #4F4D56",
"w c #534E52",
"e c #514F59",
"r c #565252",
"t c #5A5555",
"y c #5C5956",
"u c #54525C",
"i c #5A565B",
"p c #5E5B5A",
"a c #615E5C",
"s c #64615E",
"d c #595761",
"f c #5C5A64",
"g c #5E5C69",
"h c #615E62",
"j c #666361",
"k c #696563",
"l c #6B6866",
"z c #666369",
"x c #69676A",
"c c #6D6B6A",
"v c #706E6D",
"b c #71706F",
"n c #6E6C71",
"m c #706F72",
"M c #747374",
"N c #787777",
"B c #797877",
"V c #7C7C7B",
/* pixels */
"rhMMBBBBBBBBBBBBBBBVBVVVBVVVVVVVVVVVVVVVVVVVVVVVVVVVVVVVVVVVBby ",
"5rjMMMbMBbBBMBBBBBBBBBBBBVVBVBVVVVVVVVVVVVVVVVVVVVVVVVVVVVVBvlr ",
"*6pjjjjjjjlljlzllllxclxllcccccccbccbcbbbcvvvBbvvvvBBvvvvBvvvzdqo",
"*:ajjjjsxxjjjjzjjjblxllllllxbllllccllbclccclblvvlcvvlvvvbvvvudqo",
"*:ajsjslMhjjlljjsMxjlljllljMxxlclccjbbjccccvknBkccvlvvvbMhccidqo",
"::ajjapxfsljjjlpxgpxsllllpxzacllccjxbpcclvcljbhsvcccvlsbflbcdiqo",
"*:sjs8iuhjjjjjp0ppjlljllyuppxlllckypykcxclcaaisvcccllsssjcccddqo",
"-:aj84rsjsjjlh48pjlsllla66allllxc04ujcxcllj5qjcccccvs2tsvcclddqo",
"*:pj0esjjjlsjs0pkksxkjla0alljbllltylclcclcsrscccccccatlvccvlpdqO",
"*:ajjjjjj0bbsjlzjxaaBkjllllcphBjlccllltMblccccclpNclvlvlccclpdeO",
"*:ajsssjjr6Bbjjjjkj6jVzkjlljl4lMlllllct0BclccclvyrMllcccccccddqO",
"*:pjjsssjl86bljjkjks:jbjjlllls1jxjlllll06xllcclcc09lkccccccldueX",
"*:ajsssjssj06fjjkjjks1eslljljls4rjlllllb06pxxllclc06pxcclcclfdeo",
"*:pjsszaxlskt0jjjjcxkj0pjljlblls0flljbclcprkclcclccprkclccclpde.",
"*:pjsssjMjsjljjjsbnjkkkjkxsMcjllljllbbzllclllcMzlclvlclcNzllfdqo",
"*:pjsapcgajjjjjpzxpjkkkkkacxhljllljjbfjllllljbzhclllclkMzhvxide.",
"*:pjs0yupjssjjpqppjjjjllaypdkkjllkpaijllllcaahplllclcajpfcllfdeX",
"*:pj040pjsjjjs66usjjljjs68ijkkljlt5wallllls79pcllllcs8walclldfeX",
"*:pj66pjsjjsjp6yjkjljjlp6pjkkljlk00jllcllla7hlllcllcp9jlllvlfdeX",
"*:fjjsjjstbcsjsjjjpjMjkjjlklalMjkklllkpMllllcllkaMclllcclclkffeX",
"*:psjsssj00Vxjjjjjs4bBskkkjks6bbkkkkll0yNlllllllraMlllllllllffeX",
"*:pssssssj40Mjjjjjky:lbsjkkkky1lxkklkll5tckllklll5tlklllllllddeX",
"*:pjassssjs40jsjjjkly1pzjkjjlky1pjklkklk68fklllllk69hllllcllfdeX",
"*:pjsasabxss0qjjscbjja6ujkjbbjla8pkklMkllr9zlkMckllrwjllMxlxfdeX",
"*:ajpjpcxpjjjsspsMhsjkjakslbhjjljjksMzjllcsssBnflllljljNnallffeX",
"*:pjseppujsssjsysuakjjkksykuslkkkkpzfplklsvsslykllllljkziklkfdeX",
"*:pjy600psjsss060aksjjjj00rskjkkka9rpkkllls00tklllllkrrtkllldguX",
"*:ps64ysjjjpjp:0ajjjjjky10sjkkjkk85pkkkksls1tslllklly4tllxllffeX",
"*:psypssppbssapsjjpccsjspjjkabljkajkkkjbklsslllslMkksslllllxdfu.",
"*:psssssj6jVjsjjjjp8Bbskjjjlp0Bbkkkkkk0cBsllslll0lMklllllllkgfe.",
"*:fsppjsjp:lMjsjjjj06Mxsjjljk80Mkjkkkla1svsvllsls1kxkllllklkffu.",
"*:psssssssp*pcpjjsjj66xsjjjjjk28zjjkkjla1plslslllp,pjkklkllxfdu.",
"*-papssspjsy,phsjaakk97hskkssks98fkjkkkla<thllhllla3thllkllkhfeX",
"*-pasaspblpjsrpjalmjskttkkalvkkkppkkjbkklaaakkvckkcsaslkvllkhfuX",
"*:psssplnfsssjssaMhssskssahNsskkksksbnhkkkllavNhkkllllkvMhlkffuX",
"*:pspyyjtsassssyhhpksksksalaakskkkssxikkkkkaavahlkkllhkcihlkgfuX",
"*:psp80rassssst0rtkhkkaat9tplskkkkrtrjkkkkktttakkkklkaa0acklffu.",
"*:ys6,rasspssp,6phsaaska<9akssskk8,rjkkkkka<9akkkkkka<0sllkkfgu.",
"*-pa0raspslssp0asssvkasatahsalksktykkjkckkatkkkkccklaaslkllhdgu.",
"*:ysasass8bMasjsskttVlakskskaaBkskkjkkrbvsklkkkkybckslkklkxhggu.",
"*:pspasast,bMssasss2pNjskakkk<aMjkskkla2bcskkkkla7vlkklkklkkhgeX",
"*:ysaaaaas0>lkasssks1tlsakkaka>axsksslst2kkkkkkkkr7halkkkklkhhuX",
"*-psaaaaaaj0,pzsssass5wfhkakska29hslssslr<ikkklhslr<ahkklklkgguX",
"%-ppaaaakkasy9pssalsssrtkakhlkksryksslcskarakkkckklathlkllkkgguX",
"*-paaaasMjaasssspMcsssksaaaMvsskkkkscMjskkksklNxkkkklkklNxhlfge.",
"*:paapylhysaasspjxysssssaakcasksksssmfskkslsavhakkkkkkhMhalkggu.",
"%-paartrtsaassprpwssssssaaaraakkssyprpkksslaattkkkkkkaaiahlhgguX",
"*-pa048taasssp67wassssss73wakkakkt59pkkskka87ahkkkkkh77alkxhfguX",
"*-pa22asasaasy10ssskaskt<aakakakk77skskkkkt<tkkkkkkkt3skkkkkaguX",
"%-yayasaatblaaassstkMakaahsaalMaksskskaMkskkkskaaNkkkskkkkkkfguX",
"*-yaaaaaa2yVlassssa<vMaassksa<vvsksskk9yvkkkkkkk7aMkkkkkkkkkgguX",
"*-yaaaaaaa10Msaassst>kcasakakr<kksksksk<tvaskksks,akskkkkkkkggiX",
"*-yaaaaaaaa18sssssajw<ikssssskt<akkskksa<7kskkkkks29akkkkkkzgguX",
"%-yaayayaaaa80aasassja3tkssakskt<pskskkkk99skkskkkk90akkjkkkgguX",
"*-yaysaabkasspaaalvssjsyssavvsssaakskNksskssksvcskkkakskMlkzgguX",
"*-yasyylnpaaaasasmhasasssakvhsskkksavkakskkksvmakksklkaMnakzghdX",
"%=taattarpaaaaatstysssssatatakssssaaatkksskaaktskkksksskwkkkfgiX",
"%=aaa79waaaaaa06wtssssssr99asssksa79wkksksst99aksskkstwwskkjfgdX",
"=>aa<,waaaaaay:6tsassast<3asssaak7<tssssskt<9skskskkt<wskkkkgguX",
"*=tartaaaaaaapysssssssjatksksskasyakkkskkkaykkkkkkkkaakkkkksggdX",
"*#1rwttwtttrttttwttttttwatttttttttytytyyttytttatytyyaayyiifiigdX",
"$#*,>>>,>>>>1->>,,>><><,>><<,,<<<<<<<<<<<<<<<<<<<<<<<<<<<<333gdX",
"#=,,3,,3,,,,,,,,3<<<><3<<<><<<<<<<<<<<<<<<<<<<<<<<<<<<<<<<33333X",
"+@#@@@@$@@$$$###@$@@$@$@@$$$@$$$$@$@@###$$$$##$$$###$$$$$$$&;3;X"
};
