/* XPM */
static char *result[] = {
/* columns rows colors chars-per-pixel */
"64 64 256 2 ",
"   c #1F231E",
".  c #2A3C0F",
"X  c #24281D",
"o  c #2A3918",
"O  c #313D1A",
"+  c #1D2425",
"@  c #1E242D",
"#  c #162A2B",
"$  c #1E2A2D",
"%  c #0C342F",
"&  c #16372C",
"*  c #1D2432",
"=  c #172C32",
"-  c #1D2B34",
";  c #1D253B",
":  c #1E2C3A",
">  c #0C3935",
",  c #1D3435",
"<  c #1B323A",
"1  c #163938",
"2  c #222825",
"3  c #21232C",
"4  c #222B2D",
"5  c #283929",
"6  c #202432",
"7  c #222C33",
"8  c #21293A",
"9  c #233334",
"0  c #243B34",
"q  c #253839",
"w  c #30410F",
"e  c #2D481B",
"r  c #33471A",
"t  c #3A551C",
"y  c #1A4E2C",
"u  c #0D443A",
"i  c #18483A",
"p  c #18543B",
"a  c #2A462A",
"s  c #364A27",
"d  c #2A552A",
"f  c #395728",
"g  c #254737",
"h  c #344B35",
"j  c #285639",
"k  c #375933",
"l  c #37652B",
"z  c #2B643B",
"x  c #386738",
"c  c #2F753B",
"v  c #3A7439",
"b  c #435B1B",
"n  c #48651A",
"m  c #457C1E",
"M  c #434D27",
"N  c #435A24",
"B  c #455829",
"V  c #485935",
"C  c #486527",
"Z  c #466837",
"A  c #4F6F33",
"S  c #497937",
"D  c #567B35",
"F  c #1C2845",
"G  c #0F3E43",
"H  c #173943",
"J  c #222A45",
"K  c #223542",
"L  c #243C44",
"P  c #0C4845",
"I  c #164845",
"U  c #144B44",
"Y  c #134E4B",
"T  c #185747",
"R  c #195955",
"E  c #244743",
"W  c #295648",
"Q  c #355646",
"!  c #275856",
"~  c #345650",
"^  c #1B644B",
"/  c #1A6857",
"(  c #1A7659",
")  c #286946",
"_  c #376945",
"`  c #28744A",
"'  c #35784A",
"]  c #266858",
"[  c #35675D",
"{  c #287859",
"}  c #357959",
"|  c #1B5B61",
" . c #275B62",
".. c #1A6963",
"X. c #1A7966",
"o. c #1F6C72",
"O. c #266A67",
"+. c #306A6A",
"@. c #297768",
"#. c #357869",
"$. c #2C7874",
"%. c #387A76",
"&. c #465A4C",
"*. c #4B6B4C",
"=. c #467A47",
"-. c #5B744A",
";. c #5E6E59",
":. c #58775A",
">. c #646F4F",
",. c #68774B",
"<. c #646D57",
"1. c #657757",
"2. c #4C7867",
"3. c #557668",
"4. c #487B75",
"5. c #547470",
"6. c #637A62",
"7. c #37853D",
"8. c #5C8818",
"9. c #658F19",
"0. c #558927",
"q. c #678E2D",
"w. c #1A855E",
"e. c #388746",
"r. c #348C47",
"t. c #28825B",
"y. c #378A57",
"u. c #3B9458",
"i. c #1B8670",
"p. c #288867",
"a. c #368768",
"s. c #2D936C",
"d. c #389767",
"f. c #288876",
"g. c #388778",
"h. c #2B9677",
"j. c #3B927C",
"k. c #369879",
"l. c #31A26C",
"z. c #34A87A",
"x. c #478646",
"c. c #4D8E52",
"v. c #5A8759",
"b. c #5C9258",
"n. c #698547",
"m. c #728849",
"M. c #799649",
"N. c #6E8C51",
"B. c #65885A",
"V. c #699658",
"C. c #729856",
"Z. c #73A950",
"A. c #75A559",
"S. c #44866B",
"D. c #5A8867",
"F. c #449968",
"G. c #5A9668",
"H. c #458978",
"J. c #538973",
"K. c #479879",
"L. c #569877",
"P. c #648C63",
"I. c #688964",
"U. c #669665",
"Y. c #6C926B",
"T. c #48A37A",
"R. c #53A974",
"E. c #66A468",
"W. c #7ABB6B",
"Q. c #67AE74",
"!. c #7CA575",
"~. c #78BA75",
"^. c #75C45C",
"/. c #77C876",
"(. c #66D47C",
"). c #75D074",
"_. c #8FAE5C",
"`. c #8A9B6A",
"'. c #919E6B",
"]. c #898E75",
"[. c #8C9373",
"{. c #8A9976",
"}. c #939975",
"|. c #91947B",
" X c #8AA569",
".X c #92A464",
"XX c #94A46B",
"oX c #96A969",
"OX c #87B669",
"+X c #91B16C",
"@X c #87A675",
"#X c #95A272",
"$X c #86B576",
"%X c #8EC359",
"&X c #87C365",
"*X c #87CC73",
"=X c #427E84",
"-X c #2E8A83",
";X c #398D85",
":X c #2A9787",
">X c #389A87",
",X c #249A93",
"<X c #379993",
"1X c #1AA598",
"2X c #2AA788",
"3X c #38A689",
"4X c #36B489",
"5X c #21A49B",
"6X c #26A899",
"7X c #39A797",
"8X c #2CB597",
"9X c #38B69A",
"0X c #26AAA5",
"qX c #34ABA5",
"wX c #29B8A8",
"eX c #38B8A6",
"rX c #33BCAC",
"tX c #2AB8B3",
"yX c #36BBB3",
"uX c #438884",
"iX c #449885",
"pX c #4D988B",
"aX c #45A889",
"sX c #47B789",
"dX c #53B58C",
"fX c #44A996",
"gX c #46B899",
"hX c #65BB8A",
"jX c #71B089",
"kX c #47ABA2",
"lX c #45B9A5",
"zX c #54B7A7",
"xX c #38C19A",
"cX c #37C4A9",
"vX c #32CFAF",
"bX c #2AC8B8",
"nX c #36C7B5",
"mX c #38D5B8",
"MX c #57D18F",
"NX c #4AC699",
"BX c #57C897",
"VX c #58D796",
"CX c #67C58A",
"ZX c #53E19A",
"AX c #46C7A8",
"SX c #53C8A3",
"DX c #49D4A8",
"FX c #54D2A3",
"GX c #44C6B5",
"HX c #44D5B6",
"JX c #2FCFC9",
"KX c #2ED6C6",
"LX c #35DAC9",
"PX c #2DE2D3",
"IX c #44D4C5",
"UX c #83A983",
/* pixels */
":.F.qX,XJXS.6.;.n.q.;.B.J.cX5X<XaX:.5.JXlXeX7X5.D.gX:XbXaX:.,.,.M.,.N.2.gXtX-X7Xv.5.tXeXGXJX4.I.aX<X0XyXJ.Y.1.q.N.>.:.H.JX,XqXL.",
"&.,.*.tX7X@.iXV.n.n.b.iX#.7XtX+.-.-.&.:Xv.:.iX&.A &.$.tXj.g.=.=.n.D =.%.>XwX%.&.-.&.fXv.c.7X&.-.*.[ wX3X#.H.n.n.v.b.>X#.8XqX*.-.",
"N B E i.h.@.O.f.d.l.3XO.@.f.X.U r b g Y 5 5 H.d C a ;Xh.f.O...a.u.p.....f.s.f.a C s H.5 5 / g f e T ( f.@...3XF.d.f...$.h.-XE N ",
"t g $.` 9 , 6 L %.#.q 4 6 0 ` ;Xg f ( &   2 #.k d i X.i 4 @ : Y T u = 7 < W f.i f k ! 2   & ) f p <X) q 4 $ 1 ] %.0 3 7 , ` / g ",
"Q %.H.q 3 6 3 * F 1 @ @ $ 6 q uX@.j a.s 5 o z t./ P u $ $ + ; 8 ~ 7 ; @ * 6 T P ^ p.l o O h d.U O.g.0 @ 3 3 * H < ; 3 3 $ , #.g.",
"8X] 4.9 @ ; ; 6 # @ @ F * 3 9 %.T h.7.9.q.8.m l.` u # @ * ; 8 6 * 6 ; ; @ @ % u } l.m 9.q.9.r.h.1 ! 4 3 ; ; @ 4 3 * ; * + 7 #.W ",
"r.` ;X9 @ * * 6 - : 3 ; * $ 7 %.T y.u.a . o d d.k.Y % @ * 6 * 6 8 * * * $ $ = U d.l.d O . r d.u.p ! 4 @ @ * 6 8 - * ; 6 3 9 %.@.",
"e ' 3XE $ @ * - Y | 7 * @ 3 g 3Xy.l ^ d r e a.f m h.] - 3 6 @ H =XH * + * 9 X.d.x f y.a e j z l y.>X0 6 @ * 8 o.H * * @ 4 I 3Xe.",
"o f t.S.9 @ 6 8 O.] = @ @ 9 c.h.Z o i T C t 4.5 r ' 2Xg 6 3 ; O.H.| 8 6 6 Q 6X' e 5 g.f C / g 5 =.6X=.9 6 $ - ] +.< @ * 9 d.{ k ",
"S F.>XE 6 @ 6 6 G H * * @ * g >XK.=.t.d M s { x e.f.U * * * * K +.K @ * * - R k.x.x ) f M d ` S F.g.L * @ * - I H * * @ $ E h.c.",
"` ^ H.9 + * ; 6 @ @ 3 ; * @ 7 %.W s.u.t . w l z.s.Y # @ 6 ; * 6 8 3 * * @ + # Y k.z.l . . s d.T.W ! 3 @ * 8 * * $ * ; * + 9 %./ ",
"2X} 4.7 + ; F 8 @ 6 * F ; * 9 4.' :Xe.n n n 0.4Xu.u # + @ F F 6 7 6 F F 3 3 & p d.z.S n n m y.4X_ [ 3 * ; F * $ @ ; F * 3 , +.' ",
"x #.X.g @ $ @ * > Y * @ 3 3 g j.g._ d.5 X X ) ` T T / , + 3 * L %.L 8 3 3 9 t.X.W ' j X X a a.p %.j.g @ 3 * : R H 8 3 6 $ g / { ",
"t a T t.i , 9 I @.^ I , 9 , } X.a t p % X 5 %.V B i >X) 1 , L $.} +.q 0 , ] >Xi f k [ 2   & y s h -X} 1 9 9 I ^ #.I , < p a.P e ",
"f V g h.{ 0X6XwX8XxXbX1X0Xt.( i s f g / h h g.h b a g.' :X5X0XrXxXwX6X0Xh.' @.a N h H.a a X.g b s i ( p.0X0XwX4XxXwX0X6Xa.<Xg B ",
";.B.g.yXz.>XiXE.V.V.P.H.3Xk.yXg.P.1.3.aXb.B.pX:.1.S.eX9XaXzXE.B.C.v.G.zXaXcX7X2.B.:.kXb.b.gX5.1.v.-XrXK.7XS.D.V.V.Q.pXk.3XyXH.N.",
">XgX0XyXnXK.I.<.N.m.1.Y.L.nXrX6XlXfX7XmXfXgXyX<X9XcXeXrX7XD.,.,.M.,.1.J.7XrXqXrXsX<XJXgXfXmX7XfXlX6XyXnXL.Y.<.q.m.<.I.g.nXrX0X9X",
"dXQ.D.K.AXGXG.6.M.M.6.G.lXzXK.D.E.NXR.mXSXBXNXT.R.G.L.gXnXK.3.,.M.,.5.iXnXfXG.Y.dXR.AXVXFXmXaXBXL.v.K.GXkXv.1.`.m.6.U.GXAXL.D.Q.",
"~.{.]. X+XjXFXdXOXOXdXDXjX X X].].~.gXCX%X%XVXBX@X].`. X@XhXGXQ.OXQ.GXhX!. X`.].$XFXVX&X%XVXSX$X`.`. X@XjXcXhXOXOXgXVXjX X X].`.",
"%X[.[.XXoX#X&XHXLXLXHXW.`. X.X[.|.OXZX*X{.@XVX).XX|.#XoXXX$XCXIXLXHXhX$X.X.XXX|.+X).CX@X+X*XVX+X].]..X X`./.HXLXJXVX&X#XoXXX[.[.",
"_.}.|.#XoX'.OXFXKXLXHXW. XoX'.}.}.&XZX/.{.UXVX*X@X|.#XoXXX+XCXmXPXmXCXoX.X.X#X|.XX).MX#X#X*XZX+X[.[..X'.`.W.HXLXLXBX%XoXoXXX|.[.",
"*X`.[..X+XjXVXBX~.~.SXNXjX+X.X|.{.~.AX).OX%XVXMX@X{.}. XUXhXIXhXOXCXGXhX@X X{.[.$XNXVX&X%XMXZX*X[.[.+X@XQ.DXBX~.~.DXMX@XOXXX].{.",
"NXE.I.G.gXGXL.6.M.M.6.D.lXgXL.I.U.BXpXDXNXsXNXR.Q.U.P.aXnXaX5.n._.1.5.fXnXT.P.U.dXK.BXMXNXmXaXBXU.P.L.AXkXD.1.M.C.3.R.GXgXL.U.Q.",
"gXcXtXbXcXH.B.1.m.m.<.I.K.nXyXeXcXlXlXbXaXfXnXkXAXcXyXeX7XI.,.,.m.,.1.P.9XwXyXcXNXgXJXfXiXJXkXlXnXrXyXnXL.I.<.m.m.<.B.j.yXyXyXxX",
">.P.;XqXiX7XJ.P.V.N.v.J.7Xk.qX<XY.3.3.fXV.v.pX3.1.4.tXrX7XfXE.N.N.n.U.gXaXxXwX2.1.5.gXb.b.eX2.1.D.<X9XiXkXS.v.N.C.Y.uXaX7XeXg.I.",
"M B g ,Xp.wX5XwX4X4X8X0XwXp.i.i s B 0 ] h s g.a N a @.} ,X0XrXcXxXwXtXwX:X{ / 5 B a ;Xh k X.a M h U ( p.tXwX8X8X9XeX0X0Xa.3Xh V ",
"b a T a.i 1 , u / ) I , , 1 #./ a b p % 2 5 #.Z B g 3X{ 1 , E g.S.%.E 9 1 } 7Xj N k [ & 3 u y b h $.a.> q , T ) @.I , , T h.i s ",
"*.^ X.a $ + 3 - P R : @ @ 2 g h.a._ d.5 X o T z p X.a.q @ + @ L uXE 3 + + q j.h.j ) d X X 5 y.z H.aXa # + @ < O.G @ @ + 4 j / T ",
"i.` %.7 3 - F - * 6 * F 8 3 9 4.' h.r.n t b S 6Xd.p % @ * F F * 7 6 F F @ 3 i ) k.4XA n t n u.3X' [ $ @ F F : : * ; F * 2 , #.c ",
"w.^ uX9 @ * ; * $ * * F * 3 8 %.! h.u.t w . S z.i.P # @ * ; 6 6 6 * 8 * * + # I h.z.C w r t F.aXQ ! 6 + 6 ; * * * ; F * 3 9 %.U ",
"S F.;Xg 3 6 6 * 1 H @ * @ 3 L ;XT.x.y.f r s } v e.X.u - @ 3 6 K  .9 * $ 3 7 U p.e.c _ s r d y.x.K.@.0 6 @ * * I F * * * $ E h.F.",
". k t.c.7 3 @ - o.O.- $ @ 7 =.z.Z o 1 T n f a.5 e ` z.g 3 @ 6 R $.Y 6 $ 6 E 2X` e 5 H.Z C / & o v 4X*.7 @ * , O.+.8 6 @ 9 u.{ B ",
"e v 3XW 6 @ * - | +.: * $ 6 g 3X7.s T j r s a.d l i.{ - @ @ @ H o.J * @ 3 7 @.t.l d #.s e z p f 7.k.g * @ * 8 $.R * @ 3 6 W >Xv ",
"x.#.uXK @ * 6 $ : - * * 3 3 9 %.) u.d.d O r z p.l.Y = @ * * * * : 6 * * @ @ > T d.u.k O o d d.r.T ! - @ * * 6 < * 6 ; 3 @ 9 g.k.",
"6X) H.9 + * ; @ @ @ @ ; 8 @ 9 4.W :Xx.9.9.q.0.l.) u # + * ; ; $ 6 @ ; ; * + & > / l.0.q.q.q.r.h.0 ! $ 3 ; ; @ $ @ * ; 6 + , #.W ",
"i @.J.q 3 * * * = < * 6 6 3 0 H.^ U y.B O O l p.i.^ > @ * @ ; - L 7 F @ @ - u T @.s.l . O N F.T T #.q $ * * * 1 : ; 3 6 3 , H.%.",
"f g g._ 0 $ + H %.%.L @ 3 9 _ >Xi l } , X 2 ] k h ] X.g 7 + $ P Y > @ + 9 g i.T k k W 2   y ` V I >XQ 0 3 + H #.O., + $ 0 ` %.y ",
"N f W X.j.R I O.t.u.f.Y I ;XX.T s f j u X 5 H.k b h h.k.O.u P ( u.@.u P @.>X:Xh N s g.5 4 Y g B a / X.g.U Y g.F.t.R P R >Xf.j N ",
"V -.~ 0XwX@.g.c.D D b.j.O.9X0X~ Z V Q f.S *.uXh Z h O.wX>XO.' S 0.=.} ] :X1X! h C &.<X-.x.>XQ A V [ 0X8XO.H.b.D D =.$.$.wX,X~ A ",
":.G.kX,XyXK.3.>.,.q.>.B.j.wX,XfXL.3.5.nXAX9X<X3.v.fX-XbXkX2.n.,.M.,.V.2.lXwXg.aXD.2.qXgXAXJX4.D.K.<X6XrXS.I.>.q.m.-.:.aXbX-XzXG.",
"rX9XlXeXeX3XU.<.m.m.<.B.>XwXeXgX9XeX9XvXaXsXcX9XcXgXgXlXGXL.6.,.q.,.;.J.GXgXgXfXcX9XmXaXaXmXeXcXfXgXeXwXj.:.;.m.,.<.V.9XeXkXgXcX",
"BXD.I.B.B.3XgXJ.A.A.L.aXgXv.N.I.D.R.3XdXA.b.NXNXE.I.B.A.L.lXH.V.Z.U.iXlXpXA.Y.I.E.gXNXV.Z.NX>XT.6.Y.N.G.lXaXL.Z.C.J.gXaXU.B.I.V.",
"%X[.[..X.X@X/.mXmXvXbX(.!..X.X[.[.OXDX).`.`.MX).`.[.'._. XUXFXHXHXLXzXUX.X_.[.[.`.(.(. X}.).VXOX|.[..X.X@XhXmXmXmXHX*X X.X'.|.].",
"_.`.}.`..XXX&XVXPXPXDX&X.X#XXX}.}.OXZX/.{.UXVX^.XX|.}..XoX+XCXIXPXHXCX+X.XoX#X|.+X).(.{.UX*XVXOX|.}.oXXX.XW.mXPXLXVX_.oX.X'.|.|.",
"OX[.[..X.X!./.mXAXcXHXCX!..X.X|.{.OXDX*X@X@XVX(. X].`..X@XjXSXHXHXHXSXjXoX_.[.]. X(.MX+X_.).VXOX|.[.oXXX!.BXmXDXAXHX/.@X.X'.].[.",
"AXG.I.v.v.gXgX5.C.Z.D.T.eXG.I.I.D.sX>XsXA.V.gXsXE.P.P.U.dXlXJ.V.Z.N.H.GXdXC.I.I.R.3XNXb.Z.NXk.dXP.I.V.L.lXiXD.M.V.J.sXfXb.B.I.V.",
"bXvXGXcXqXiXY.<.m.m.<.B.K.0XwXnXvXbXyXnXK.K.mXcXvXcXcXeXlXJ.<.,.m.>.<.J.lXeXcXrXnXcXKXT.k.KXcXvXrXyXrXwXH.1.<.m.m.;.V.7XeXyXGXnX",
":.G.fX,XrXaX:.>.n.n.-.6.iX8X,XfXL.:.2.eXgX3X<X2.D.iX:XbXzX2.B.m.M.,.N.2.kXwX<Xj.B.5.qX3XgXnX4.3.K.fX6XeXH.B.>.n.n.-.2.aXrX,XfXG.",
"M V ~ 6XrX$.$.x.S S c.f.$.8X1XW V B g p.v &.g.h N h O.6X:X..{ =.0.=.@./ :X1XR a V h >X*.=.:Xh V V ~ 1X8XO.j.c.S S ' X.f.wX,XW A ",
"n B j @.;Xi % R t.c.$.1 1 %.X.R s N j > 2 5 g.f n h >X3XY % > / e.{ > % O.>X>Xh b f g.5 2 Y y n a / X.@.> 1 f.x.` u % U ;Xf.h f ",
"t i >X_ 9 + + q #.%.L + 2 9 x >Xp x p.g X # ] z h @.@.i @ + @ G R H + + $ g i.] d k W X X 0 } x U :XQ 9 + 3 H %.] = + @ q _ ;Xi ",
"i ] pXq + ; * * = , * * 6 3 q H.U T u.C r w l p.h.{ & + * * F * 1 * ; @ $ @ I ^ f.k.l . r C d.^ i } 9 @ 8 8 - = , * + * 2 q K.#.",
"8XW uX7 3 6 ; * @ 3 @ ; * 3 7 4.E :Xc.9.9.9.0.l.! P # @ @ * ; @ @ @ * ; @ @ # > / l.0.9.9.q.u.s.g ! 6 $ - ; @ * 3 6 ; * 3 9 %.E ",
"x.k.uX9 3 3 * $ : : $ * * @ 7 ;X{ y.l.N w r ` r.d.U = + @ * * * - * @ @ * @ 1 P y.y.x e O k F.r.^ O.7 3 * * $ : ; * ; @ 3 q g.K.",
"o x 3X) 4 6 3 8 +.$.< * * $ g 3Xc e p j r f H.a t w.t., @ @ * H | H * @ @ , p.w.f a S.s e ) u e c 3Xi 3 @ 3 : $.! - * * 6 _ k.v ",
"o l p.' 7 6 6 8 $.+.: @ @ 7 x 3Xv o u p t B S.5 r ` h.q @ @ = Y R G * * @ i z.c a 5 g.C t ^ & 5 v 3Xk 7 @ * F @.+.8 @ 3 9 y.t.x ",
"0.K.uXL * * * @ : < * * $ 6 q ;XK.0.s.k r s ' v r./ u * * @ * - I ; * * @ * I ( e.c ) s r k e.0.S.@.9 * @ 6 * H F $ * @ @ q g.k.",
"i.W H.9 @ * ; * @ * 6 8 * + 7 %.W >Xu.C n b x.z./ P = + * ; * @ 6 * * * @ @ = I p.z.D b n C F.3XW ! 3 3 * 8 3 $ $ * ; * 3 9 %.T ",
"X.( S.q @ - F * - ; ; F 8 3 9 H.' p.r.C b b A 4Xs.^ & + * F F $ , ; F F $ $ i ] d.3XS b t l u.j.*.O.4 3 F F * - $ ; F * @ q #.` ",
"x T X.j @ @ 3 ; Y O.8 3 3 3 a h.{ _ s.5 X X T z y f.a.q @ + $ L %.E * @ + 0 k.g.j z y X X 5 a.x #.>Xg + + 3 K $.I ; @ + 9 x X.i ",
"n a p f.T 1 9 i z ` R q , U a./ s f p % X 4 g.V C Q 3Xa.u 9 E H.b.g.E , i g.<Xj N f #.9 2 P y N h p.g.U q L ] ' { 1 , i ^ g.T f ",
"B V g 2Xs.qX,X8X4X4X3X0XwXp.i.i s B 0 { V f g.5 t 5 O.s.6X0XeX9X4XgXrXqX:X{ ^ 5 N a uXk k X.g M s g ( f.0XtX8X3X4X2X,XqXs.,Xh C ",
":.U.iXqXiX9X2.B.V.n.6.5.9Xj.7XqXY.3.2.fXG.v.fX2.B.g.wXcXgXpXE.N.M.B.U.fXfXbXwXS.1.5.7Xb.G.eX5.I.D.qX8XK.fXD.:.M.C.I.J.7XfXqXuXU.",
"GXLXJXJXcXH.I.<.m.n.<.N.J.nXJXJXLXIXIXbXS.aXLXGXmXKXKX6X3X1.>.,.m.,.>.P.gX0XJXLXIXJXPXj.H.JXIXIXLXPXbXnXJ.N.<.m.1.<.B.g.wXJXKXLX"
};
