/* XPM */
static char *result[] = {
/* columns rows colors chars-per-pixel */
"64 64 44 1 ",
"  c #1C1721",
". c #1F1923",
"X c #221E26",
"o c #231F28",
"O c #242027",
"+ c #26212A",
"@ c #2A252D",
"# c #2C282F",
"$ c #34322E",
"% c #38352E",
"& c #2B2531",
"* c #2E2933",
"= c #2F2938",
"- c #322C33",
"; c #322C39",
": c #363233",
"> c #393534",
", c #3C3934",
"< c #373238",
"1 c #393539",
"2 c #3E393E",
"3 c #403C36",
"4 c #423D3F",
"5 c #44403F",
"6 c #433C42",
"7 c #464142",
"8 c #494346",
"9 c #4C464A",
"0 c #4E484C",
"q c #50474E",
"w c #514A4F",
"e c #534D51",
"r c #565154",
"t c #585456",
"y c #5A5558",
"u c #5E5B5D",
"i c #605E5F",
"p c #625F61",
"a c #646163",
"s c #6F6E6F",
"d c #706E6F",
"f c #716F70",
"g c #747273",
"h c #787677",
/* pixels */
":$70ereqqq99w4 X$$409999999996 o$$4099999999q2 X$$4999099999q2 o",
"$$70wweewwwqq2Xo:$409909909996 o:$40900990q094X+$$6999q0q99994 o",
"%$40wwwwwwww96.O$%409000qq09q2X+$$400qw0wqw0w2XO$$40qqwqq09992Xo",
">$5w1-:----1q4X+$$4q2<<-:;;294.+:$4q2--:-;-1w6Xo:%403-;--:<2q4Xo",
"$%7w<+@@@&+:e6X+$%6w<o@@@@+<w4o+%%49:+@+@@@<e6o+$%5q<+@@@@@-q2X+",
"%>5w1------:q6o+>%4w1#-$---<96++>%4q<------:w6O@$>5w>--$--->q6o+",
">%7w<<<<11<<e6o@>%6q<:<<><<>q6o@%>6q1:11<<<<w6O@>>5w1<<<<><<96o+",
">%50<488868196+@%35q<686888>96o&>%4q:488888106+@>%50<6868881q6+@",
">%50-8weeew1q6o@%,50-8w0wew2w6+@>%50-8wweew106+&>>49;8e9wew1w6++",
",,40-9eweew1q4+#>%50-8wweew>96+&>>59-9rweew,96+&>,40*9eweew>96+&",
",,50@2q9qq8$q6+-,,50@499999-w6@*,,59@4q9999:96@#,,59@4q9999:q6&&",
",,501uaaiii496+-,359>iaaapu496+&,,59:yapaai796@*,,79:uapppu296+-",
",,59ugggdfha96&=,380iggfgsga96&=,,89yhggddfp96&-,,5wuggggfgu96&*",
"3,5rw889weeeq6&-,,8rw9699weeq6&-,38ww888999qq6@-,39rrw9999wwq6&=",
"339rreerrreeq6*-339reeerrreee6;;338rewwrrrreq6=;%59rrrerewq9e6&-",
"358rrrrrreeeq6=;338errerreeeq6=;338rrrrrreeeq6=;555rrrrreeeeq6-;",
"335rrrrreeee96;;438wrrrrreee96;;338wrrereeeee6;<3550ererreeeq6;;",
"3350eewweeeqe6;;335qwwrweee0q6;;335qqweeeeeqq6;;3355qeeeeeqqq6;;",
"3350qwwwewwqq6;;3349qwwweewwq6;;336qqweeeqqqq6=;335wqqqqeqq9q6;;",
"3%5w3-::---1e6;;3,4q4<-----1e6;;33693----;;2e6=;35503-<----6q6;;",
"334e;o&&@&&:q6*;334e;+@@@@+<e6=-%349>+@@&&&:w6==335e>oo&@@&<q6;;",
"335e1------<e6=;%38e>------<q6==3%5q<-----*<e6&=3%5w3------;e6=;",
"%%6e<3>>;><<q6=*3%6r1:1><<<<e6==,,5q1;<<<<:>w6@=%330<-:3<111q6==",
"3%6q<6668882q6&=%%6e:6668872q6&=%%50<488888>q6&&%%30<6696861q6&=",
"%%4q-8weeww2q6=*%%6w-899wee1q6*=%,49$8eweeq106@=%%40-9e9www,w6**",
"%%4q-8eweew,96&*%%4q-9eweee>96&&%%49-8reeee>06@&%%49*9ewwrw196&&",
"%%40@499998:q6+&%%4w+499999$q6+&%%49@4q9999-06o&%%40@209qq9-q6&&",
"%%491iaaapa796o+%%49>iaappp696o+%%48-iappap896o@%$48<uapipi396oo",
"%$48igfffsgu96Xo%$48iggggfgp92Xo$$58ygggfsfp94.O$$58ugggffgi66 o",
"$$49q688688992 o$$49w668699902 o$%59w886966994 X$$40098999qqq6 o",
"$$399909w99992 o$$499990q99902 X$$4999qq999994 X$$409999999992 o",
"$$4q9999999902 X$$399999999992 o$$4999q9999992 .$$409999999992 X",
"$$499999909092 o$$409909890892 O$$500000999992 o$$49qq0q090802.X",
"$$40900q000002 +$$5wwwqq000002.+$#5werree00902 +$$4eewwwrww0w2.X",
">$5ww0wwee00e2.+:$5weeww000006.+$$5wwrree000w2 +$$7eeeeewww0w2.O",
"$$5w1$<--**1e4X+$$5w<$-;;<-206.+%$501#-*---1e2X+:$7e<*-----1w6.O",
">$7r;+@@#&@:e6.+$$7e<+@@@&@<e4.+>%5w<@@@#@&:e2.+$$7r<+@@@&@:w2X+",
"$$5w<---*:*<w4o+>$5e<------:06o@$%5w1*---**<06o@$>5r<--$--*>w6X@",
">$7r1<><<<:<w6o@%,7w<:><<<:<e6.@>$5w<>><<1::06.#>%7w<<<<<><<06X@",
">%7w<688788,02o@,%70<688888>06o#>>5q;688888106o#>%7w<488888102o@",
">>5e:8rwee0196o#>%79:8reee0106o#>,50:8rewe0106O@>%5w-9eeeew106O@",
",,70#9reeee196+@$,70*8reerw106.#>,50*8reeee102+&,>7q-9eeee0,06O&",
",,50+409909$06+#>,40@299808-06o#,,59@209008:06O#>,6w+499999-02+&",
",%701uapppu696o#,,891uaaaap896O#>,59>iaappp596O#>,791uaappp806+@",
",,79uggggggi95X#,,89uhggfsfi94O@,,99uhgggffp06O#,,89uggffssi96+@",
",,9w988ereerr5X#,,9rr9888880e7O@,,9rr089w090e7.#,,8rw8889999e6O@",
",,9wwwweeeeer6X@,,9rereeww0er7o@,,0teeereeeee8.#,,9tee0eeee0e7O@",
",,0teerrrerrr7O#1,9trrrrrerer7o@,,0trrrrrrrer8o#,,0trrereeeer7O@",
"3>9ytrtrrrrrr7o@,,0ttttrrrrrr7o@,,0trtrtrrrrr7O@,,0trrtrrrrrr7o+",
",,0trrrrrrrer5X@>,9rrrrrrrrer7.#,%9trtrrrreer5O@,,9trrrrrrrer5o@",
",%9rreerreeer7X@,,8rrrerere0r7X@,>9rrreeeeeer7X+,,8trrrrreeer6X+",
",,8r1****-*>e5X+,,8r>#*-***1e5X+,,8r1#--*-&1e6O+,,8r1#***-*>e6X+",
",%8r:+#####:e6X+,,7r<@@###&:e6o+,$8r<+@@#&@:r6.+>>8r:+#@##&:e6X+",
",>7r1--;***:w6X+>%8r<#----*:06.@,$8r<---*:*<w6O@%$7e1*-;***:e5X+",
">>7e::1:11<>w4X+>$8w<<1<:<:>e6.O$%7e<:<<<<:<07X+>>7r1:1:1<<>e4.+",
">$7e:6888771w4.+%%8w<488888107.@>%7e<488888,05.+%%7e:688887104.O",
">$7w-9eeee0106.O,$7e-8r0eee197.+,$7e-8reeww106.+>$7e;8eeee0104Xo",
"%$7w*9eeeee106.+%$50-8reer0>02.+$$5e*8reeew196.+$$7w*9eeeee>04.o",
"%$70O409999:02.O:$70@299998:02.O$%50@299008-02.O$$50@209808-02.o",
">$501uaappi796.O$$791iaaaap797 O$:501uaapap896.O>$501uaaapa892.o",
"$$79ugggsssu92.O$#59ugffsssi96.O:$78ugggfsfi92 X$$78iggffsfp94.o",
"$$599886688902 O$$599888886902 o$$409788888802 O$$509788888802 o",
"$$599909w99902 O$$209990099902 o$$599999990902 X$$598090999992 .",
"$$299999999902 X$$599999999991 .$$598999999902 X$$290899999902 o"
};
