/* XPM */
static char *result[] = {
/* columns rows colors chars-per-pixel */
"64 64 236 2 ",
"   c #AF0C06",
".  c #AD0C0D",
"X  c #B20D05",
"o  c #BC0E05",
"O  c #B30D0B",
"+  c #BC0E0B",
"@  c #AE1103",
"#  c #AE110F",
"$  c #B41303",
"%  c #BB1405",
"&  c #B61A04",
"*  c #BC1A05",
"=  c #B4100B",
"-  c #BC120B",
";  c #BC1B08",
":  c #A50D16",
">  c #AC0D13",
",  c #A60E1B",
"<  c #AB0E1A",
"1  c #B20D13",
"2  c #BD0E12",
"3  c #B30D1A",
"4  c #BE0F1D",
"5  c #AE1014",
"6  c #A51019",
"7  c #AD121C",
"8  c #B21115",
"9  c #BD1113",
"0  c #B3131C",
"q  c #BD121B",
"w  c #BE1B1D",
"e  c #A70E22",
"r  c #A80D21",
"t  c #B60F21",
"y  c #A71124",
"u  c #AD1424",
"i  c #A7162C",
"p  c #AD162C",
"a  c #AD192F",
"s  c #B31323",
"d  c #BB1324",
"f  c #BC1B22",
"g  c #B2162B",
"h  c #BB152B",
"j  c #B2192D",
"k  c #B8192A",
"l  c #AB1733",
"z  c #A61932",
"x  c #AC1934",
"c  c #A3163D",
"v  c #A9163C",
"b  c #A3183F",
"n  c #AC1B3B",
"m  c #B41534",
"M  c #BB1235",
"N  c #B31B33",
"B  c #BA1C35",
"V  c #B4143B",
"C  c #BC133B",
"Z  c #B41C3C",
"A  c #B91E3D",
"S  c #BE2323",
"D  c #B5212E",
"F  c #BD242D",
"G  c #B52434",
"H  c #BB2433",
"J  c #B72936",
"K  c #BB2A34",
"L  c #B5233B",
"P  c #BB223B",
"I  c #B5283D",
"U  c #BB2B3A",
"Y  c #C00E05",
"T  c #CB0E06",
"R  c #C20E0A",
"E  c #CC0E0A",
"W  c #D20E08",
"Q  c #C41505",
"!  c #CC1405",
"~  c #C41B05",
"^  c #CB1A04",
"/  c #C4130B",
"(  c #CB140C",
")  c #C41B0A",
"_  c #CA1C0B",
"`  c #D21504",
"'  c #D21904",
"]  c #D2140A",
"[  c #DA170B",
"{  c #D41B0B",
"}  c #D91A0D",
"|  c #C20E14",
" . c #C20D1B",
".. c #C80F1A",
"X. c #C31214",
"o. c #CC1514",
"O. c #CB1B13",
"+. c #C3131B",
"@. c #CB141B",
"#. c #C41A1D",
"$. c #CC1A1B",
"%. c #D21514",
"&. c #D41B14",
"*. c #D81A11",
"=. c #D21619",
"-. c #D21C1A",
";. c #C32106",
":. c #C4210A",
">. c #CA230D",
",. c #C62211",
"<. c #CB2413",
"1. c #C5231E",
"2. c #CC251B",
"3. c #C92918",
"4. c #CC291D",
"5. c #D1251A",
"6. c #C60F2E",
"7. c #C41524",
"8. c #CC1323",
"9. c #C41B24",
"0. c #CB1D24",
"q. c #C5152B",
"w. c #CA142C",
"e. c #C51B2C",
"r. c #CA1D2B",
"t. c #D1152E",
"y. c #C60F34",
"u. c #C41334",
"i. c #CB1434",
"p. c #C41A34",
"a. c #CB1A34",
"s. c #C4133A",
"d. c #CD163A",
"f. c #C41A3B",
"g. c #CE183C",
"h. c #D11635",
"j. c #D11837",
"k. c #D1153A",
"l. c #D1193B",
"z. c #C32423",
"x. c #CA2622",
"c. c #C62823",
"v. c #CC2922",
"b. c #C4242B",
"n. c #CB222C",
"m. c #C4292C",
"M. c #CB2B2D",
"N. c #C22332",
"B. c #CA2231",
"V. c #C42932",
"C. c #CA2C33",
"Z. c #C12B3B",
"A. c #9D0E4E",
"S. c #9E134C",
"D. c #960D57",
"F. c #9B0E54",
"G. c #960D5D",
"H. c #990D5B",
"J. c #9D1152",
"K. c #A61444",
"L. c #AB1645",
"P. c #A61942",
"I. c #AB1A44",
"U. c #A4144A",
"Y. c #AB144B",
"T. c #B61342",
"R. c #B31B43",
"E. c #BD1B42",
"W. c #B3154E",
"Q. c #BC154C",
"!. c #B51A4A",
"~. c #A40E57",
"^. c #B30F5C",
"/. c #A61253",
"(. c #AB1352",
"). c #A5115A",
"_. c #AB1159",
"`. c #B41453",
"'. c #BC1453",
"]. c #B4115B",
"[. c #BC125C",
"{. c #AF2247",
"}. c #B42444",
"|. c #BA2741",
" X c #B52A45",
".X c #B22449",
"XX c #B52B4C",
"oX c #BA2E49",
"OX c #BC3146",
"+X c #B7344E",
"@X c #BA324C",
"#X c #B63351",
"$X c #B93353",
"%X c #950D63",
"&X c #9A0D67",
"*X c #940D6C",
"=X c #9A1064",
"-X c #8E0B74",
";X c #88097F",
":X c #8D0A7D",
">X c #930D73",
",X c #9D0E76",
"<X c #94067D",
"1X c #930C7C",
"2X c #9C0C7C",
"3X c #9A1075",
"4X c #981076",
"5X c #A90F67",
"6X c #B40F64",
"7X c #B90E66",
"8X c #A7116B",
"9X c #BB1165",
"0X c #B31169",
"qX c #A50F73",
"wX c #A20D7A",
"eX c #A31173",
"rX c #A51176",
"tX c #C51645",
"yX c #CC1543",
"uX c #C61942",
"iX c #C2144D",
"pX c #D11543",
"aX c #C00F5F",
"sX c #C31254",
"dX c #C1125B",
"fX c #7E0A94",
"gX c #79099C",
"hX c #890782",
"jX c #870983",
"kX c #8B0984",
"lX c #8B0788",
"zX c #950B82",
"xX c #970A83",
"cX c #910A89",
"vX c #820795",
"bX c #810994",
/* pixels */
"T.e.o.W ` ~ X q P P < X $ * <.v.@X$XH 5.>.& - > i }.g + ; ~ ^ o.r.M m d ,.~ Q i.aXxXkX).d - * ' %.q.i.u.X.E ! ~ X r A.%X(.i.@.R ",
"L w &.' ^ % - s N 0 X $ ~ :.2.K  XU v._ / / 4 N U.I.< o ^ ! ] | q.s.b.$._ ; / f.qXfXxXQ.q - ) <.0.M u.7.o.T Q Q > p U.b t 2 Q / ",
"z.<.;.* $ . u H f / ~ ' } &.F Z L z.<._ @.a.Q.=XG.n . X ' ] X.q.l.q.$.} ~ X 1 T.>XkX7XpX+.) <.1.H V r.%.` ! ~ + 0 P N : O & * <.",
"3.) & - > i A g + ; ~ ! ( 0.M m k <.;.- w.sXwX;X).g % & ! *.7.i.i.+.o.] ^   , S.%X(.f.#./ ( 4.K }.G #.{ ' ^ o 9 g j 3 O = ~ >.3.",
") _ X.q Z S.I.y + _ ! (  .w.f.e.@._ * - p.5XbXcX]. .% * <.#.M u.7.O.T Q Q . l U.b s + - Q ,.V..X|.z.) ) & = . u N q o ! ' { -.e.",
"/ o.i.Q.&XG.n > X ' ` o.q.j.u.$.} ^ $ O R.,X:X0XyX+.) >.x.K T.e.o.! ! ~ o 0 P N : = % ; <.c.@X#Xb.<.>.& - < p P s R ; ~ ` { r.m ",
"/ 8.sXwXjX5Xm + & ^ *.7.u.i.8.o.` ^ X : K.%X/.f.8.X./ 2.H }.J #.&.` ^ Y | j N 8   X ~ _ 2.K .XU 2._ ( / 0 v U.Z < o _ ! ( +.u.s.",
"+ u._.bXlX^.7.% ;.>.+.M s.7.o.! ! Q   p K.b s + / Q ,.M. X}.S >.~ % X . u N q - ~ ' } -.D L G c.) / @.i.W.&XD.l O $ ` W | r.l.u.",
"1 Z *X:X5XtX@.) >.2.K V k @.] ! Q $ 0 P N : O $ * <.c.OX$XS 2.) & X 1 p A u - * ^ ` %.r.M V f ,.* Q h.9X2XjX~.t % * { %.7.i.i.q ",
"< K.G./.f.8.X._ 5.K I G +.{ ' ^ Y | g g 5   $ * >.x.J {.U 4._ ( X.q n S.R.: X ~ ^ ( X.s.f.B.-.) & / f.eXfX1XQ.q & :.&.0.u.s.+.$.",
"u L.b u 2 + ~ <.M.OX}.S ,.;.% X . u N d - ! { } -.F }.G c.<.! #.a.!.&XG.Z O @ ^ W  .q.l.q.@.} ^ $ 1 L.-XkX6XpXo.) <.1.K M b.-.] ",
"P B < X $ * <.v.OX$XK <.:.* - 5 p A g - ~ ~ ! ( 0.M m f <.) / w.dX2XjX).s ; & { %.7.i.q.X.( ` ~ X r S.&XY.s.8.( / 2.H }.H @.&.' ",
"N 0   $ ~ _ 2.D  XU v.) _ X.q n U.L., X ^ ! ( | q.s.p.-._ * - f.8XvXxX'.q ) :.{ 7.M u.7.o.T ~ Q O N U.K.s 2 / ) 2.S {.I 9.,.) & ",
"q - ~ ' { %.e.Z G z.<./ o.j.Q.=XG.n 5 @ ` ` X.7.a.q.-.} _ $ 1 !.>XzX0XpX+.) <.1.P T.B.=.! Q * o 3 P x , $ % * <.b.@X#Xz.<.;.; = ",
"+ ) ~ ! ] 0.M m f 1.;.Q w.sX2XjX).h 9 & ' %.7.i.u.+.( ] Q X , U.%XY.f.@./ _ 4.K |.H +.} ' ^ o 9 g g > X $ ~ _ 1.J .XK 2./ / X.4 ",
"X ^ ! ! | u.s.e.o._ * - u.8XfXcX'. .- ;.<.7.M y.7.o.! ! ! O l U.c s 9 % / <.B..XI z.,.~ % X . g j q o ^ ' } $.D L G z._ o.=.i.W.",
"@ ^ ] +.7.j.w.#.} ! $ 1 Z *X-X0XyX+.) >.1.K V r.$.] ^ Q o 8 P N : # & * <.z.+X#XF <.~ ; - > a B 0 R ; ^ ` %.r.M N f <.~ / j.9XxX",
"& { %.7.u.u.+.o.' ^ X < S.%X(.f.8./ ~ 4.K I G #.{ ' ^ o | g j 5 X & ~ _ z.G !.U 4.^ ) X.0 c S.Z < $ ~ ! o.@.i.u.B.-.:.& 2 f.qXgX",
";.<.#.M u.7.o./ Q ^ O p P.b u + / ~ <.C.XXI F O.) % X . u B q + ~ ' } -.b.Z G 3.>./ @.d.`.=XH.l 1 $ ` T | q.j.q.$.&.~ $ 3 K.1X:X",
"<.1.H V p.o.] ^ ~ o 0 H N 6 O $ ; >.v.OX#Xm.<.:.; o > i B u ; ; ^ ! %.r.M N f ,.* R i.[.xX:X/.s - ;.' %.7.i.i.+.E ] * X u S.&X(.",
"4.V. XL w <.' ^ o + g j 5   $ ~ _ z.H .XJ 4._ / X.d Z S.I.< o ^ ! o.+.w.u.n.5.~ & | f.qXfX2XiX| % ;.5.0.u.u.#.$.T ^ - . m U.v s ",
"C.oX}.S ,.~ % X > s B q - ~ ' ' &.b.Z G z.<.O.@.j.`.*XG.N O $ ' ! | w.d.q.$.} ^ % 1 L.>X1X6XpXX.~ >.1.J V p.$.] ! * o s P x < O ",
"@X$XV.2.;.% - > i Z s - ~ ~ ! %.r.M m f <.* Y w.dX1XkX).s - * ' %.7.i.6.| X.` ! X r F.G.Y.d.../ ) 4.J }.H $.{ ' ! o | p p .   $ ",
"XXZ.v._ O.( d n S.n < X ^ ^ %.| i.s.p.-._ & - d.qXvXzX'. .~ :.O.z.M s.7.%.T ~ Q   l K.v s X.( _ 2.F .XI z.,.) $   . u g +.o Q ' ",
"I c.<._ @.j.'.=X%Xx = @ ' ( o.w.h.q.+.} ^ X O I.*X>X6XyX@.Q <.z.P C n.$.` Q * o 0 P N > O % :.<.z.OX+Xb.<.* % O < l P u + ~ Q ! ",
"f <.) / w.dXxXkX5Xk = & ^ %.q.s.i.+.( ` ^   , S.G.Y.u.8./ _ 4.H }.G #.{ ' ^ o 9 g g #   & ~ _ z.G {.K 3.) Q X.d v S.n 5 - ^ ! ( ",
"%.^ & 9 p.5XfXzX[.+.; ;.<.9.M u.7.o.T ~ Q O i K.c t 2 / ) <.N..XJ z.,.~ $ X . k N +.o ~ ! } o.H n G 2._ ( 8.f.W.%XF.i = % ` E 2 ",
"[ ^   > R.>X-X6XyX .) <.c.H m p.%.] Q ~ o 0 P N : O & * <.z.@X+Xb.<.~ ; O : x A 0 Y * ~ ! %.r.C B #.,.; R h.9X<X:X/.3 - * ' o.7.",
"' ^   , U.D.Y.f.@./ _ v.K |.J #.{ ' ! o 9 s a 1   $ ~ _ 1.G .XH 2.^ / / 3 P.J.I.5 o ~ ! ( +.u.s.n.5.~ & 2 tXrXfX2XQ.2 % ;.<.n.s.",
"~ ^ = u P.c < 9 - ) <.C.XX}.S >.~ & X > u B q o Q ` { $.H Z G x.>.) 8.g.`.&XD.N O $ ` T X.q.j.7.o.} ~ + 1 Y.-X1X7Xg.o.~ <.S Z V ",
"; o 0 P N < = % ;.<.c.OX$XV.2.;.; O > i A u - ) ^ ` o.0.C B f ,.& - i.[.<XhX(.s - ~ ] %.7.j.q.9 E ` ~ X e F.G.Y.i.@./ _ x.H }.H ",
"o 2 g j 3 X $ ~ O.1.G }.U 4.( o.o.s L.S.n : $ ^ ^ ( +.u.s.n.&._ & 9 f.eXfX2XiX+.% _ 5.z.C s.+.( T Q Q > N U.n 0 9 / ) <.K .XI z.",
"> u Z +.R Q ' } =.e.Z G z.>.( =.g.`.&X%Xx 8 @ ` ( X.q.g.w.=.} ^ $ 3 L.>X2X[.g.o./ <.z.J V b.o.` ~ * - 7 P l > = $ ;.,.S #X@Xb.<.",
"z Z u + ~ ~ ! o.r.M m w >.; / t.dX1XjX).d ; * { %.7.i.q.+.E ^ Q X r S.G.Y.p.@./ _ 4.H }.H $.} ^ ! + q g s 1 X % ^ _ S G .XF <.^ ",
"F.I.: X ^ ( ] | u.u.b.$.) & - f.eXbXzXQ.| - :.<.7.C s.8.o.T ~ Q . a K.v u 9 / ) 2.F }.I z.>.) $   < g N X.o ~ ' } $.K R.G 2.) / ",
"%Xn # $ ` ] ..7.h.q.$.} ~ $ 1 L.>X>X6Xg.@.~ <.z.K V B.%.] ~ * o s P N > X & ; <.S oX#Xb.5.) & + < x P 7 Y * Q ! o.e.C B w >.; / ",
"_.h - ; ' %.q.s.w.+.( ! ^ X , U.G.Y.p.@.R _ v.U }.J #.{ ^ Q o 9 g g O X % ~ _ 9.G .XH 2.) ( X.d K.~.n > o ^ ! o.7.u.s.n.-.;.& R ",
"iX+.% :.,.9.M u.7.o.T ~ Q 1 l L.v 3 9 / ~ 2.N.XXP z.,.) $   5 g N 9 X Q ' { o.F Z G 4._ / 8.k.(.%XF.i O % ` E X.i.i.7.o.} ~ o 1 ",
"l.@.) <.c.J V B.=.` Q * $ 0 P j < O $ ;.<.z.@X#Xm.2.; ; + < x Z s + ~ ~ ! %.r.C B #.,.* / j.7XkX:X(.3 % ~ { o.q.g.7.| T ! * O u ",
"@.Q _ 5.K }.G #.} ^ ~ o 2 g g 1 X % ^ >.#.J }.K 3._ ) X.h P.S.Z > o ^ ! o.+.u.M B.&.;.% 2 tX2XfX2XtX| - ;.5.n.M u.+.( ! ~ % . B ",
") ~ 2.C.XX}.z.<.~ $ @ > p B q + Q ^ &.%.N.Z G x.>./ 0.g.`.*XG.l O $ ! T | q.d.7.@.&.~ X > Y.-X,X[.a./ / <.f I M n.%.` ^ ~ + 7 P ",
";.<.z.oX$Xm.<.~ ; + 7 z Z u - ~ ~ T o.w.C m +.,.* - h.7XkXhX(.t - ; } %.7.d.q.2 T ! Q X y S.G.!.a.$./ _ 4.J }.N.$.{ ' Q o 9 p g ",
"_ z.J .XZ.4._ / X.9.v F.I.6 $ ^ ! %.+.w.s.M.-._ % 9 f.,XvX2XQ.| ; _ 2.b.M u.7.( T ~ % . N K.l 3 - ) ~ 2.H .XJ c.>.; $   5 N N | ",
"@.N.V G c.>./ 8.pX`.*XH.N O X ` ` | q.h.q.$.} ^ $ 1 L.-X>X[.d.o./ <.z.P V n.&.] ~ * - 0 P p < $ & ;.<.S XX#Xm.3.~ & O < n A s R ",
"e.u.M d >.* Q w.[.zXlX).d - * _ o.q.d.q.| ( ! ^ O , S.G.Y.r.@./ ) x.I  XH $.{ ' Q Y q g g . X % ^ >.z.G {.F ,.) ) X.h U.S.x > o ",
"u.u.n.-._ * 9 f.8XfXzX'.+.~ :.<.b.M u.+.o.T Q / 1 N Y.z 3 R ) ) 2.Z..XU c.>.~ $   > j j X.% ! ` &.@.B Z D 2.) / 8.yX(.*XJ.p O % ",
"j.q.o.*.^ = 1 I.>X3X^.k.+.) >.1.J V m.=.` ^ % - 0 P g > O % ;.2.S XX@Xm.<.~ ; O : V A 7 - * Q E X.e.C B #.>.; | l.7XkX:XW.3 % ~ ",
"w.+.( ^ ~ X , U.H.L.i.@./ _ 4.K }.G $.{ ' Q $ 9 a p O X % ~ O.#.G {.F 2._ / +.h K.F.b 5 % ^ ! %.7.u.i.n.&.) % q tX2XfXwXuXX.% :.",
"7.%.! Q Q O N Y.l < 2 / ) <.V.XX|.c.<.* $   < g N 9 % Q ' } o.H n D x.;.( 8.g._.*XF.p O % ^ E q q.h.7.o.' ~ - < (.-X2X[.h.X.) <.",
"%.] ^ % o 0 P g > X & ;.<.S XX+XM.<.;.; X < l R.u - ~ ^ T o.e.C B w ,.* / j.9XkXkXY.t % * { o.q.g.q.| E ` % O p F.D.!.w.@.E ) 4.",
"{ ^ ~ o 9 p g . X * ^ _ 1.G }.K 3./ / +.h v F.v > o ^ ! @.7.6.u.0.&.) * 9 E.,XfXwXtXX.; :.5.m.s.u.+.( ! ~ o > A L.x 3 ; ) ) 2.J ",
"~ $   . g N +.o Q ` } @.H Z D 1.>.( 8.g.].*XH.N O $ ` E | q.k.w.%.} ) $ 1 U.-X,X[.h.X.) <.9.P N r.{ ` Q ; + 7 H g # $ * ;.<.b.XX",
"% O < l R.u + ~ ) ! o.e.s.C q <.; / h.9XlXhX_.t % * { @.q.d.q.X.E ! / X y S.G.R.q.@.( ) v.P  XD $.{ ^ Q Y 9 g s O X ; ^ ,.S L I.",
"X.h K.F.b < $ ^ ! { +.u.y.n.&._ & 2 f.,XvX2XiX+.; >.2.b.M i.+.( ! ~ Q . Z I.l < + _ ) 2.K .XU 3.>.~ =   5 B g | o ^ ' ] +.H A K ",
"pX^.>X%XN = $ ' E +.w.h.q.@.} ~ $ 1 K.>X,X].k.+.) <.S P m B.*.] ~ ~ + 7 P p . X * ;.2.F XX@XM.<.;.- O 7 Z P 7 - * ^ ! @.q.C H 9.",
"9XzXhX_.7.o & _ %.q.i.q.9 ( ! ^ X y S.H.!.r.$./ ) 4.J  XH #.&.' Q + q p u O X ; ~ O.f N {.N.<._ / X.h U.J.x > % ^ ! o.q.y.w.0.&.",
"3XbXxXsX+.% :.<.z.M u.7.( Q ~ Q 1 j I.l 1 = ~ ) 4.K .XI c.>.~ X   < N l X.o Q ` { +.B A G 4.) / w.tX_.*XF.u = * ` E +.w.i.7.o.[ ",
"*X4X[.k.@._ <.z.L V n.%.{ ! * o 0 H p > o ; ;.<.F  X@XM.5.* % + : n A 0 Y ~ ! ! @.e.s.B 9.>.; X.l.7XlX:XY.3 % ~ } @.q.l.e.| T ` ",
"D.L.q.@./ ) 4.U  XJ #.{ ^ Q o 2 g g 1 o % ^ O.w J }.F 2._ / +.h U.F.I.> $ ^ ! o.7.w.i.r.{ ;.$ 8 E.2XvXwXtX+.; :.2.B.s.u.+.( ! ~ ",
"z 3 - ) ) <.K XX|.x.<.:.$ X > N j | % ~ ^ } @.N.Z D 3.) ( 8.yX_.*XH.p O % ` E | w.d.7.%.} ~ $ 3 U.-XqXdXh.| ~ <.f L N n.%.` ~ * ",
"> = & ;.<.z.XX@XC.5.; % O < x R.u o Q ~ T %.q.s.B #.<.* R h.7XlXhX(.q % ~ } o.q.j.q.| T ! Q = p A.H.R.q.@./ ) x.L |.H 5.' ' ~ o ",
"X Q _ >.w G }.K 4.! / o.h L.J.n > $ ^ ! o.7.i.s.r.&.^ & 2 E.2XvXwXtXX.- ;.5.N.M u.+.( ( ~ % > N I.x 3 / ) ) x.P {.U 2.>.~ $   3 ",
"Q ^ } @.H V G 4.>.! 8.yX_.>XG.N = $ ` W  .w.h.7.o.} ~ = 3 U.>X3X[.h.X.~ <.9.J V n.*.] ~ * + u P p # $ % ;.<.F XXoXv.<.* ) = r n ",
"^ T %.e.C m w O.; / w.9XcXhX/.d - & { o.q.j.6.2 T ! ~   e A.=X!.w.o./ ) v.K  XD -.{ ' ! Q 9 j u O   * ~ <.f I R.F 2.) - X.h K.J."
};
