/* XPM */
static char *result[] = {
/* columns rows colors chars-per-pixel */
"64 64 92 1 ",
"  c #030302",
". c #0D0A04",
"X c #0C0C0C",
"o c #110F0F",
"O c #16130E",
"+ c #1F1C16",
"@ c #23221D",
"# c #2C261D",
"$ c #2F291F",
"% c #211D21",
"& c #272624",
"* c #282621",
"= c #2B2926",
"- c #2D2B28",
"; c #312B21",
": c #312F2C",
"> c #33312E",
", c #3D362B",
"< c #3F382F",
"1 c #332B30",
"2 c #393633",
"3 c #3C3935",
"4 c #39313A",
"5 c #3E3C39",
"6 c #40392F",
"7 c #403636",
"8 c #433B31",
"9 c #413E3C",
"0 c #4C3E3E",
"q c #4A4034",
"w c #44413E",
"e c #4D403F",
"r c #3B3D45",
"t c #3E3F48",
"y c #3F4047",
"u c #3F4149",
"i c #444344",
"p c #4D4242",
"a c #4E4945",
"s c #43454C",
"d c #46484D",
"f c #4B4A4D",
"g c #524345",
"h c #514C46",
"j c #544648",
"k c #534B4A",
"l c #5B4D4D",
"z c #56514C",
"x c #5B544C",
"c c #4C4C53",
"v c #5B4F52",
"b c #584D59",
"n c #4F5159",
"m c #555255",
"M c #5B5453",
"N c #5E5955",
"B c #55555B",
"V c #5A565A",
"C c #57585C",
"Z c #5C5A5B",
"A c #60574B",
"S c #635A4D",
"D c #625354",
"F c #635C55",
"G c #685F50",
"H c #645659",
"J c #625E5A",
"K c #6A5A5C",
"L c #696053",
"P c #66615C",
"I c #6B655E",
"U c #6F685E",
"Y c #716A5F",
"T c #5D5361",
"R c #615764",
"E c #6A5C62",
"W c #666262",
"Q c #6B6662",
"! c #6E6965",
"~ c #66656B",
"^ c #6A6668",
"/ c #6E6B69",
"( c #726D66",
") c #736E69",
"_ c #767066",
"` c #797267",
"' c #76716B",
"] c #79736D",
"[ c #7D786F",
"{ c #777370",
"} c #797571",
"| c #7D7872",
/* pixels */
" #--==:=--=---------------=====o *---------:--------======&&&&&X",
":IUUUYUUIUUIIQQUUUIIIQIQQIQWQIW0>UUYUQIIIIIIIWUWUWWIWPPPPPPPPJJ5",
"6Y((((((((__(____))`__/_(__/(()e6`)(____((Y/_)(((((/U!!UII!IIIIw",
",Y((((Y((((___/__(((()((((!Q(!(p6_)__!!/(/(')(()__/_(!!U!IWPPIIw",
",Y(YLxMJU()((_))_)((()))!PzNP!(g<_(_IMxJW//())'`''_'////IPzlVPP0",
"6Y(IzxpxP(()_))_))`)__)(PxzpMW/g<__!zxaaP!((`''`'''_'((!JxzaaNP0",
"6Y(FS|QjZ!))'))_)_)_)))(xL|JjP!p3__Ix[/gP!)))`]`']]{'''UMG|QpNJ0",
",YYLM~RMN/)))')))_())__(LN~TMP!p6__PP~TlP!)'''']'`{`]''YFM^TkZP0",
",Y_UFCCCI//'''_/))))))_)PFbHKE)g6``(JCCNP_/]]]']])]]]]])PNmmVJI0",
",(__UGP!''__/'_')()))))))UKE())j6`']YPPI(__{']]]]]]]))]]QPFJPQW0",
",_____``'''_'_/')(())))))])''))jq`'']'''_'_{'''{])]]]]]''(((!!Q0",
",_'___'''''//{/_)/))((())))')`)j<]]'`''''''_']]]]]]]])'''')(!!Q0",
",____`'''''/{')))()(((())_)_'')j6`]]`''''''{_{'`]]])])]]'))(YQU0",
",Y__`'``''''_))))(()^(()))'''')jq]]']]''''''`''')]]]])]{'))(!!Q0",
",_``'`_'''')'))))()))((^())''''j<]]]]]{]{{_'{'`')]]]{)''))(((QQ0",
",_``_]'''''')'))))()^(!!())''''j6`]]]'''''{_''{{]]])''''')((Q(!0",
",_`'```{'`{/{_)))/'//Y//^))''''j6[{{{]`{{'''''')))])]{)E|)E)E)Eg",
",_{``{{`{_'__)/)()((/((!/))''''j6`[``]{{]''{''{{]]]])]){))))]EEg",
",__``````{''//{))'////!!/())''{j6[[{]{]]]]''')''])){|]{))))](((g",
",_``{{`{]{]'{)))///((!)!(())''{j6[{`{{{]{]'{''){{){)E{){)))EE(E0",
",_{``'`{]`]]'''/)(//!!!/(/)))'{j6`[[]]]]']{'{)'))))]){)){)))`(Eg",
",_```[`{]]]]''/'/(//)!!!!!!())'j6[{`]'}]{]{''{''){]|)){))))(((!e",
",_''''`[']{''')/////!//!^!!/)))j6`[{{{{{{]{{''){)))E){]]{/)((!(g",
",_''_UY/'{{''{'/(//!/!!!!WHKQ^)j<[[{'!U/''{'{'{)]{){{E))/KHKE!Eg",
",_`YNhhN!'{{''/////(!!!WJzzyVW)g<[{'PhwF~'{{{'){){))))'/MMaazW^e",
",_'LxUxhJ)''{'{///!(!W//zSUSpJ!g,`{!xULwW/'''{{'{){)//'WNAUzpZQp",
",__FS{WxJ){''')//!!!//W/NS[IeH^g6[}Ix'/aP//{{'/'){{)'))!MG]EgJWp",
",_'UznBCW)'{'{/)//!!!!!WNmCcfJ/g3`{(FnnN~/{{'{{{))/{))//JMBcvJQp",
",(`'UPFP'{{'')///////W/WWJCmNU)g6]}{!JPQ/{{/{/{{{))))//)!KMJJW!p",
",_'_'(_'{'''')///W!/!W/!!WWWW/)k6]{{{)){{{{{{{{{){{)/{{)/^!^/!Q0",
",_'''{[{{}]]{{/{///{///)!//')){f8[{{{{{{{{{{{{{{{{{){/))))))(/(g",
"+zCCCCCCCCCncduuuuuuuuuuuddnnCB4@CCCCCCCBBBBBBCCBTBTTBTTBBBnBbb1",
" 8awwwwwwww52>--==-===-::337790-O5w5322222555wwwwwwwww9w99ww5w5+",
";Y__``]_''__(/IIIQIIPIU((^)()()vq`)_((Y((((_(__/((_/((!!!!/III!w",
";_'```_]``'_'(((/Q(Q!Q(()_''__'vq``__))_(_(__'('_(/(/(U(U!!!!!Iw",
";Y_''[]`]`'''(Y!(!QQ((()))((')_Mq`__(Y!Y_(('_)'(/_/_(((/(!(IUI!e",
";__`(LP!'_'''((/!!!_/(()QKFNJ!)lq`_YFzmL!(Y(_)_)_)/((//(QJNNPIQe",
";Y__xzpN/'_'('('_!Y!()'QKxzpzH)vq'_IxxazP/((__)''(_/(((/FxxpaPQ0",
"$__LS]PzW_)''('(()((((_UNL]DkMQvq__xL|PzN/(_)'))/_/_(/(UMG]I0JP0",
";Y'Ih~CxW('(('/(((((/()(NMWMvVQD8_!PN~TMJ(()__))'(_/_/(UNN^VgJW0",
";Y`_FcNJ/)))))((/(!(((()KDbVNF)vq__IFCNNI()'`')'))))((^(PMmcMJQ0",
";Y]_'_((_)_)))('(((//Y/((EPKP(_vq_'_UIP!___')')`))((((((!PPPPQU0",
";Y`'_'']''')`))_)(/((/(/)))))))vq_'_'_]__''_'`')`)())^((((Q!Q!Q0",
";_`'''_''_'')))))())((/YE))))]{Dq_'____]'`'''`''))))(((^Q((QQ!Q0",
";Y'__''_'''''''__()/((//')'')''vq_'_`''_''']''')))))()(((QQ(QQ(0",
";Y_']_''''''_'/')))_(/(!E)))'''Dq_'_]__]'``']''`)))])))((((QQQY0",
";Y___'_]'''''/'//_)/_((())))')'Dq_''_`]`]`']`'''''']''))(((QQQE0",
";Y'_''_''{'''''''/)_/(/()))))){bq_'']'_]']''''''])]'']''(((Q((Q0",
";Y'_)'_'''''{'''))))))^)())))){D8'''''''{__{__']]]]]]]]''/E)E(E0",
";Y')_'')'''''_''{))))))())))))'Dq'''''''_{_''{]]]]]]]]}''))((EQ0",
"$Y)))))''''''{/'')))))/))))')))Dq''''''''/''{][]]]{]]}}''))/QQQ0",
"$U_)__''_)'{'''')){)))))){)))){Dq_'''''''{_{]]]}]]]{]}]])'E)(E(0",
"$Y`())))'''''''/){))))))))){/))bq`'''/'''''{]{]]]]]|{]]})))!QQQ0",
"$Y)()_))''/''{'{{)))))))))){)){D8_''{/'/)''']]}]]|]]}]]]{)(!QQQ0",
"$U))()))/'/'''''{)))))))'))/)/'D5_'/'''/'{'{{]][]{]{]]}{))((QQQ0",
"$U)()U!('/''/{/'){){))))EEHHE/)b8_''/PWU//)']]]{|{]|}{]{)WJKKQE0",
"$I(_PhzF!/_/'''//)))){))NxajkZ)M8`'!ChhxW/)]{]{{{{{]{{]_KzaaMPW0",
"$I(PxIxzP//)'//'{){/)/'QNSUllv~M8'/PxUGwJ!//_{]]]]]{''_/NSYMeZP0",
"$U(Nx`WmP!/_'''/)){/)))^NS'HfVWM8('Wx`UhZ~/)/{_{))')///QMS[Q0NE9",
"$I(UhcdN~!/(///')//)/)/^PznczV~M6_/INndfP~//)////))/)//^FmBdfZW0",
"$U!UIJJWI!/'//'/{)//))))IZNZCW/z8///PNNP~//~/)//////^!!!QHNVMJE0",
"$I!!!(!!/////((////)////!W!Q!!/m8_/'//////////////!!!!^Q^WQWWWI9",
"#UY/((////'//'////////^/////~~/n8(}{{{//{////////^^^!W^^QWWWWWW0",
".icffddffddcufuusssstsuuutrruuu-Ouuuuuuuududuussssssssysusysytr%"
};
