/* XPM */
static char *result[] = {
/* columns rows colors chars-per-pixel */
"64 88 6 1 ",
"  c #2D0D40",
". c #57197C",
"X c #EA5EE1",
"o c #FC95FE",
"O c white",
"+ c None",
/* pixels */
"++++++++++++++++++++++++++++++++++++++++++++++++++++++++++++++++",
"++++++++++++++++++++++++++++++++++++++++++++++++++++++++++++++++",
"++++++++++++++++++++++++++++++++++++++++++++++++++++++++++++++++",
"++++++++++++++++++++++++++++++++++++++++++++++++++++++++++++++++",
"++++++++++++++++++++++++++++++++++++++++++++++++++++++++++++++++",
"++++++++++++++++++++++++++++++++++++++++++++++++++++++++++++++++",
"++++++++++++++++++++++++++++++++++++++++++++++++++++++++++++++++",
"++++++++++++++++++++++++++++++++++++++++++++++++++++++++++++++++",
"++++++++++++++++++++++++++++++++++++++++++++++++++++++++++++++++",
"++++++++++++++++++++++++++++++++++++++++++++++++++++++++++++++++",
"++++++++++++++++++++++++++++++++++++++++++++++++++++++++++++++++",
"++++++++++++++++++++++++++++++++++++++++++++++++++++++++++++++++",
"++++++++++++++++++++++++++++++++++++++++++++++++++++++++++++++++",
"++++++++++++++++++++++++++++++++++++++++++++++++++++++++++++++++",
"++++++++++++++++++++++++++++++++++++++++++++++++++++++++++++++++",
"++++++++++++++++++++++++++++++++++++++++++++++++++++++++++++++++",
"++++++++++++++++++++++++++++++++++++++++++++++++++++++++++++++++",
"++++++++++++++++++++++++++++++++++++++++++++++++++++++++++++++++",
"++++++++++++++++++++++++++++++++++++++++++++++++++++++++++++++++",
"++++++++++++++++++++++++++++++++++++++++++++++++++++++++++++++++",
"++++++++++++++++++++++++++++++++++++++++++++++++++++++++++++++++",
"++++++++++++++++++++++++++++++++++++++++++++++++++++++++++++++++",
"++++++++++++++++++++++++++++++++++++++++++++++++++++++++++++++++",
"++++++++++++++++++++++++++++++++++++++++++++++++++++++++++++++++",
"++++++++++++++++++++++++++++++++++++++++++++++++++++++++++++++++",
"++++++++++++++++++++++++++++++++++++++++++++++++++++++++++++++++",
"+++++++++++++++++++++++++XX+++++++++++++++++++++++++++++++++++++",
"+++++++++++++++++++++++XXooX++++++++++++++++++++++++++++++++++++",
"++++++++++++++++++++++Xooooo++++++++++++++++++++++++++++++++++++",
"++++++++++++++++++++XX++++Xo++++++++++++++++++++++++++++++++++++",
"+++++++++++++++++++X+++++Xoo++++++++++++++++++++++++++++++++++++",
"+++++++++++++++++++++++++oo+++++++++++++++++++++++++++++++++++++",
"++++++++++++++++++++++++Xoo+++++++++++++++++++++++++++++++++++++",
"++++++++++++++++++++++++Xo++++++++++++++++++++++++++++++++++++++",
"++++++++++++++++++++++++Xo++++++++++++++++++++++++++++++++++++++",
"+++++++++++++++++++++++++oX+++++++++++++++++++++++++++++++++++++",
"++++++++++++++++++++++++++XX++++++++++++++++++++++++++++++++++++",
"+++++++++++++++++++++++++++XX+++++++++++++++++++++++++++++++++++",
"++++++++++++++++++++++++++XX++++++++++++++++++++++++++++++++++++",
"+++++++++++++++++++++++++XX+++++++++++++++++++++++++++++++++++++",
"++++++++++++++++++++++++Xoo+++++++++++++++++++++++++++++++++++++",
"++++++++++++++++++++++++oX++++++++++++++++++++++++++++++++++++++",
"+++++X+++++++++++++++++Xo++++++++++++++++XXXXX++++++++++++++++++",
"+++++X+++++++++++++++++oo+++++++++++++++XoooooX+++++++++++++++++",
"+++++XX++++++++++++++++ooX+++++++++++++Xoo+++oo+++++++++++++++++",
"+++++XXX++++++++++++++++ooX+++++++++++Xoo+++++++++++++++++++++++",
"++++++oo++++++XX++++++++oooX+++++++++Xoo++++++++++++++++++++++++",
"+++++++oX+++++ooX++++++++Xoo+++++++++Xo+++++++++++++++++++++++++",
"+++++++oo++++Xooo+++++++++XoX+++++++++XX++++++++++++++++++++++++",
"+++++++ooX+++ooooX+++++++++XX++++++++++oX+++++++++XXX+++++++++++",
"+++++++Xoo+++ooooX++++++++++XX+++++++++oX++++++++XoooX++++++++++",
"+++++++Xoo+++o++XXX+++++++++XX++++++++XoX+++++++XX++oXXXXXXX++++",
"++++++++XoX++o+++XX++++++++++X+++++++XoX+++++++XX++++XXX+++oX+++",
"++++++++XooXXo++++X++++++++++X+++++++XX++++++++X++++++++++++o+++",
"+++++++++ooooo++++X++++++++++X++++++XX+++++++++X+++++++++++++X++",
"+++++++++Xoooo++++X+X+++++++++++++++X++++++++++++++++++++++++o++",
"++++++++++oooo++++X+++++++++++++++++X+++++++++XX+++++++++++++o++",
"++++++++++Xooo++++++++++X+++++++++++X++++++++XXX++++++++++++X+++",
"+++++++++++XX++++++++++++++ooooo++++++++++++XoX++++++++++++X++++",
"++++++++++++++++++++++++++oOOOOOo++++++++++XoX++++++++++++X+++++",
"+++++++++++++++++++++++++oOOOOOOOo+++++++++oX++++++++++++X++++++",
"++++++++++++++++++++++++oOOOOOOOOOo++++++XXXX+++++++++XX++++++++",
"+++++++++++++++++++++++oOOOOOOOOOOOo+++++XX+++++++++++XX++++++++",
"+++++++++++++++++++++++oOOOOOOOOOOOo+++++XX++++++++++++XX+++++++",
"++++++++X++++++++++++++oOOOOOOOOOOOo+++++X+++++++++++++ooX++++++",
"++++++++o++++++++++++++oOOOOOOOOOOOo+++++++ +++++++++++ooX++++++",
"++XXXX++o++++++++++++++oOOOOOOOOOOOo++++++. ++++++++++XoXX++++++",
"+Xoo+oXXo++++ ++++++++++oOOOOOOOOOo+++++++. ++++++++XXooX+++++++",
"+oo+++oo+++++ .++++++++++oOOOOOOOo+++++++. +++++++XXooo+++++++++",
"+oo+++++++++++..++++++++++oOOOOOo+++++++.. +++  +Xooo+++++++++++",
"+oo++++++++++++  ++++++++++ooooo+++++++... +++ ++oo+++++++++++++",
"++oX++++++++++++  +++++ ++++++++++++++...++++  +++++++++++++++++",
"+++XX++++++++++++  ++++  +++++++++++++..++++  ++++++++++++++++++",
"++++XXXX++++++++++   ++   +++++++++++..+++++..++++++++++++++++++",
"++++XoooX++  ++++++  +++  +++++++ ++...++++..+++++XX++++++++++++",
"+++++XoX++++  ++++++  +++ .+++++  ++  ++++...++++Xoo++++++X+++++",
"++++++X++++++   ++++    +  .++    ++ ++  ...++++Xooo+++++X++++++",
"+++++++++++++... ...+    +...  .  ++ +  ...+++++oo++XXXXX+++++++",
"+++++++++  +++++................ +...+ ...++++++Xo+++ooo++++++++",
"++++++++++..  +++   ..... ...... ..      +++++++Xo++++++++++++++",
"+++++++++++...         ..  .......      ++++++++XoX+++++++++++++",
"++++++++++++++++            ..        +++++++++++oo+++++++++++++",
"++++++++++++++++++++                 +++++++++++++++++++++++++++",
"++++++++++++++++++++++++        ++++++++++++++++++++++++++++++++",
"++++++++++++++++++++++++++++++++++++++++++++++++++++++++++++++++",
"++++++++++++++++++++++++++++++++++++++++++++++++++++++++++++++++",
"++++++++++++++++++++++++++++++++++++++++++++++++++++++++++++++++",
"++++++++++++++++++++++++++++++++++++++++++++++++++++++++++++++++"
};
