/* XPM */
static char *result[] = {
/* columns rows colors chars-per-pixel */
"64 64 144 2 ",
"   c #E40000",
".  c #E50000",
"X  c #E60000",
"o  c #E70000",
"O  c #E70101",
"+  c #E70202",
"@  c #E60303",
"#  c #E60404",
"$  c #E70404",
"%  c #E70505",
"&  c #E80000",
"*  c #E90000",
"=  c #EA0000",
"-  c #E80303",
";  c #EB0202",
":  c #EC0000",
">  c #E80404",
",  c #E80505",
"<  c #E90505",
"1  c #E60808",
"2  c #E70808",
"3  c #E80808",
"4  c #E90808",
"5  c #E80909",
"6  c #E80B0B",
"7  c #E80F0F",
"8  c #F00000",
"9  c #F10000",
"0  c #F20000",
"q  c #F30000",
"w  c #F40000",
"e  c #F50000",
"r  c #F60000",
"t  c #F70000",
"y  c #F90000",
"u  c #FB0000",
"i  c #FE0000",
"p  c red",
"a  c #F30909",
"s  c #F40909",
"d  c #E81010",
"f  c #E81111",
"g  c #E81717",
"h  c #E91717",
"j  c #E81818",
"k  c #F11A1A",
"l  c #F11B1B",
"z  c #F91B1B",
"x  c #E82424",
"c  c #E82525",
"v  c #E92525",
"b  c #ED2626",
"n  c #EB2929",
"m  c #EA2D2D",
"M  c #EA2E2E",
"N  c #F12626",
"B  c #E93131",
"V  c #EA3030",
"C  c #EA3131",
"Z  c #EA3232",
"A  c #EA3333",
"S  c #F63939",
"D  c #EE4343",
"F  c #EC4545",
"G  c #EE4444",
"H  c #EC4646",
"J  c #F14343",
"K  c #F14444",
"L  c #F24C4C",
"P  c #F34C4C",
"I  c #EF5050",
"U  c #EF5353",
"Y  c #EF5959",
"T  c #F05959",
"R  c #F15959",
"E  c #F05B5B",
"W  c #F05F5F",
"Q  c #F55F5F",
"!  c #F06060",
"~  c #F16262",
"^  c #F26666",
"/  c #F46565",
"(  c #F56565",
")  c #F16A6A",
"_  c #F16B6B",
"`  c #F26B6B",
"'  c #F77373",
"]  c #F67474",
"[  c #F67676",
"{  c #F87B7B",
"}  c #FB7A7A",
"|  c #F87E7E",
" . c #F87F7F",
".. c #F68585",
"X. c #F68686",
"o. c #F98080",
"O. c #F98282",
"+. c #F88787",
"@. c #FB8A8A",
"#. c #FD8989",
"$. c #FD8A8A",
"%. c #FE9191",
"&. c #FE9494",
"*. c #FF9595",
"=. c #FE9898",
"-. c #FF9898",
";. c #FF9999",
":. c #FD9A9A",
">. c #FB9D9D",
",. c #FB9E9E",
"<. c #FA9F9F",
"1. c #FF9D9D",
"2. c #FF9F9F",
"3. c #FFA1A1",
"4. c #FFA3A3",
"5. c #FFA5A5",
"6. c #FFA9A9",
"7. c #FFB1B1",
"8. c #FEB2B2",
"9. c #FFB3B3",
"0. c #FDB6B6",
"q. c #FFBDBD",
"w. c #FFC0C0",
"e. c #FFC5C5",
"r. c #FFC6C6",
"t. c #FEC9C9",
"y. c #FFC9C9",
"u. c #FFD3D3",
"i. c #FFD4D4",
"p. c #FFD7D7",
"a. c #FFDBDB",
"s. c #FFDFDF",
"d. c #FFE3E3",
"f. c #FFE5E5",
"g. c #FFE6E6",
"h. c #FFE7E7",
"j. c #FFE8E8",
"k. c #FFE9E9",
"l. c #FFEBEB",
"z. c #FFECEC",
"x. c #FFEEEE",
"c. c #FFEFEF",
"v. c #FFF1F1",
"b. c None",
/* pixels */
"b.b.b.b.b.b.b.b.b.b.b.b.b.b.b.b.b.b.b.b.b.b.b.b.b.b.b.b.X o e p p e o X b.b.b.b.b.b.b.b.b.b.b.b.b.b.b.b.b.b.b.b.b.b.b.b.b.b.b.b.",
"b.b.b.b.b.b.b.b.b.b.b.b.b.b.b.b.b.b.b.b.b.b.b.b.b.b.b.b.X o e p p e o X b.b.b.b.b.b.b.b.b.b.b.b.b.b.b.b.b.b.b.b.b.b.b.b.b.b.b.b.",
"b.b.b.b.b.b.b.b.b.b.b.b.b.b.b.b.b.b.b.b.b.b.b.b.b.b.b.b.& o r p p r & X b.b.b.b.b.b.b.b.b.b.b.b.b.b.b.b.b.b.b.b.b.b.b.b.b.b.b.b.",
"b.b.b.b.b.b.b.b.b.b.b.b.b.b.b.b.b.b.b.b.b.b.b.b.b.b.b.b.o o r p p r o o b.b.b.b.b.b.b.b.b.b.b.b.b.b.b.b.b.b.b.b.b.b.b.b.b.b.b.b.",
"b.b.b.b.b.b.b.b.b.b.b.b.b.b.b.b.b.b.b.b.b.b.b.b.b.b.b.b.o o t p p t o o b.b.b.b.b.b.b.b.b.b.b.b.b.b.b.b.b.b.b.b.b.b.b.b.b.b.b.b.",
"b.b.b.b.b.b.b.b.b.b.b.b.b.b.b.b.b.b.b.b.b.b.b.b.b.b.b.b.o & r p p r o o b.b.b.b.b.b.b.b.b.b.b.b.b.b.b.b.b.b.b.b.b.b.b.b.b.b.b.b.",
"b.b.b.b.b.b.b.b.b.b.b.b.b.b.b.b.b.b.b.b.b.b.b.b.b.b.b.b.& o w p p w o & b.b.b.b.b.b.b.b.b.b.b.b.b.b.b.b.b.b.b.b.b.b.b.b.b.b.b.b.",
"b.b.b.b.b.b.b.b.b.b.b.b.b.b.b.b.b.b.b.b.b.b.b.b.b.b.b.& o o 8 y y 8 & o X b.b.b.b.b.b.b.b.b.b.b.b.b.b.b.b.b.b.b.b.b.b.b.b.b.b.b.",
"b.b.b.b.b.b.b.b.b.b.b.b.b.b.b.b.b.b.b.b.b.b.b.b.b.X o o & o : 9 9 : o o o o X b.b.b.b.b.b.b.b.b.b.b.b.b.b.b.b.b.b.b.b.b.b.b.b.b.",
"b.b.b.b.b.b.b.b.b.b.b.b.b.b.b.b.b.b.b.b.b.b.b.b.o & o * o o & = = & o o = o & o b.b.b.b.b.b.b.b.b.b.b.b.b.b.b.b.b.b.b.b.b.b.b.b.",
"b.b.b.b.b.b.b.b.b.b.b.b.b.b.b.b.b.b.b.b.b.b.b.b.& o p p e * o o o o * e p p o X b.b.b.b.b.b.b.b.b.b.b.b.b.b.b.b.b.b.b.b.b.b.b.b.",
"b.b.b.b.b.b.b.b.b.b.b.b.b.b.b.b.b.b.b.b.b.b.b.b.> + p p t * X o o X * t p p + > b.b.b.b.b.b.b.b.b.b.b.b.b.b.b.b.b.b.b.b.b.b.b.b.",
"b.b.b.b.b.b.b.b.b.b.b.b.b.b.b.b.b.b.b.b.b.b.b.b.6 % i p q o .     . o q p i % 6 b.b.b.b.b.b.b.b.b.b.b.b.b.b.b.b.b.b.b.b.b.b.b.b.",
"b.b.b.b.b.b.b.b.b.b.b.b.b.b.b.b.b.b.b.b.b.b.b.b.4 > r u 8 o . . . . X 8 u r $ 2 b.b.b.b.b.b.b.b.b.b.b.b.b.b.b.b.b.b.b.b.b.b.b.b.",
"b.b.b.b.b.b.b.b.b.b.b.b.b.b.b.b.b.b.b.b.b.b.b.b.& o s z N m C A A C m N z a o & b.b.b.b.b.b.b.b.b.b.b.b.b.b.b.b.b.b.b.b.b.b.b.b.",
"b.b.b.b.b.b.b.b.b.b.b.b.b.b.b.b.b.b.b.b.b.b.b.X X o l S L T ! ~ ~ ! Y P S k X X X b.b.b.b.b.b.b.b.b.b.b.b.b.b.b.b.b.b.b.b.b.b.b.",
"b.b.b.b.b.b.b.b.b.b.b.b.b.b.b.b.b.b.b.b.b.& X X X X b P / [  .O.O. .[ ( P b X X X o X b.b.b.b.b.b.b.b.b.b.b.b.b.b.b.b.b.b.b.b.b.",
"b.b.b.b.b.b.b.b.b.b.b.b.b.b.b.b.b.b.b.b.o X X = X . M R [ @.&.-.-.&.@.[ R m X X = o X o b.b.b.b.b.b.b.b.b.b.b.b.b.b.b.b.b.b.b.b.",
"b.b.b.b.b.b.b.b.b.b.b.b.b.b.b.b.b.b.b.b.& X p p 0 o V W | &.2.4.4.2.&.| W V o 0 p p X & b.b.b.b.b.b.b.b.b.b.b.b.b.b.b.b.b.b.b.b.",
"b.b.b.b.b.b.b.b.b.b.b.b.b.b.b.b.b.b.b.- # ; p p 9 o v E { %.1.3.3.1.%.{ E c o 9 p p ; $ @ b.b.b.b.b.b.b.b.b.b.b.b.b.b.b.b.b.b.b.",
"b.b.b.b.b.b.b.b.b.b.b.b.b.b.b.b.b.X X # 1 < w 0 = . 5 I ' $.*.;.;.*.$.' I 3   = 0 w < 2 $ & o b.b.b.b.b.b.b.b.b.b.b.b.b.b.b.b.b.",
"b.b.b.b.b.b.b.b.b.b.b.b.b.b.b.b.X X X ; , > * & .   j U ] $.*.;.;.*.$.] U g   . & * $ < ; o X X b.b.b.b.b.b.b.b.b.b.b.b.b.b.b.b.",
"b.b.b.b.b.b.b.b.b.b.b.b.b.b.b.b.o X p p w * O o o d F ) +.:.5.6.6.5.:.+.) F 7 o o o * w p p o o b.b.b.b.b.b.b.b.b.b.b.b.b.b.b.b.",
"b.b.b.b.b.b.b.b.b.b.b.b.b.b.b.X X = p p 0 & o h n G ^ X.<.8.q.w.w.q.8.<.X.^ D n h o & 0 p p = X X b.b.b.b.b.b.b.b.b.b.b.b.b.b.b.",
"b.b.b.b.b.b.b.b.b.& X > 6 2 X X X X 0 9 = . o n J Q o.>.0.t.i.p.p.i.t.0.,.o.Q K n o . = 9 0 X X X X 2 6 > & o b.b.b.b.b.b.b.b.b.",
"b.b.b.b.b.b.b.b.X & o + % > o X X X o o     f D Q } =.9.y.a.f.k.k.f.a.y.9.=.} Q D 7     o o X X X o $ % + o & X b.b.b.b.b.b.b.b.",
"b.b.b.b.b.b.b.b.o o p p i r s k b m V x 3 j H ^ o.=.7.e.p.f.x.v.v.x.f.p.r.7.=.o.^ F g 3 c V m b k s r i p p X o b.b.b.b.b.b.b.b.",
"b.b.b.b.b.b.b.X o = p p p u z S P R W E I U ` X.>.9.r.i.s.j.c.v.v.c.j.s.i.r.9.,.X.) U I E W R P S z u p p p = o X b.b.b.b.b.b.b.",
"X X X o o o X o o o e t q 8 N P ( [ | { ' ] +.<.0.y.p.s.d.h.l.z.z.l.h.d.s.p.y.0.<.+.] ' { | [ ( P N 8 q t e o o o & o o o X X X ",
"o o o o o & o & o & * * o X m Y [ @.&.%.#.$.:.8.t.a.f.j.h.h.j.j.j.j.h.h.j.f.a.t.8.:.#.$.%.&.@.[ Y m X o * * & o & o & o o o o o ",
"e r r r t r w 8 : & o X . . Z !  .&.2.1.*.*.5.q.u.f.x.x.l.j.h.g.g.h.j.l.x.x.f.i.q.5.*.*.1.2.&. .! B . . X o & : 8 w r t r r r e ",
"p p p p p p p y 9 = o X   . A ~ O.-.4.3.;.;.6.w.p.k.v.v.z.j.g.g.g.g.j.z.v.v.k.p.w.6.;.;.3.4.-.O.~ A .   X o = 9 y p p p p p p p ",
"p p p p p p p y 9 = o X   . A ~ O.-.4.3.;.;.6.w.p.k.v.v.z.j.g.g.g.g.j.z.v.v.k.p.w.6.;.;.3.4.-.O.~ A .   X o = 9 y p p p p p p p ",
"e r r r t r w 8 : & o X . . Z !  .&.2.1.*.*.5.q.u.f.x.x.l.j.h.g.g.h.j.l.x.x.f.i.q.5.*.*.1.2.&. .! B . . X o & : 8 w r t r r r e ",
"o o o o o & o o o o * * o o M T [ @.&.%.$.$.:.8.t.a.f.j.h.h.j.j.j.j.h.h.j.f.a.t.8.:.$.$.%.&.@.[ T m o o * * o o o o & o o o o o ",
"X X X o o o & o & o e t q 8 N L / [ | { ' ] +.<.0.y.p.s.d.h.l.z.z.l.h.d.s.p.y.0.<.+.] ' { | [ / L N 8 q t e o o o & o o o X X X ",
"b.b.b.b.b.b.b.& o = p p p u z S P R W E I U _ ..>.9.r.i.s.j.c.v.v.c.j.s.i.r.9.,.X.) U I E W R P S z u p p p = o X b.b.b.b.b.b.b.",
"b.b.b.b.b.b.b.b.o o p p i r s k b M V c 5 j H ^ o.=.7.r.p.f.x.v.v.x.f.p.r.7.=.o.^ F j 5 c V M b l s r i p p X o b.b.b.b.b.b.b.b.",
"b.b.b.b.b.b.b.b.X X o + % > o o X . o o     f D Q } =.9.y.a.f.k.k.f.a.y.9.=.} Q G d     o o . X o o $ % + o & X b.b.b.b.b.b.b.b.",
"b.b.b.b.b.b.b.b.b.o X # 6 2 & X X X 0 9 = . o n J Q o.>.0.t.i.p.p.i.t.0.,.o.Q J n o . = 9 0 X X X & 4 6 > & o b.b.b.b.b.b.b.b.b.",
"b.b.b.b.b.b.b.b.b.b.b.b.b.b.b.X X = p p 0 & o h n G ^ ..<.8.q.w.w.q.8.<.X.^ D n h o & 0 p p = X X b.b.b.b.b.b.b.b.b.b.b.b.b.b.b.",
"b.b.b.b.b.b.b.b.b.b.b.b.b.b.b.b.X X p p w * + o o f H _ +.:.5.6.6.5.:.+._ H f o o O * w p p X X b.b.b.b.b.b.b.b.b.b.b.b.b.b.b.b.",
"b.b.b.b.b.b.b.b.b.b.b.b.b.b.b.b.& o o ; < $ * & .   j U ] $.*.;.;.*.$.] U j   . & * > < ; X X & b.b.b.b.b.b.b.b.b.b.b.b.b.b.b.b.",
"b.b.b.b.b.b.b.b.b.b.b.b.b.b.b.b.b.o X $ 2 < w 0 = . 3 I ' $.*.;.;.*.#.' I 3   = 0 w , 1 # & o b.b.b.b.b.b.b.b.b.b.b.b.b.b.b.b.b.",
"b.b.b.b.b.b.b.b.b.b.b.b.b.b.b.b.b.b.b.- # ; p p 9 o c E { %.1.3.3.1.%.{ E x o 9 p p ; # - b.b.b.b.b.b.b.b.b.b.b.b.b.b.b.b.b.b.b.",
"b.b.b.b.b.b.b.b.b.b.b.b.b.b.b.b.b.b.b.b.X o p p 0 o V W | &.2.4.4.2.&.| W V o 0 p p X X b.b.b.b.b.b.b.b.b.b.b.b.b.b.b.b.b.b.b.b.",
"b.b.b.b.b.b.b.b.b.b.b.b.b.b.b.b.b.b.b.b.o o X = X . M R [ @.&.-.-.&.@.[ R m X X = X X o b.b.b.b.b.b.b.b.b.b.b.b.b.b.b.b.b.b.b.b.",
"b.b.b.b.b.b.b.b.b.b.b.b.b.b.b.b.b.b.b.b.b.& X X X X b P / [  .O.O. .[ ( P b X X X o X b.b.b.b.b.b.b.b.b.b.b.b.b.b.b.b.b.b.b.b.b.",
"b.b.b.b.b.b.b.b.b.b.b.b.b.b.b.b.b.b.b.b.b.b.b.X o o k S L T ! ~ ~ ! Y P S k X X X b.b.b.b.b.b.b.b.b.b.b.b.b.b.b.b.b.b.b.b.b.b.b.",
"b.b.b.b.b.b.b.b.b.b.b.b.b.b.b.b.b.b.b.b.b.b.b.b.& o s z N M Z A A Z m N z a o X b.b.b.b.b.b.b.b.b.b.b.b.b.b.b.b.b.b.b.b.b.b.b.b.",
"b.b.b.b.b.b.b.b.b.b.b.b.b.b.b.b.b.b.b.b.b.b.b.b.2 > r u 8 o . . . . X 8 u r $ 2 b.b.b.b.b.b.b.b.b.b.b.b.b.b.b.b.b.b.b.b.b.b.b.b.",
"b.b.b.b.b.b.b.b.b.b.b.b.b.b.b.b.b.b.b.b.b.b.b.b.6 % i p q o .     . o q p i % 6 b.b.b.b.b.b.b.b.b.b.b.b.b.b.b.b.b.b.b.b.b.b.b.b.",
"b.b.b.b.b.b.b.b.b.b.b.b.b.b.b.b.b.b.b.b.b.b.b.b.# + p p t * X o o X * t p p + > b.b.b.b.b.b.b.b.b.b.b.b.b.b.b.b.b.b.b.b.b.b.b.b.",
"b.b.b.b.b.b.b.b.b.b.b.b.b.b.b.b.b.b.b.b.b.b.b.b.X X p p e * o o o o * e p p o X b.b.b.b.b.b.b.b.b.b.b.b.b.b.b.b.b.b.b.b.b.b.b.b.",
"b.b.b.b.b.b.b.b.b.b.b.b.b.b.b.b.b.b.b.b.b.b.b.b.o X o = o o & = = & o o = X & o b.b.b.b.b.b.b.b.b.b.b.b.b.b.b.b.b.b.b.b.b.b.b.b.",
"b.b.b.b.b.b.b.b.b.b.b.b.b.b.b.b.b.b.b.b.b.b.b.b.b.X o o & o : 9 9 : o o o o X b.b.b.b.b.b.b.b.b.b.b.b.b.b.b.b.b.b.b.b.b.b.b.b.b.",
"b.b.b.b.b.b.b.b.b.b.b.b.b.b.b.b.b.b.b.b.b.b.b.b.b.b.b.& o o 8 y y 8 & o X b.b.b.b.b.b.b.b.b.b.b.b.b.b.b.b.b.b.b.b.b.b.b.b.b.b.b.",
"b.b.b.b.b.b.b.b.b.b.b.b.b.b.b.b.b.b.b.b.b.b.b.b.b.b.b.b.& o w p p w o X b.b.b.b.b.b.b.b.b.b.b.b.b.b.b.b.b.b.b.b.b.b.b.b.b.b.b.b.",
"b.b.b.b.b.b.b.b.b.b.b.b.b.b.b.b.b.b.b.b.b.b.b.b.b.b.b.b.o & r p p r o o b.b.b.b.b.b.b.b.b.b.b.b.b.b.b.b.b.b.b.b.b.b.b.b.b.b.b.b.",
"b.b.b.b.b.b.b.b.b.b.b.b.b.b.b.b.b.b.b.b.b.b.b.b.b.b.b.b.o o t p p t o o b.b.b.b.b.b.b.b.b.b.b.b.b.b.b.b.b.b.b.b.b.b.b.b.b.b.b.b.",
"b.b.b.b.b.b.b.b.b.b.b.b.b.b.b.b.b.b.b.b.b.b.b.b.b.b.b.b.o o r p p r o o b.b.b.b.b.b.b.b.b.b.b.b.b.b.b.b.b.b.b.b.b.b.b.b.b.b.b.b.",
"b.b.b.b.b.b.b.b.b.b.b.b.b.b.b.b.b.b.b.b.b.b.b.b.b.b.b.b.X o e p p e o X b.b.b.b.b.b.b.b.b.b.b.b.b.b.b.b.b.b.b.b.b.b.b.b.b.b.b.b.",
"b.b.b.b.b.b.b.b.b.b.b.b.b.b.b.b.b.b.b.b.b.b.b.b.b.b.b.b.X o e p p e o X b.b.b.b.b.b.b.b.b.b.b.b.b.b.b.b.b.b.b.b.b.b.b.b.b.b.b.b.",
"b.b.b.b.b.b.b.b.b.b.b.b.b.b.b.b.b.b.b.b.b.b.b.b.b.b.b.b.X o e p p e o X b.b.b.b.b.b.b.b.b.b.b.b.b.b.b.b.b.b.b.b.b.b.b.b.b.b.b.b."
};
