/* XPM */
static char *result[] = {
/* columns rows colors chars-per-pixel */
"64 64 7 1 ",
"  c gray20",
". c #434343",
"X c #464646",
"o c #535353",
"O c gray39",
"+ c #777777",
"@ c gray53",
/* pixels */
"+@@@@@@@@@@@@@@@@@@@@@@@@@@@@@@O+@@@@@@@@@@@@@@@@@@@@@@@@@@@@@@O",
"o+@@@@@@@@@@@@@@@@@@@@@@@@@@@@O.o+@@@@@@@@@@@@@@@@@@@@@@@@@@@@O.",
"ooOOOOOOOOOOOOOOOOOOOOOOOOOOOO..ooOOOOOOOOOOOOOOOOOOOOOOOOOOOO..",
"ooOOOOOOOOOOOOOOOOOOOOOOOOOOOO..ooOOOOOOOOOOOOOOOOOOOOOOOOOOOO..",
"ooOOOOOOOOOOOOOOOOOOOOOOOOOOOO..ooOOOOOOOOOOOOOOOOOOOOOOOOOOOO..",
"ooOO+@@+OOOOOOOOOOOOOOOO+@@+OO..ooOO+@@+OOOOOOOOOOOOOOOO+@@+OO..",
"ooOO@OOXOOOOOOOOOOOOOOOO@OOXOO..ooOO@OOXOOOOOOOOOOOOOOOO@OOXOO..",
"ooOO@OOXOOOOOOOOOOOOOOOO@OOXOO..ooOO@OOXOOOOOOOOOOOOOOOO@OOXOO..",
"ooOOoXXoOOOOOOOOOOOOOOOOoXXoOO..ooOOoXXoOOOOOOOOOOOOOOOOoXXoOO..",
"ooOOOooOOOOOOOOOOOOOOOOOOooOOO..ooOOOooOOOOOOOOOOOOOOOOOOooOOO..",
"ooOOOOOOOOOOOOOOOOOOOOOOOOOOOO..ooOOOOOOOOOOOOOOOOOOOOOOOOOOOO..",
"ooOOOOOOOOOOOOOOOOOOOOOOOOOOOO..ooOOOOOOOOOOOOOOOOOOOOOOOOOOOO..",
"ooOOOOOOOOOOOOOOOOOOOOOOOOOOOO..ooOOOOOOOOOOOOOOOOOOOOOOOOOOOO..",
"ooOOOOOOOOOOOOOOOOOOOOOOOOOOOO..ooOOOOOOOOOOOOOOOOOOOOOOOOOOOO..",
"ooOOOOOOOOOOOOOOOOOOOOOOOOOOOO..ooOOOOOOOOOOOOOOOOOOOOOOOOOOOO..",
"ooOOOOOOOOOOOOOOOOOOOOOOOOOOOO..ooOOOOOOOOOOOOOOOOOOOOOOOOOOOO..",
"ooOOOOOOOOOOOOOOOOOOOOOOOOOOOO..ooOOOOOOOOOOOOOOOOOOOOOOOOOOOO..",
"ooOOOOOOOOOOOOOOOOOOOOOOOOOOOO..ooOOOOOOOOOOOOOOOOOOOOOOOOOOOO..",
"ooOOOOOOOOOOOOOOOOOOOOOOOOOOOO..ooOOOOOOOOOOOOOOOOOOOOOOOOOOOO..",
"ooOOOOOOOOOOOOOOOOOOOOOOOOOOOO..ooOOOOOOOOOOOOOOOOOOOOOOOOOOOO..",
"ooOOOOOOOOOOOOOOOOOOOOOOOOOOOO..ooOOOOOOOOOOOOOOOOOOOOOOOOOOOO..",
"ooOOOOOOOOOOOOOOOOOOOOOOOOOOOO..ooOOOOOOOOOOOOOOOOOOOOOOOOOOOO..",
"ooOOOOOOOOOOOOOOOOOOOOOOOOOOOO..ooOOOOOOOOOOOOOOOOOOOOOOOOOOOO..",
"ooOOOOOOOOOOOOOOOOOOOOOOOOOOOO..ooOOOOOOOOOOOOOOOOOOOOOOOOOOOO..",
"ooOOOOOOOOOOOOOOOOOOOOOOOOOOOO..ooOOOOOOOOOOOOOOOOOOOOOOOOOOOO..",
"ooOOOOOOOOOOOOOOOOOOOOOOOOOOOO..ooOOOOOOOOOOOOOOOOOOOOOOOOOOOO..",
"ooOOOOOOOOOOOOOOOOOOOOOOOOOOOO..ooOOOOOOOOOOOOOOOOOOOOOOOOOOOO..",
"ooOOOOOOOOOOOOOOOOOOOOOOOOOOOO..ooOOOOOOOOOOOOOOOOOOOOOOOOOOOO..",
"ooOOOOOOOOOOOOOOOOOOOOOOOOOOOO..ooOOOOOOOOOOOOOOOOOOOOOOOOOOOO..",
"ooOOOOOOOOOOOOOOOOOOOOOOOOOOOO..ooOOOOOOOOOOOOOOOOOOOOOOOOOOOO..",
"ooOOOOOOOOOOOOOOOOOOOOOOOOOOOO..ooOOOOOOOOOOOOOOOOOOOOOOOOOOOO..",
"ooOOOOOOOOOOOOOOOOOOOOOOOOOOOO..ooOOOOOOOOOOOOOOOOOOOOOOOOOOOO..",
"ooOOOOOOOOOOOOOOOOOOOOOOOOOOOO..ooOOOOOOOOOOOOOOOOOOOOOOOOOOOO..",
"ooOOOOOOOOOOOOOOOOOOOOOOOOOOOO..ooOOOOOOOOOOOOOOOOOOOOOOOOOOOO..",
"ooOOOOOOOOOOOOOOOOOOOOOOOOOOOO..ooOOOOOOOOOOOOOOOOOOOOOOOOOOOO..",
"ooOOOOOOOOOOOOOOOOOOOOOOOOOOOO..ooOOOOOOOOOOOOOOOOOOOOOOOOOOOO..",
"ooOOOOOOOOOOOOOOOOOOOOOOOOOOOO..ooOOOOOOOOOOOOOOOOOOOOOOOOOOOO..",
"ooOOOOOOOOOOOOOOOOOOOOOOOOOOOO..ooOOOOOOOOOOOOOOOOOOOOOOOOOOOO..",
"ooOOOOOOOOOOOOOOOOOOOOOOOOOOOO..ooOOOOOOOOOOOOOOOOOOOOOOOOOOOO..",
"ooOOOOOOOOOOOOOOOOOOOOOOOOOOOO..ooOOOOOOOOOOOOOOOOOOOOOOOOOOOO..",
"ooOOOOOOOOOOOOOOOOOOOOOOOOOOOO..ooOOOOOOOOOOOOOOOOOOOOOOOOOOOO..",
"ooOOOOOOOOOOOOOOOOOOOOOOOOOOOO..ooOOOOOOOOOOOOOOOOOOOOOOOOOOOO..",
"ooOOOOOOOOOOOOOOOOOOOOOOOOOOOO..ooOOOOOOOOOOOOOOOOOOOOOOOOOOOO..",
"ooOOOOOOOOOOOOOOOOOOOOOOOOOOOO..ooOOOOOOOOOOOOOOOOOOOOOOOOOOOO..",
"ooOOOOOOOOOOOOOOOOOOOOOOOOOOOO..ooOOOOOOOOOOOOOOOOOOOOOOOOOOOO..",
"ooOOOOOOOOOOOOOOOOOOOOOOOOOOOO..ooOOOOOOOOOOOOOOOOOOOOOOOOOOOO..",
"ooOOOOOOOOOOOOOOOOOOOOOOOOOOOO..ooOOOOOOOOOOOOOOOOOOOOOOOOOOOO..",
"ooOOOOOOOOOOOOOOOOOOOOOOOOOOOO..ooOOOOOOOOOOOOOOOOOOOOOOOOOOOO..",
"ooOOOOOOOOOOOOOOOOOOOOOOOOOOOO..ooOOOOOOOOOOOOOOOOOOOOOOOOOOOO..",
"ooOOOOOOOOOOOOOOOOOOOOOOOOOOOO..ooOOOOOOOOOOOOOOOOOOOOOOOOOOOO..",
"ooOOOOOOOOOOOOOOOOOOOOOOOOOOOO..ooOOOOOOOOOOOOOOOOOOOOOOOOOOOO..",
"ooOOOOOOOOOOOOOOOOOOOOOOOOOOOO..ooOOOOOOOOOOOOOOOOOOOOOOOOOOOO..",
"ooOOOOOOOOOOOOOOOOOOOOOOOOOOOO..ooOOOOOOOOOOOOOOOOOOOOOOOOOOOO..",
"ooOOOOOOOOOOOOOOOOOOOOOOOOOOOO..ooOOOOOOOOOOOOOOOOOOOOOOOOOOOO..",
"ooOOOOOOOOOOOOOOOOOOOOOOOOOOOO..ooOOOOOOOOOOOOOOOOOOOOOOOOOOOO..",
"ooOOOOOOOOOOOOOOOOOOOOOOOOOOOO..ooOOOOOOOOOOOOOOOOOOOOOOOOOOOO..",
"ooOO+@@+OOOOOOOOOOOOOOOO+@@+OO..ooOO+@@+OOOOOOOOOOOOOOOO+@@+OO..",
"ooOO@OOXOOOOOOOOOOOOOOOO@OOXOO..ooOO@OOXOOOOOOOOOOOOOOOO@OOXOO..",
"ooOO@OOXOOOOOOOOOOOOOOOO@OOXOO..ooOO@OOXOOOOOOOOOOOOOOOO@OOXOO..",
"ooOOoXXoOOOOOOOOOOOOOOOOoXXoOO..ooOOoXXoOOOOOOOOOOOOOOOOoXXoOO..",
"ooOOOooOOOOOOOOOOOOOOOOOOooOOO..ooOOOooOOOOOOOOOOOOOOOOOOooOOO..",
"ooOOOOOOOOOOOOOOOOOOOOOOOOOOOO..ooOOOOOOOOOOOOOOOOOOOOOOOOOOOO..",
"oo                            ..oo                            ..",
"o                              .o                              ."
};
