/* XPM */
static char *result[] = {
/* columns rows colors chars-per-pixel */
"64 64 7 1 ",
"  c #080F1B",
". c gray20",
"X c #434343",
"o c #535353",
"O c gray39",
"+ c gray53",
"@ c #979797",
/* pixels */
"@@@@@@@@@@O++++++++++++++++++++++++++++++++++++++++++@@@@@@@@@@O",
"@+++++++++O++++++++++++++++++++++++++++++++++++++++++@+++++++++O",
"@+++++++++O++++++++++++++++++++++++++++++++++++++++++@+++++++++O",
"@+++++++++O++++++++++++++++++++++++++++++++++++++++++@+++++++++O",
"@+++++++++O++++++++++++++++++++++++++++++++++++++++++@+++++++++O",
"@+++++++++O++++++++++++++++++++++++++++++++++++++++++@+++++++++O",
"OOOOOOOOOOO++++++++++++++++++++++++++++++++++++++++++OOOOOOOOOOO",
"@@@@@@@@@@O++++++++++++++++++++++++++++++++++++++++++@@@@@@@@@@O",
"@+++++++++O++++++++++++++++++++++++++++++++++++++++++@+++++++++O",
"@+++++++++O++++++++++++++++++++++++++++++++++++++++++@+++++++++O",
"@+++++++++O++++++++++++++++++++++++++++++++++++++++++@+++++++++O",
"@+++++++++O++++++++++++++++++++++++++++++++++++++++++@+++++++++O",
"@+++++++++O++++++++++++++++++++++++++++++++++++++++++@+++++++++O",
"OOOOOOOOOOO++++++++++++++++++++++++++++++++++++++++++OOOOOOOOOOO",
"@@@@@@@@@@O++++++++++++++++++++++++++++++++++++++++++@@@@@@@@@@O",
"@+++++++++O++++++++++++++++++++++++++++++++++++++++++@+++++++++O",
"@+++++++++O@@@@@@@@@@@@@@@@@@@@@@@@@@@@@@@@@@@@@@@@@@@+++++++++O",
"@+++++++++O@XXXXXXXXXXXXXXXXXXXXXXXXXXXXXXXXXXXXXXXX@@+++++++++O",
"@+++++++++O@OXXXXXXXXXXXXXXXXXXXXXXXXXXXXXXXXXXXXXXO@@+++++++++O",
"@+++++++++O@OOXXXXXXXXXXXXXXXXXXXXXXXXXXXXXXXXXXXXOO@@+++++++++O",
"OOOOOOOOOOO@OOOXXXXXXXXXXXXXXXXXXXXXXXXXXXXXXXXXXOOO@OOOOOOOOOOO",
"@@@@@@@@@@O@OOOO                                OOOO@@@@@@@@@@@O",
"@+++++++++O@OOOO XooooooooooooooooooooooooooooX OOOO@@+++++++++O",
"@+++++++++O@OOOO o............................. OOOO@@+++++++++O",
"@+++++++++O@OOOO o............................. OOOO@@+++++++++O",
"@+++++++++O@OOOO X............................. OOOO@@+++++++++O",
"@+++++++++O@OOOO                                OOOO@@+++++++++O",
"OOOOOOOOOOO@OOOO XooooooooooooooooooooooooooooX OOOO@OOOOOOOOOOO",
"@@@@@@@@@@O@OOOO o............................. OOOO@@@@@@@@@@@O",
"@+++++++++O@OOOO o............................. OOOO@@+++++++++O",
"@+++++++++O@OOOO X............................. OOOO@@+++++++++O",
"@+++++++++O@OOOO                                OOOO@@+++++++++O",
"@+++++++++O@OOOO XooooooooooooooooooooooooooooX OOOO@@+++++++++O",
"@+++++++++O@OOOO o............................. OOOO@@+++++++++O",
"OOOOOOOOOOO@OOOO o............................. OOOO@OOOOOOOOOOO",
"@@@@@@@@@@O@OOOO X............................. OOOO@@@@@@@@@@@O",
"@+++++++++O@OOOO                                OOOO@@+++++++++O",
"@+++++++++O@OOOO XooooooooooooooooooooooooooooX OOOO@@+++++++++O",
"@+++++++++O@OOOO o............................. OOOO@@+++++++++O",
"@+++++++++O@OOOO o............................. OOOO@@+++++++++O",
"@+++++++++O@OOOO X............................. OOOO@@+++++++++O",
"OOOOOOOOOOO@OOOO                                OOOO@OOOOOOOOOOO",
"@@@@@@@@@@O@OOOO XooooooooooooooooooooooooooooX OOOO@@@@@@@@@@@O",
"@+++++++++O@OOOO o............................. OOOO@@+++++++++O",
"@+++++++++O@OOOO o............................. OOOO@@+++++++++O",
"@+++++++++O@OOOO X............................. OOOO@@+++++++++O",
"@+++++++++O@OOOO                                OOOO@@+++++++++O",
"@+++++++++O@OOOO XooooooooooooooooooooooooooooX OOOO@@+++++++++O",
"OOOOOOOOOOO@OOOO o............................. OOOO@OOOOOOOOOOO",
"@@@@@@@@@@O@OOOO o............................. OOOO@@@@@@@@@@@O",
"@+++++++++O@OOOO X............................. OOOO@@+++++++++O",
"@+++++++++O@OOOO                                OOOO@@+++++++++O",
"@+++++++++O@OOOO XooooooooooooooooooooooooooooX OOOO@@+++++++++O",
"@+++++++++O@OOOO o............................. OOOO@@+++++++++O",
"@+++++++++O@OOOO o............................. OOOO@@+++++++++O",
"OOOOOOOOOOO@OOOO X............................. OOOO@OOOOOOOOOOO",
"@@@@@@@@@@O@OOOO                                OOOO@@@@@@@@@@@O",
"@+++++++++O@OOOO XooooooooooooooooooooooooooooX OOOO@@+++++++++O",
"@+++++++++O@OOOO o............................. OOOO@@+++++++++O",
"@+++++++++O@OOOO o............................. OOOO@@+++++++++O",
"@+++++++++O@OOOO X............................. OOOO@@+++++++++O",
"@+++++++++O@OOOO                                OOOO@@+++++++++O",
"OOOOOOOOOOO@OOOO                                OOOO@OOOOOOOOOOO",
"OOOOOOOOOOO@OOOO                                OOOO@OOOOOOOOOOO"
};
