/* XPM */
static char *result[] = {
/* columns rows colors chars-per-pixel */
"64 64 164 2 ",
"   c #34001F",
".  c #00002F",
"X  c #000035",
"o  c #00043C",
"O  c #010E3D",
"+  c #140E3B",
"@  c #001F37",
"#  c #01113D",
"$  c #001E38",
"%  c #1D113B",
"&  c #36062E",
"*  c #270433",
"=  c #25133A",
"-  c #00372F",
";  c #00392F",
":  c #002233",
">  c #002B36",
",  c #01233A",
"<  c #08253E",
"1  c #012A39",
"2  c #0D2F3B",
"3  c #003434",
"4  c #013C33",
"5  c #023F38",
"6  c #123E3E",
"7  c #530000",
"8  c #4E0C1E",
"9  c #5D1D1A",
"0  c #671700",
"q  c #7D1F00",
"w  c #621E1E",
"e  c #5F231F",
"r  c #7A2800",
"t  c #6F2718",
"y  c #69271C",
"u  c #702615",
"i  c #732B1C",
"p  c #782E1A",
"a  c #742A16",
"s  c #76301B",
"d  c #481930",
"f  c #5A242E",
"g  c #4C2639",
"h  c #4B2034",
"j  c #542332",
"k  c #5E2630",
"l  c #5F2E39",
"z  c #5D303C",
"x  c #622321",
"c  c #682724",
"v  c #682826",
"b  c #633038",
"n  c #773630",
"m  c #743836",
"M  c #044135",
"N  c #0A4436",
"B  c #024439",
"V  c #0D443A",
"C  c #0E4C3F",
"Z  c #074B3E",
"A  c #11463B",
"S  c #144A3D",
"D  c #184D3F",
"F  c #010540",
"G  c #000C41",
"H  c #021242",
"J  c #071941",
"K  c #0A1D44",
"L  c #031548",
"P  c #171A40",
"I  c #0E2245",
"U  c #00254C",
"Y  c #0D254A",
"T  c #042B4D",
"R  c #0E2C4D",
"E  c #042D40",
"W  c #102347",
"Q  c #12274A",
"!  c #152B4C",
"~  c #192E4C",
"^  c #0E3643",
"/  c #1A314F",
"(  c #002655",
")  c #002E56",
"_  c #112A53",
"`  c #003253",
"'  c #003B5D",
"]  c #173254",
"[  c #1B3452",
"{  c #1D3956",
"}  c #1E3C5B",
"|  c #252143",
" . c #2C304F",
".. c #253858",
"X. c #333956",
"o. c #40364D",
"O. c #5D3F4F",
"+. c #593948",
"@. c #693A41",
"#. c #144F40",
"$. c #194E40",
"%. c #145142",
"&. c #1D5344",
"*. c #1C5848",
"=. c #215746",
"-. c #215847",
";. c #245B4A",
":. c #20405E",
">. c #024667",
",. c #1E4162",
"<. c #144363",
"1. c #005376",
"2. c #165375",
"3. c #125678",
"4. c #195678",
"5. c #185374",
"6. c #224463",
"7. c #254C6D",
"8. c #26506F",
"9. c #2D566B",
"0. c #3A526F",
"q. c #31586C",
"w. c #264F70",
"e. c #275171",
"r. c #285474",
"t. c #2C5977",
"y. c #2F5C79",
"u. c #315F7A",
"i. c #33627C",
"p. c #37687F",
"a. c #66404B",
"s. c #415669",
"d. c #435665",
"f. c #5A5C65",
"g. c #822600",
"h. c #8D3700",
"j. c #893B1F",
"k. c #823E32",
"l. c #9A4106",
"z. c #934326",
"x. c #994725",
"c. c #9F4A26",
"v. c #964729",
"b. c #8D4533",
"n. c #9C4C31",
"m. c #A84C29",
"M. c #A24E2B",
"N. c #A85027",
"B. c #A6512D",
"V. c #AE5429",
"C. c #B1572B",
"Z. c #AA5432",
"A. c #C86225",
"S. c #8D4F47",
"D. c #995242",
"F. c #396B82",
"G. c #3B7289",
"H. c #3F7E91",
"J. c #417689",
"K. c #457D8E",
"L. c #477F90",
"P. c #498393",
"I. c #478394",
"U. c None",
/* pixels */
"U.U.U.U.U.U.U.U.U.U.U.U.U.U.U.U.U.U.U.U.U.U.U.U.U.U.U.U.U.U.U.U.U.U.U.U.U.U.U.U.U.U.U.U.U.U.U.U.U.U.U.U.U.U.U.U.U.U.U.U.U.U.U.U.",
"U.U.U.U.U.U.U.U.U.U.U.U.U.U.U.U.U.U.U.U.U.U.U.U.U.U.U.U.U.U.U.U.U.U.U.U.U.U.U.U.U.U.U.U.U.U.U.U.U.U.U.U.U.U.U.U.U.U.U.U.U.U.U.U.",
"U.U.U.U.U.U.U.U.U.U.U.U.U.U.U.U.U.U.U.U.U.U.U.U.U.U.U.U.U.U.U.U.U.U.U.U.U.U.U.U.U.U.U.U.U.U.U.U.U.U.U.U.U.U.U.U.U.U.U.U.U.U.U.U.",
"U.U.U.U.U.U.U.U.U.U.U.U.U.U.U.U.U.U.U.U.U.U.U.U.U.U.U.U.U.U.U.U.U.U.U.U.U.U.U.U.U.U.U.U.U.U.U.U.U.U.U.U.U.U.U.U.U.U.U.U.U.U.U.U.",
"U.U.U.U.U.U.U.U.U.U.U.U.U.U.U.U.U.U.U.U.U.U.U.U.U.U.U.U.U.U.U.U.U.U.U.U.U.U.U.U.U.U.U.U.U.U.U.U.U.U.U.U.U.U.U.U.U.U.U.U.U.U.U.U.",
"U.U.U.U.U.U.U.U.U.U.U.U.U.U.U.U.U.U.U.U.U.U.U.U.U.U.U.U.U.U.U.U.U.U.U.U.U.U.U.U.U.U.U.U.4 U.U.U.U.U.U.U.U.U.U.U.U.U.U.U.U.U.U.U.",
"U.U.U.U.U.U.U.U.U.U.U.U.U.U.U.U.U.U.U.U.U.U.U.U.U.U.U.U.U.U.U.U.U.U.U.U.U.U.U.U.U.U.U.U.4 4 U.U.U.U.U.U.U.U.U.U.U.U.U.U.U.U.U.U.",
"U.U.U.U.U.U.U.U.U.U.U.U.U.U.U.U.U.U.U.U.U.U.U.U.U.U.U.U.U.U.U.U.U.U.U.U.U.U.U.U.U.U.U.U.V Z 4 U.U.U.U.U.U.U.U.U.U.U.U.U.U.U.U.U.",
"U.U.U.U.U.U.U.U.U.U.U.U.U.U.U.U.U.U.U.U.U.U.U.U.U.U.U.U.U.U.U.U.U.U.U.U.U.U.U.U.U.U.U.4 -.D - U.U.U.U.U.U.U.U.U.U.U.U.U.U.U.U.U.",
"U.U.U.U.U.U.U.U.U.U.U.U.U.U.U.U.U.U.U.U.U.U.U.U.U.U.U.U.U.U.U.U.U.U.U.U.U.U.U.U.U.U.U.4 -.S S &.4 U.U.U.U.U.U.U.U.U.U.U.U.U.U.U.",
"U.U.U.U.U.U.U.U.U.U.U.U.U.U.U.U.U.U.U.U.U.U.U.U.U.U.U.U.U.U.U.U.U.U.U.U.U.U.U.U.U.U.U.4 -.A S ;.4 U.U.U.U.U.U.U.U.U.U.U.U.U.U.U.",
"U.U.U.U.U.U.U.U.U.U.U.U.U.U.U.U.U.U.U.U.U.U.U.U.U.U.U.U.U.U.U.U.U.U.U.U.U.U.U.U.U.U.U.; -.S S *.4 U.U.U.U.U.U.U.U.U.U.U.U.U.U.U.",
"U.U.U.U.U.U.U.U.U.U.U.U.U.U.U.U.U.U.U.U.U.U.U.U.U.U.U.U.U.U.U.U.U.U.U.U.U.U.U.U.U.U.U.4 -.A S -.3 U.U.U.U.U.U.U.U.U.U.U.U.U.U.U.",
"U.U.U.U.U.U.U.U.U.U.U.U.U.U.U.U.U.U.U.U.U.U.U.U.U.U.U.U.U.U.U.U.U.U.U.U.U.U.U.U.U.U.4 *.A 4 S -.; U.U.U.U.U.U.U.U.U.U.U.U.U.U.U.",
"U.U.U.U.U.U.U.U.U.U.U.U.U.U.U.U.U.U.U.U.U.U.U.U.U.U.U.U.U.U.U.U.U.U.U.U.U.U.U.U.U.4 4 ;.V - D &.4 4 U.U.U.U.U.U.U.U.U.U.U.U.U.U.",
"U.U.U.U.U.U.U.U.U.U.U.U.U.U.U.U.U.U.U.U.U.U.U.U.U.U.U.U.U.U.U.U.U.U.U.U.U.U.U.U.4 B S &.N ; D -.4 M U.U.U.U.U.U.U.U.U.U.U.U.U.U.",
"U.U.U.U.U.U.U.U.U.U.U.U.U.U.U.U.U.U.U.U.U.U.U.U.U.U.U.U.U.U.U.U.U.U.U.U.4 5 4 4 M V ;.4 4 M D &.4 4 U.U.U.U.U.U.U.U.U.U.U.U.U.U.",
"U.U.U.U.U.U.U.U.U.U.U.U.U.U.U.U.U.U.U.U.U.U.U.U.U.U.U.U.U.U.U.U.U.O O O # # O > A -.M 4 ; D D M 4 4 U.U.U.U.U.U.U.U.U.U.U.U.U.U.",
"U.U.U.U.U.U.U.U.U.U.U.U.U.U.U.U.4 4 4 ; 4 U.U.U.U.U.U.o o o o o K [ ! ! Q Q ! I : 2 , $ ; &.D ; 4 4 U.U.U.U.U.U.U.U.U.U.U.U.U.U.",
"U.U.U.U.U.U.U.U.U.U.U.U.U.U.U.U.U.4 C %.4 U.U.U.U.U.J Q Y Q Y I ~ [ [ 6.6.6.6.} _ _ K P , A 6 > M M U.U.U.U.U.U.U.U.U.U.U.U.U.U.",
"U.U.U.U.U.U.U.U.U.U.U.U.U.U.U.U.U.U.S -.N V 5 4 1 L Q [ [ [ [ [ [ [ { r.r.r.e.r.i.t.{ } I O F I 4 4 U.U.U.U.U.U.U.U.U.U.U.U.U.U.",
"U.U.U.U.U.U.U.U.U.U.U.U.U.U.U.U.U.U.U.C ;.;.E o ! [ [ [ [ [ [ [ ] [ { e.e.e.7.p.P.J.8.r.{ / [ ~ O # U.U.U.U.U.U.U.U.U.U.U.U.U.U.",
"U.U.U.U.U.U.U.U.U.U.U.U.U.U.U.U.U.U.U.U.C N # P ~ } 7.7.[ [ [ [ [ [ [ } e.r.7.p.P.K.8.e.8.} / [ Q O U.U.U.U.U.U.U.U.U.U.U.U.U.U.",
"U.U.U.U.U.U.U.U.U.U.U.U.U.U.U.U.U.U.U.U.; ^ I ,.:.7.r.e.[ [ [ [ [ [ [ [ :.e.e.i.F.p.e.e.r.7.} [ [ o U.U.U.U.U.U.U.U.U.U.U.U.U.U.",
"U.U.U.U.U.U.U.U.U.U.U.U.U.U.U.U.U.U.U.U.U.{ { 7.r.r.8.7.[ [ [ [ [ [ [ [ ~ 6.7.w.7.7.e.7.7.7.6./ / K U.U.U.U.U.U.U.U.U.U.U.U.U.U.",
"U.U.U.U.U.U.U.U.U.U.U.U.U.U.U.U.U.U.U.U.H [ 7.r.r.e.7.~ [ [ [ [ [ [ [ [ [ [ / :.r.e.e.{ / [ [ [ [ [ L U.U.U.U.U.U.U.U.U.U.U.U.U.",
"U.U.U.U.U.U.U.U.U.U.U.U.U.U.U.U.U.U.U.U.H [ 7.r.r.7.[ [ [ [ [ { ! # $ J [ { [ ....} { [ [ [ [ [ [ [ H U.U.U.U.U.U.U.U.U.U.U.U.U.",
"U.U.U.U.U.U.U.U.U.U.U.U.U.U.U.U.U.U.U.O # / 8.r.7.{ / [ [ Q W I K o O O I W I I W K I [ [ [ [ { [ [ J U.U.U.U.U.U.U.U.U.U.U.U.U.",
"U.U.U.U.U.U.U.U.U.U.U.U.U.U.U.U.U.U.U.L I } e.7.{ / [ [ ~ O o O O O O O o o O o o o O ! ~ R T R ~ ! H U.U.U.U.U.U.U.U.U.U.U.U.U.",
"U.U.U.U.U.U.U.U.U.U.U.U.U.U.U.U.U.U.U.K { e.e.../ [ [ ~ O O O O O # O O O # O O O O O O O + = + O O H U.U.U.U.U.U.U.U.U.U.U.U.U.",
"U.U.U.U.U.U.U.U.U.U.U.U.U.U.U.U.U.U.O K { { { [ [ [ / # O O O O O O O # O O # # O F O O o j a f F O O U.a a U.U.U.U.U.U.U.U.U.U.",
"U.U.U.U.U.U.U.U.U.U.U.U.U.U.U.U.U.# G J { [ [ [ ~ I K O O O O # O O O O # O # o g k.O O d w y x f O H U.x.x.U.U.U.U.U.U.U.U.U.U.",
"U.U.U.U.U.U.U.U.U.U.U.U.U.U.U.U.U.O J ! / Q ! ! K o O # O O O O O O O O O O O o b N.G F j.s   9 p O G U.C.M.U.U.U.U.U.U.U.U.U.U.",
"U.U.U.U.U.U.U.U.U.U.U.U.U.U.U.U.# G I [ / O o O O O O O O # O O O # O O # O G o l M.= o Z.v.y c v O H U.N.m.u U.U.U.U.U.U.U.U.U.",
"U.U.U.U.U.U.U.U.U.U.U.U.U.U.U.U.O O W / # # O O O O O O O # O o O O O O O O # o b N.v % F n.A.B.o O O x c.M.u U.U.U.U.U.U.U.U.U.",
"U.U.U.U.U.U.U.; - 4 4 U.U.U.U.U.O o W / o O # O O O # O O O o m m o O O # O # F h h.r * o j n k . . X 7 g.r 8 ` U.U.U.U.U.U.U.U.",
"U.U.U.U.U.U.5 D &.D &.D U.U.U.U.o K Q Y O O O O O O O O O O o b.x.& o o o X O o | O.O...] ) ( ' q.9.9.d.f.f.0.:.U.U.U.U.U.U.U.U.",
"U.U.U.U.U.U.M -.*.-.*.;.*.U.U.U.# ~ ! o # O O O O O O O O O o k.v.l U I Q Y P *  .3.2.e.y.y.y.F.P.P.P.I.H.H.G.7.{ U.U.U.U.U.U.U.",
"U.U.U.U.U.U.U.4 M 4 4 M 4 4 U.o / W O O # O O # O # # O O O F y @.4.w.r.w.5.o.0 @.5.w.w.J.I.L.L.L.L.L.P.i.w.r.w.[ U.U.U.U.U.U.U.",
"U.U.U.U.U.U.U.U.U.U.4 4 4 4 # o [ W o O O O O O O O O O O o . X.0.4.r.r.r.4.O.h.S.1.e.e.u.u.i.i.u.u.u.u.t.6.{ } [ U.U.U.U.U.U.U.",
"U.U.U.U.U.U.U.U.U.U.D *.$.$.H O I K O O O O O # O O # O X { } <.<.6.6.6.6.>.+.l.D.>.6.6.:.6.:...:.:.,.} 6.../ [ [ U.U.U.U.U.U.U.",
"U.U.U.U.U.U.U.U.U.U.U.;.-.&.# O O O O O O O O O O O O H _ 7.r.:.~ [ ! ! ! U h j.b.U ! ! Q Q ! ! ! ! ! ! ! ~ / _ ~ U.U.U.U.U.U.U.",
"U.U.U.U.U.U.U.U.U.U.U.U.M 4 # O O O O O O O O O O O O K e.{ / [ [ ~ o O O O O j c o O O O O O O O O O O O O O O O U.U.U.U.U.U.U.",
"U.U.U.U.U.U.U.U.U.U.U.4 4 4 # O O O O O # O O # O O O # Y J # J K # O O O O O % = O O O O O O O O O O O O # O O O U.U.U.U.U.U.U.",
"U.U.U.U.U.U.U.U.U.U.; M 4 4 # O O O # O o O o o o o O O o o O O O O # O O O O O O O O O # O # O O O O O O O O O # U.U.U.U.U.U.U.",
"U.U.U.U.U.U.U.U.U.U.D D A A # H O O O # , , , , , , $ O O O O O O O O O # O O # O # O O O O O O O O O O # O O # # U.U.U.U.U.U.U.",
"U.U.U.U.U.U.U.U.U.-.;.-.-.=.# O O # # , M ; 5 M 5 M 3 O O O # O O O O O O O # O O O O # O O O O O O O O O O O O O U.U.U.U.U.U.U.",
"U.U.U.U.U.U.U.4 4 5 N 5 N 5 U.U.4 M 4 4 ; ; =.=.;.$.3 o O # O O O O O O O O O O O # O O # O # O # O O # O # O O # U.U.U.U.U.U.U.",
"U.U.U.U.U.U.4 M B B M M 4 U.U.U.U.4 %.-.&.&.;.;.&.N 4 o O O O O O O O O O # O O O # O # O O # O O O # O O O # O H U.U.U.U.U.U.U.",
"U.U.U.U.U.U.4 5 4 4 4 5 U.U.U.U.U.U.S ;.&.*.&.&.V > 1 O # O # O O O # O O O O # O O O O # O O O O O O O O # H O O U.U.U.U.U.U.U.",
"U.U.U.U.U.U.U.U.U.U.U.U.U.U.U.U.U.U.U.U.; 4 4 4 , F G O O O O O # O # O O O O O O O O O O O # O O # # O O G # # U.U.U.U.U.U.U.U.",
"U.U.U.U.U.U.U.U.U.U.U.U.U.U.U.U.U.U.U.U.U.U.U.U.U.U.H O O # O O O O O O O # O O O # O # O O O O O O O O H # U.U.U.U.U.U.U.U.U.U.",
"U.U.U.U.U.U.U.U.U.U.U.U.U.U.U.U.U.U.U.U.U.U.U.U.U.U.U.U.H H # O O O O # O # O # O # O O O O O # O O H H G U.U.U.U.U.U.U.U.U.U.U.",
"U.U.U.U.U.U.U.U.U.U.U.U.U.U.U.U.U.U.U.U.U.U.U.U.U.U.U.U.O O O H H O O O O O O O O O O O O H H G H H O O U.U.U.U.U.U.U.U.U.U.U.U.",
"U.U.U.U.U.U.U.U.U.U.U.U.U.U.U.U.U.U.U.U.U.U.U.U.U.U.U.U.U.U.# O # G O O # O G # O O # O # O O O O O U.U.U.U.U.U.U.U.U.U.U.U.U.U.",
"U.U.U.U.U.U.U.U.U.U.U.U.U.U.U.U.U.U.U.U.U.U.U.U.U.U.U.U.U.U.U.U.U.H O # O O # O O # O O H U.U.U.U.U.U.U.U.U.U.U.U.U.U.U.U.U.U.U.",
"U.U.U.U.U.U.U.U.U.U.U.U.U.U.U.U.U.U.U.U.U.U.U.U.U.U.U.U.U.U.U.U.U.U.U.U.U.U.U.U.U.U.U.U.U.U.U.U.U.U.U.U.U.U.U.U.U.U.U.U.U.U.U.U.",
"U.U.U.U.U.U.U.U.U.U.U.U.U.U.U.U.U.U.U.U.U.U.U.U.U.U.U.U.U.U.U.U.U.U.U.U.U.U.U.U.U.U.U.U.U.U.U.U.U.U.U.U.U.U.U.U.U.U.U.U.U.U.U.U.",
"U.U.U.U.U.U.U.U.U.U.U.U.U.U.U.U.U.U.U.U.U.U.U.U.U.U.U.U.U.U.U.U.U.U.U.U.U.U.U.U.U.U.U.U.U.U.U.U.U.U.U.U.U.U.U.U.U.U.U.U.U.U.U.U.",
"U.U.U.U.U.U.U.U.U.U.U.U.U.U.U.U.U.U.U.U.U.U.U.U.U.U.U.U.U.U.U.U.U.U.U.U.U.U.U.U.U.U.U.U.U.U.U.U.U.U.U.U.U.U.U.U.U.U.U.U.U.U.U.U.",
"U.U.U.U.U.U.U.U.U.U.U.U.U.U.U.U.U.U.U.U.U.U.U.U.U.U.U.U.U.U.U.U.U.U.U.U.U.U.U.U.U.U.U.U.U.U.U.U.U.U.U.U.U.U.U.U.U.U.U.U.U.U.U.U.",
"U.U.U.U.U.U.U.U.U.U.U.U.U.U.U.U.U.U.U.U.U.U.U.U.U.U.U.U.U.U.U.U.U.U.U.U.U.U.U.U.U.U.U.U.U.U.U.U.U.U.U.U.U.U.U.U.U.U.U.U.U.U.U.U.",
"U.U.U.U.U.U.U.U.U.U.U.U.U.U.U.U.U.U.U.U.U.U.U.U.U.U.U.U.U.U.U.U.U.U.U.U.U.U.U.U.U.U.U.U.U.U.U.U.U.U.U.U.U.U.U.U.U.U.U.U.U.U.U.U.",
"U.U.U.U.U.U.U.U.U.U.U.U.U.U.U.U.U.U.U.U.U.U.U.U.U.U.U.U.U.U.U.U.U.U.U.U.U.U.U.U.U.U.U.U.U.U.U.U.U.U.U.U.U.U.U.U.U.U.U.U.U.U.U.U."
};
